{"accessors" : [{"bufferView" : 0, "byteOffset" : 0, "componentType" : 5123, "count" : 114, "type" : "SCALAR", "max" : [102], "min" : [0]}, {"bufferView" : 1, "byteOffset" : 0, "componentType" : 5126, "count" : 103, "type" : "VEC3", "max" : [146.8031005859375, 35.564029693603516, 248.8914031982422], "min" : [136.1381072998047, 18.18012046813965, 238.85479736328125], "name" : "POSITION"}, {"bufferView" : 1, "byteOffset" : 12, "componentType" : 5126, "count" : 103, "type" : "VEC3", "max" : [1.1255869317389287E-15, 0.5000005960464478, 0.8660300970077515], "min" : [-1.1255869317389287E-15, -0.5000005960464478, -0.8660300970077515], "name" : "NORMAL"}, {"bufferView" : 1, "byteOffset" : 24, "componentType" : 5126, "count" : 103, "type" : "VEC2", "max" : [-4.93986701965332, -4.320621013641357], "min" : [-5.326855182647705, -5.299194812774658], "name" : "TEXCOORD_0"}, {"bufferView" : 0, "byteOffset" : 228, "componentType" : 5123, "count" : 330, "type" : "SCALAR", "max" : [301], "min" : [0]}, {"bufferView" : 2, "byteOffset" : 0, "componentType" : 5126, "count" : 302, "type" : "VEC3", "max" : [80.72421264648438, 35.564029693603516, 248.8914031982422], "min" : [54.12630081176758, 18.18012046813965, 238.85479736328125], "name" : "POSITION"}, {"bufferView" : 2, "byteOffset" : 12, "componentType" : 5126, "count" : 302, "type" : "VEC3", "max" : [1.1766201374154082E-15, 0.5000005960464478, 0.8660300970077515], "min" : [-1.1766201374154082E-15, -0.5000005960464478, -0.8660300970077515], "name" : "NORMAL"}, {"bufferView" : 2, "byteOffset" : 24, "componentType" : 5126, "count" : 302, "type" : "VEC2", "max" : [-1.9640109539031982, -4.320621013641357], "min" : [-2.9291350841522217, -5.299194812774658], "name" : "TEXCOORD_0"}, {"bufferView" : 0, "byteOffset" : 888, "componentType" : 5123, "count" : 2424, "type" : "SCALAR", "max" : [2197], "min" : [0]}, {"bufferView" : 3, "byteOffset" : 0, "componentType" : 5126, "count" : 2198, "type" : "VEC3", "max" : [308.756591796875, 250.0791015625, 285.4815979003906], "min" : [-305.4165954589844, -245.98410034179688, 165.01119995117188], "name" : "POSITION"}, {"bufferView" : 3, "byteOffset" : 12, "componentType" : 5126, "count" : 2198, "type" : "VEC3", "max" : [0.5000017881393433, 0.5000014901161194, 0.8660303950309753], "min" : [-0.5000017881393433, -0.5000014901161194, -0.8660303950309753], "name" : "NORMAL"}, {"bufferView" : 3, "byteOffset" : 24, "componentType" : 5126, "count" : 2198, "type" : "VEC2", "max" : [11.203450202941895, 9.013222694396973], "min" : [-11.203450202941895, -11.043530464172363], "name" : "TEXCOORD_0"}, {"bufferView" : 0, "byteOffset" : 5736, "componentType" : 5123, "count" : 297, "type" : "SCALAR", "max" : [289], "min" : [0]}, {"bufferView" : 4, "byteOffset" : 0, "componentType" : 5126, "count" : 290, "type" : "VEC3", "max" : [308.756591796875, 250.0791015625, 285.4815979003906], "min" : [-305.4165954589844, -245.98410034179688, 165.01119995117188], "name" : "POSITION"}, {"bufferView" : 4, "byteOffset" : 12, "componentType" : 5126, "count" : 290, "type" : "VEC3", "max" : [0.5001323223114014, 1.0000044107437134, 1.0000044107437134], "min" : [-0.4999977946281433, -1.0000044107437134, -2.243983887595391E-10], "name" : "NORMAL"}, {"bufferView" : 4, "byteOffset" : 24, "componentType" : 5126, "count" : 290, "type" : "VEC2", "max" : [11.082260131835938, 11.991789817810059], "min" : [-11.203450202941895, -13.9173002243042], "name" : "TEXCOORD_0"}, {"bufferView" : 0, "byteOffset" : 6332, "componentType" : 5123, "count" : 324, "type" : "SCALAR", "max" : [304], "min" : [0]}, {"bufferView" : 5, "byteOffset" : 0, "componentType" : 5126, "count" : 305, "type" : "VEC3", "max" : [-278.15850830078125, -68.8198013305664, 180.74859619140625], "min" : [-304.97760009765625, -112.12689971923828, 165.2646026611328], "name" : "POSITION"}, {"bufferView" : 5, "byteOffset" : 12, "componentType" : 5126, "count" : 305, "type" : "VEC3", "max" : [0.5000001192092896, 3.245345327516176E-15, 0.8660303950309753], "min" : [-0.5000001192092896, -3.245345327516176E-15, -0.8660303950309753], "name" : "NORMAL"}, {"bufferView" : 5, "byteOffset" : 24, "componentType" : 5126, "count" : 305, "type" : "VEC2", "max" : [4.068603992462158, 8.847525596618652], "min" : [2.497175931930542, 7.337829113006592], "name" : "TEXCOORD_0"}, {"bufferView" : 0, "byteOffset" : 6980, "componentType" : 5123, "count" : 12, "type" : "SCALAR", "max" : [10], "min" : [0]}, {"bufferView" : 6, "byteOffset" : 0, "componentType" : 5126, "count" : 11, "type" : "VEC3", "max" : [-83.42558288574219, 236.88999938964844, 287.8446044921875], "min" : [-83.70020294189453, 235.70889282226562, 286.360595703125], "name" : "POSITION"}, {"bufferView" : 6, "byteOffset" : 12, "componentType" : 5126, "count" : 11, "type" : "VEC3", "max" : [0.9833095669746399, -0, 0.18196479976177216], "min" : [-0.9833095669746399, -0, -0.18196479976177216], "name" : "NORMAL"}, {"bufferView" : 0, "byteOffset" : 7004, "componentType" : 5123, "count" : 30, "type" : "SCALAR", "max" : [26], "min" : [0]}, {"bufferView" : 7, "byteOffset" : 0, "componentType" : 5126, "count" : 27, "type" : "VEC3", "max" : [-174.64939880371094, -146.94920349121094, 240.5092010498047], "min" : [-231.76829528808594, -165.71429443359375, 207.53179931640625], "name" : "POSITION"}, {"bufferView" : 7, "byteOffset" : 12, "componentType" : 5126, "count" : 27, "type" : "VEC3", "max" : [0.5000001192092896, 2.867168525169661E-12, 0.8660303950309753], "min" : [-0.5000001192092896, -2.867168525169661E-12, -0.8660303950309753], "name" : "NORMAL"}, {"bufferView" : 7, "byteOffset" : 24, "componentType" : 5126, "count" : 27, "type" : "VEC2", "max" : [6.013062953948975, 4.726436138153076], "min" : [5.332157135009766, 1.511106014251709], "name" : "TEXCOORD_0"}, {"bufferView" : 0, "byteOffset" : 7064, "componentType" : 5123, "count" : 144, "type" : "SCALAR", "max" : [131], "min" : [0]}, {"bufferView" : 8, "byteOffset" : 0, "componentType" : 5126, "count" : 132, "type" : "VEC3", "max" : [32.674598693847656, -215.26499938964844, 217.82269287109375], "min" : [20.434099197387695, -220.14109802246094, 210.75559997558594], "name" : "POSITION"}, {"bufferView" : 8, "byteOffset" : 12, "componentType" : 5126, "count" : 132, "type" : "VEC3", "max" : [0.5000017285346985, 1.5414536846947158E-07, 0.8660293817520142], "min" : [-0.5000017285346985, -1.5414536846947158E-07, -0.8660293817520142], "name" : "NORMAL"}, {"bufferView" : 8, "byteOffset" : 24, "componentType" : 5126, "count" : 132, "type" : "VEC2", "max" : [-7.811045169830322, -3.757707118988037], "min" : [-7.98797607421875, -4.446749210357666], "name" : "TEXCOORD_0"}, {"bufferView" : 0, "byteOffset" : 7352, "componentType" : 5123, "count" : 30, "type" : "SCALAR", "max" : [29], "min" : [0]}, {"bufferView" : 9, "byteOffset" : 0, "componentType" : 5126, "count" : 30, "type" : "VEC3", "max" : [128.33360290527344, -14.095459938049316, 230.70069885253906], "min" : [110.67230224609375, -64.42041778564453, 201.64559936523438], "name" : "POSITION"}, {"bufferView" : 9, "byteOffset" : 12, "componentType" : 5126, "count" : 30, "type" : "VEC3", "max" : [2.5302530903825726E-11, 0.5000014901161194, 0.8660296201705933], "min" : [-2.5302530903825726E-11, -0.5000014901161194, -0.8660296201705933], "name" : "NORMAL"}, {"bufferView" : 9, "byteOffset" : 24, "componentType" : 5126, "count" : 30, "type" : "VEC2", "max" : [4.656676769256592, -2.1953670978546143], "min" : [4.015824794769287, -5.028256893157959], "name" : "TEXCOORD_0"}, {"bufferView" : 0, "byteOffset" : 7412, "componentType" : 5123, "count" : 12, "type" : "SCALAR", "max" : [10], "min" : [0]}, {"bufferView" : 10, "byteOffset" : 0, "componentType" : 5126, "count" : 11, "type" : "VEC3", "max" : [131.11050415039062, 35.17985916137695, 248.8914031982422], "min" : [127.78350067138672, 18.18012046813965, 239.07659912109375], "name" : "POSITION"}, {"bufferView" : 10, "byteOffset" : 12, "componentType" : 5126, "count" : 11, "type" : "VEC3", "max" : [1.3377209335437294E-15, 0.5000005960464478, 0.8660300970077515], "min" : [-1.3377209335437294E-15, -0.5000005960464478, -0.8660300970077515], "name" : "NORMAL"}, {"bufferView" : 10, "byteOffset" : 24, "componentType" : 5126, "count" : 11, "type" : "VEC2", "max" : [-4.636713981628418, -4.342247009277344], "min" : [-4.757439136505127, -5.299194812774658], "name" : "TEXCOORD_0"}, {"bufferView" : 0, "byteOffset" : 7436, "componentType" : 5123, "count" : 30, "type" : "SCALAR", "max" : [25], "min" : [0]}, {"bufferView" : 11, "byteOffset" : 0, "componentType" : 5126, "count" : 26, "type" : "VEC3", "max" : [17.476579666137695, -148.5290985107422, 255.8489990234375], "min" : [-45.42961120605469, -167.76730346679688, 219.5301971435547], "name" : "POSITION"}, {"bufferView" : 11, "byteOffset" : 12, "componentType" : 5126, "count" : 26, "type" : "VEC3", "max" : [0.5000016689300537, 3.6988012652727775E-08, 0.8660295009613037], "min" : [-0.5000016689300537, -3.6988012652727775E-08, -0.8660295009613037], "name" : "NORMAL"}, {"bufferView" : 11, "byteOffset" : 24, "componentType" : 5126, "count" : 26, "type" : "VEC2", "max" : [-5.38948392868042, -4.613228797912598], "min" : [-6.087555885314941, -8.154340744018555], "name" : "TEXCOORD_0"}, {"bufferView" : 0, "byteOffset" : 7496, "componentType" : 5123, "count" : 30, "type" : "SCALAR", "max" : [26], "min" : [0]}, {"bufferView" : 12, "byteOffset" : 0, "componentType" : 5126, "count" : 27, "type" : "VEC3", "max" : [-174.64939880371094, 171.94839477539062, 240.5092010498047], "min" : [-231.76829528808594, 153.1833038330078, 207.53179931640625], "name" : "POSITION"}, {"bufferView" : 12, "byteOffset" : 12, "componentType" : 5126, "count" : 27, "type" : "VEC3", "max" : [0.5000001192092896, 1.796453957814137E-11, 0.8660303950309753], "min" : [-0.5000001192092896, -1.796453957814137E-11, -0.8660303950309753], "name" : "NORMAL"}, {"bufferView" : 12, "byteOffset" : 24, "componentType" : 5126, "count" : 27, "type" : "VEC2", "max" : [-5.5583648681640625, 4.726436138153076], "min" : [-6.23927116394043, 1.511106014251709], "name" : "TEXCOORD_0"}, {"bufferView" : 0, "byteOffset" : 7556, "componentType" : 5123, "count" : 30, "type" : "SCALAR", "max" : [25], "min" : [0]}, {"bufferView" : 13, "byteOffset" : 0, "componentType" : 5126, "count" : 26, "type" : "VEC3", "max" : [130.7187957763672, 108.12680053710938, 226.0157928466797], "min" : [112.11139678955078, 57.801849365234375, 196.96080017089844], "name" : "POSITION"}, {"bufferView" : 13, "byteOffset" : 12, "componentType" : 5126, "count" : 26, "type" : "VEC3", "max" : [7.947896491335496E-14, 0.5000005960464478, 0.8660300970077515], "min" : [-7.947896491335496E-14, -0.5000005960464478, -0.8660300970077515], "name" : "NORMAL"}, {"bufferView" : 13, "byteOffset" : 24, "componentType" : 5126, "count" : 26, "type" : "VEC2", "max" : [-4.06804084777832, -0.23592190444469452], "min" : [-4.74322509765625, -3.0688118934631348], "name" : "TEXCOORD_0"}, {"bufferView" : 0, "byteOffset" : 7616, "componentType" : 5123, "count" : 42, "type" : "SCALAR", "max" : [39], "min" : [0]}, {"bufferView" : 14, "byteOffset" : 0, "componentType" : 5126, "count" : 40, "type" : "VEC3", "max" : [257.2720031738281, 26.47303009033203, 223.79080200195312], "min" : [206.9470977783203, 8.811737060546875, 194.73570251464844], "name" : "POSITION"}, {"bufferView" : 14, "byteOffset" : 12, "componentType" : 5126, "count" : 40, "type" : "VEC3", "max" : [0.5000017881393433, 2.7225179576040315E-12, 0.8660294413566589], "min" : [-0.5000017881393433, -2.7225179576040315E-12, -0.8660294413566589], "name" : "NORMAL"}, {"bufferView" : 14, "byteOffset" : 24, "componentType" : 5126, "count" : 40, "type" : "VEC2", "max" : [0.9605928063392639, 6.115056991577148], "min" : [0.3197402060031891, 3.2821669578552246], "name" : "TEXCOORD_0"}, {"bufferView" : 0, "byteOffset" : 7700, "componentType" : 5123, "count" : 30, "type" : "SCALAR", "max" : [25], "min" : [0]}, {"bufferView" : 15, "byteOffset" : 0, "componentType" : 5126, "count" : 26, "type" : "VEC3", "max" : [17.476579666137695, 173.51809692382812, 255.8489990234375], "min" : [-45.42961120605469, 153.73910522460938, 219.5301971435547], "name" : "POSITION"}, {"bufferView" : 15, "byteOffset" : 12, "componentType" : 5126, "count" : 26, "type" : "VEC3", "max" : [0.5000017881393433, 1.3339518822874652E-08, 0.8660294413566589], "min" : [-0.5000017881393433, -1.3339518822874652E-08, -0.8660294413566589], "name" : "NORMAL"}, {"bufferView" : 15, "byteOffset" : 24, "componentType" : 5126, "count" : 26, "type" : "VEC2", "max" : [6.296229839324951, -4.613230228424072], "min" : [5.5785322189331055, -8.154341697692871], "name" : "TEXCOORD_0"}, {"bufferView" : 0, "byteOffset" : 7760, "componentType" : 5123, "count" : 12, "type" : "SCALAR", "max" : [10], "min" : [0]}, {"bufferView" : 16, "byteOffset" : 0, "componentType" : 5126, "count" : 11, "type" : "VEC3", "max" : [87.69378662109375, 250.66949462890625, 119.9583969116211], "min" : [81.00090789794922, 250.0791015625, 119.9583969116211], "name" : "POSITION"}, {"bufferView" : 16, "byteOffset" : 12, "componentType" : 5126, "count" : 11, "type" : "VEC3", "max" : [0, 0, 1.0000044107437134], "min" : [0, 0, -1.0000044107437134], "name" : "NORMAL"}, {"bufferView" : 16, "byteOffset" : 24, "componentType" : 5126, "count" : 11, "type" : "VEC2", "max" : [3.1820321083068848, -12.19141960144043], "min" : [2.939176082611084, -12.220210075378418], "name" : "TEXCOORD_0"}, {"bufferView" : 0, "byteOffset" : 7784, "componentType" : 5123, "count" : 12, "type" : "SCALAR", "max" : [10], "min" : [0]}, {"bufferView" : 17, "byteOffset" : 0, "componentType" : 5126, "count" : 11, "type" : "VEC3", "max" : [-305.4165954589844, -215.07809448242188, 119.9583969116211], "min" : [-306.0069885253906, -221.77049255371094, 119.9583969116211], "name" : "POSITION"}, {"bufferView" : 17, "byteOffset" : 12, "componentType" : 5126, "count" : 11, "type" : "VEC3", "max" : [0, 0, 1.0000044107437134], "min" : [0, 0, -1.0000044107437134], "name" : "NORMAL"}, {"bufferView" : 17, "byteOffset" : 24, "componentType" : 5126, "count" : 11, "type" : "VEC2", "max" : [-11.082260131835938, 10.811369895935059], "min" : [-11.103679656982422, 10.485119819641113], "name" : "TEXCOORD_0"}], "asset" : {"generator" : "Aspose.3D 22.3", "version" : "2.0"}, "buffers" : [{"uri" : "data:application/octet-stream;base64,", "byteLength" : 132680}], "bufferViews" : [{"buffer" : 0, "byteOffset" : 0, "byteLength" : 7808, "target" : 34963}, {"buffer" : 0, "byteOffset" : 7812, "byteLength" : 3648, "byteStride" : 32, "target" : 34962}, {"buffer" : 0, "byteOffset" : 11464, "byteLength" : 10560, "byteStride" : 32, "target" : 34962}, {"buffer" : 0, "byteOffset" : 22028, "byteLength" : 77568, "byteStride" : 32, "target" : 34962}, {"buffer" : 0, "byteOffset" : 99600, "byteLength" : 9504, "byteStride" : 32, "target" : 34962}, {"buffer" : 0, "byteOffset" : 109108, "byteLength" : 10368, "byteStride" : 32, "target" : 34962}, {"buffer" : 0, "byteOffset" : 119480, "byteLength" : 288, "byteStride" : 24, "target" : 34962}, {"buffer" : 0, "byteOffset" : 119772, "byteLength" : 960, "byteStride" : 32, "target" : 34962}, {"buffer" : 0, "byteOffset" : 120736, "byteLength" : 4608, "byteStride" : 32, "target" : 34962}, {"buffer" : 0, "byteOffset" : 125348, "byteLength" : 960, "byteStride" : 32, "target" : 34962}, {"buffer" : 0, "byteOffset" : 126312, "byteLength" : 384, "byteStride" : 32, "target" : 34962}, {"buffer" : 0, "byteOffset" : 126700, "byteLength" : 960, "byteStride" : 32, "target" : 34962}, {"buffer" : 0, "byteOffset" : 127664, "byteLength" : 960, "byteStride" : 32, "target" : 34962}, {"buffer" : 0, "byteOffset" : 128628, "byteLength" : 960, "byteStride" : 32, "target" : 34962}, {"buffer" : 0, "byteOffset" : 129592, "byteLength" : 1344, "byteStride" : 32, "target" : 34962}, {"buffer" : 0, "byteOffset" : 130940, "byteLength" : 960, "byteStride" : 32, "target" : 34962}, {"buffer" : 0, "byteOffset" : 131904, "byteLength" : 384, "byteStride" : 32, "target" : 34962}, {"buffer" : 0, "byteOffset" : 132292, "byteLength" : 384, "byteStride" : 32, "target" : 34962}], "cameras" : [{"orthographic" : {"xmag" : 1, "ymag" : 1, "zfar" : 1000, "znear" : 1}, "type" : "orthographic", "name" : "skp_camera_Last_Saved_SketchUp_View"}], "images" : [{"uri" : "casa/Roofing_Shingles_GAF_Estates.jpg"}], "materials" : [{"name" : "Roofing_Shingles_GAF_Estates", "pbrMetallicRoughness" : {"baseColorFactor" : [0.8, 0.8, 0.8, 1], "baseColorTexture" : {"index" : 0, "texCoord" : 0}, "metallicFactor" : 0, "roughnessFactor" : 0}, "emissiveFactor" : [0, 0, 0], "alphaMode" : "OPAQUE", "doubleSided" : false}, {"name" : "Roofing_Shingles_GAF_Estates", "pbrMetallicRoughness" : {"baseColorFactor" : [0.8, 0.8, 0.8, 1], "baseColorTexture" : {"index" : 0, "texCoord" : 0}, "metallicFactor" : 0, "roughnessFactor" : 0}, "emissiveFactor" : [0, 0, 0], "alphaMode" : "OPAQUE", "doubleSided" : false}, {"name" : "Roofing_Shingles_GAF_Estates", "pbrMetallicRoughness" : {"baseColorFactor" : [0.8, 0.8, 0.8, 1], "baseColorTexture" : {"index" : 0, "texCoord" : 0}, "metallicFactor" : 0, "roughnessFactor" : 0}, "emissiveFactor" : [0, 0, 0], "alphaMode" : "OPAQUE", "doubleSided" : false}, {"name" : "Roofing_Shingles_GAF_Estates", "pbrMetallicRoughness" : {"baseColorFactor" : [0.8, 0.8, 0.8, 1], "baseColorTexture" : {"index" : 0, "texCoord" : 0}, "metallicFactor" : 0, "roughnessFactor" : 0}, "emissiveFactor" : [0, 0, 0], "alphaMode" : "OPAQUE", "doubleSided" : false}, {"name" : "Roofing_Shingles_GAF_Estates", "pbrMetallicRoughness" : {"baseColorFactor" : [0.8, 0.8, 0.8, 1], "baseColorTexture" : {"index" : 0, "texCoord" : 0}, "metallicFactor" : 0, "roughnessFactor" : 0}, "emissiveFactor" : [0, 0, 0], "alphaMode" : "OPAQUE", "doubleSided" : false}, {"name" : "Roofing_Shingles_GAF_Estates", "pbrMetallicRoughness" : {"baseColorFactor" : [0.8, 0.8, 0.8, 1], "baseColorTexture" : {"index" : 0, "texCoord" : 0}, "metallicFactor" : 0, "roughnessFactor" : 0}, "emissiveFactor" : [0, 0, 0], "alphaMode" : "OPAQUE", "doubleSided" : false}, {"name" : "Roofing_Shingles_GAF_Estates", "pbrMetallicRoughness" : {"baseColorFactor" : [0.8, 0.8, 0.8, 1], "baseColorTexture" : {"index" : 0, "texCoord" : 0}, "metallicFactor" : 0, "roughnessFactor" : 0}, "emissiveFactor" : [0, 0, 0], "alphaMode" : "OPAQUE", "doubleSided" : false}, {"name" : "Roofing_Shingles_GAF_Estates", "pbrMetallicRoughness" : {"baseColorFactor" : [0.8, 0.8, 0.8, 1], "baseColorTexture" : {"index" : 0, "texCoord" : 0}, "metallicFactor" : 0, "roughnessFactor" : 0}, "emissiveFactor" : [0, 0, 0], "alphaMode" : "OPAQUE", "doubleSided" : false}, {"name" : "Roofing_Shingles_GAF_Estates", "pbrMetallicRoughness" : {"baseColorFactor" : [0.8, 0.8, 0.8, 1], "baseColorTexture" : {"index" : 0, "texCoord" : 0}, "metallicFactor" : 0, "roughnessFactor" : 0}, "emissiveFactor" : [0, 0, 0], "alphaMode" : "OPAQUE", "doubleSided" : false}, {"name" : "Roofing_Shingles_GAF_Estates", "pbrMetallicRoughness" : {"baseColorFactor" : [0.8, 0.8, 0.8, 1], "baseColorTexture" : {"index" : 0, "texCoord" : 0}, "metallicFactor" : 0, "roughnessFactor" : 0}, "emissiveFactor" : [0, 0, 0], "alphaMode" : "OPAQUE", "doubleSided" : false}, {"name" : "Roofing_Shingles_GAF_Estates", "pbrMetallicRoughness" : {"baseColorFactor" : [0.8, 0.8, 0.8, 1], "baseColorTexture" : {"index" : 0, "texCoord" : 0}, "metallicFactor" : 0, "roughnessFactor" : 0}, "emissiveFactor" : [0, 0, 0], "alphaMode" : "OPAQUE", "doubleSided" : false}, {"name" : "Roofing_Shingles_GAF_Estates", "pbrMetallicRoughness" : {"baseColorFactor" : [0.8, 0.8, 0.8, 1], "baseColorTexture" : {"index" : 0, "texCoord" : 0}, "metallicFactor" : 0, "roughnessFactor" : 0}, "emissiveFactor" : [0, 0, 0], "alphaMode" : "OPAQUE", "doubleSided" : false}, {"name" : "Roofing_Shingles_GAF_Estates", "pbrMetallicRoughness" : {"baseColorFactor" : [0.8, 0.8, 0.8, 1], "baseColorTexture" : {"index" : 0, "texCoord" : 0}, "metallicFactor" : 0, "roughnessFactor" : 0}, "emissiveFactor" : [0, 0, 0], "alphaMode" : "OPAQUE", "doubleSided" : false}, {"name" : "Roofing_Shingles_GAF_Estates", "pbrMetallicRoughness" : {"baseColorFactor" : [0.8, 0.8, 0.8, 1], "baseColorTexture" : {"index" : 0, "texCoord" : 0}, "metallicFactor" : 0, "roughnessFactor" : 0}, "emissiveFactor" : [0, 0, 0], "alphaMode" : "OPAQUE", "doubleSided" : false}, {"name" : "Roofing_Shingles_GAF_Estates", "pbrMetallicRoughness" : {"baseColorFactor" : [0.8, 0.8, 0.8, 1], "baseColorTexture" : {"index" : 0, "texCoord" : 0}, "metallicFactor" : 0, "roughnessFactor" : 0}, "emissiveFactor" : [0, 0, 0], "alphaMode" : "OPAQUE", "doubleSided" : false}, {"name" : "Roofing_Shingles_GAF_Estates", "pbrMetallicRoughness" : {"baseColorFactor" : [0.8, 0.8, 0.8, 1], "baseColorTexture" : {"index" : 0, "texCoord" : 0}, "metallicFactor" : 0, "roughnessFactor" : 0}, "emissiveFactor" : [0, 0, 0], "alphaMode" : "OPAQUE", "doubleSided" : false}, {"name" : "Roofing_Shingles_GAF_Estates", "pbrMetallicRoughness" : {"baseColorFactor" : [0.8, 0.8, 0.8, 1], "baseColorTexture" : {"index" : 0, "texCoord" : 0}, "metallicFactor" : 0, "roughnessFactor" : 0}, "emissiveFactor" : [0, 0, 0], "alphaMode" : "OPAQUE", "doubleSided" : false}], "meshes" : [{"primitives" : [{"attributes" : {"POSITION" : 1, "NORMAL" : 2, "TEXCOORD_0" : 3}, "indices" : 0, "material" : 0, "mode" : 4}, {"attributes" : {"POSITION" : 5, "NORMAL" : 6, "TEXCOORD_0" : 7}, "indices" : 4, "material" : 1, "mode" : 4}, {"attributes" : {"POSITION" : 9, "NORMAL" : 10, "TEXCOORD_0" : 11}, "indices" : 8, "material" : 2, "mode" : 4}, {"attributes" : {"POSITION" : 13, "NORMAL" : 14, "TEXCOORD_0" : 15}, "indices" : 12, "material" : 3, "mode" : 4}, {"attributes" : {"POSITION" : 17, "NORMAL" : 18, "TEXCOORD_0" : 19}, "indices" : 16, "material" : 4, "mode" : 4}, {"attributes" : {"POSITION" : 21, "NORMAL" : 22}, "indices" : 20, "material" : 5, "mode" : 4}, {"attributes" : {"POSITION" : 24, "NORMAL" : 25, "TEXCOORD_0" : 26}, "indices" : 23, "material" : 6, "mode" : 4}, {"attributes" : {"POSITION" : 28, "NORMAL" : 29, "TEXCOORD_0" : 30}, "indices" : 27, "material" : 7, "mode" : 4}, {"attributes" : {"POSITION" : 32, "NORMAL" : 33, "TEXCOORD_0" : 34}, "indices" : 31, "material" : 8, "mode" : 4}, {"attributes" : {"POSITION" : 36, "NORMAL" : 37, "TEXCOORD_0" : 38}, "indices" : 35, "material" : 9, "mode" : 4}, {"attributes" : {"POSITION" : 40, "NORMAL" : 41, "TEXCOORD_0" : 42}, "indices" : 39, "material" : 10, "mode" : 4}, {"attributes" : {"POSITION" : 44, "NORMAL" : 45, "TEXCOORD_0" : 46}, "indices" : 43, "material" : 11, "mode" : 4}, {"attributes" : {"POSITION" : 48, "NORMAL" : 49, "TEXCOORD_0" : 50}, "indices" : 47, "material" : 12, "mode" : 4}, {"attributes" : {"POSITION" : 52, "NORMAL" : 53, "TEXCOORD_0" : 54}, "indices" : 51, "material" : 13, "mode" : 4}, {"attributes" : {"POSITION" : 56, "NORMAL" : 57, "TEXCOORD_0" : 58}, "indices" : 55, "material" : 14, "mode" : 4}, {"attributes" : {"POSITION" : 60, "NORMAL" : 61, "TEXCOORD_0" : 62}, "indices" : 59, "material" : 15, "mode" : 4}, {"attributes" : {"POSITION" : 64, "NORMAL" : 65, "TEXCOORD_0" : 66}, "indices" : 63, "material" : 16, "mode" : 4}], "name" : ""}], "nodes" : [{"camera" : 0, "matrix" : [-0.9011564, -0.433494, 2.775558E-17, 0, 0.1776528, -0.3693084, 0.9121681, 0, -0.3954194, 0.8220062, 0.4098161, 0, -622.9962, 1257.31, 815.6338, 1], "name" : "skp_camera_Last_Saved_SketchUp_View"}, {"children" : [0], "mesh" : 0, "name" : "SketchUp"}], "samplers" : [{"magFilter" : 9729, "minFilter" : 9987, "wrapS" : 10497, "wrapT" : 10497}], "scene" : 0, "scenes" : [{"nodes" : [1]}], "textures" : [{"sampler" : 0, "source" : 0, "name" : ""}]}