{
  "asset": {
    "version": "2.0",
    "generator": "Sketchup glTF Exporter v1.2.6 by Centaur"
  },
  "scene": 0,
  "scenes": [
    {
      "nodes": [
        0
      ]
    }
  ],
  "samplers": [
    {
    }
  ],
  "nodes": [
    {
      "name": "root",
      "children": [
        1
      ]
    },
    {
      "children": [
        2
      ],
      "mesh": 1
    },
    {
      "mesh": 0
    }
  ],
  "materials": [
    {
      "pbrMetallicRoughness": {
        "baseColorTexture": {
          "index": 0
        },
        "roughnessFactor": 0.1
      },
      "name": "Metal_Aluminum_Anodized",
      "doubleSided": true
    },
    {
      "pbrMetallicRoughness": {
        "baseColorTexture": {
          "index": 1
        },
        "metallicFactor": 0.1,
        "roughnessFactor": 0.9
      },
      "name": "Material9",
      "doubleSided": true
    },
    {
      "pbrMetallicRoughness": {
        "baseColorTexture": {
          "index": 2
        },
        "metallicFactor": 0.1,
        "roughnessFactor": 0.9
      },
      "name": "Material18",
      "doubleSided": true
    },
    {
      "pbrMetallicRoughness": {
        "baseColorTexture": {
          "index": 3
        },
        "metallicFactor": 0.1,
        "roughnessFactor": 0.9
      },
      "name": "Alumínio",
      "doubleSided": true
    },
    {
      "pbrMetallicRoughness": {
        "baseColorFactor": [
          0.0,
          0.5295,
          1.0,
          0.25
        ],
        "metallicFactor": 0.1,
        "roughnessFactor": 0.9
      },
      "name": "0097_azul_do_céu_profundo",
      "doubleSided": true,
      "alphaMode": "BLEND"
    },
    {
      "pbrMetallicRoughness": {
        "baseColorFactor": [
          0.3736,
          0.3736,
          0.3736,
          1.0
        ],
        "metallicFactor": 0.1,
        "roughnessFactor": 0.9
      },
      "name": "Material1",
      "doubleSided": true
    },
    {
      "pbrMetallicRoughness": {
        "baseColorFactor": [
          0.6121,
          0.4259,
          0.0802,
          1.0
        ],
        "metallicFactor": 0.1,
        "roughnessFactor": 0.9
      },
      "name": "Color_D08",
      "doubleSided": true
    },
    {
      "pbrMetallicRoughness": {
        "baseColorTexture": {
          "index": 4
        },
        "metallicFactor": 0.1,
        "roughnessFactor": 0.9
      },
      "name": "Bloco de concreto",
      "doubleSided": true
    },
    {
      "pbrMetallicRoughness": {
        "baseColorFactor": [
          0.1275,
          0.3066,
          0.8513,
          0.5
        ],
        "metallicFactor": 0.1,
        "roughnessFactor": 0.9
      },
      "name": "Vidro translúcido azul",
      "doubleSided": true,
      "alphaMode": "BLEND"
    },
    {
      "pbrMetallicRoughness": {
        "baseColorFactor": [
          0.2011,
          0.1835,
          0.1835,
          1.0
        ],
        "metallicFactor": 0.1,
        "roughnessFactor": 0.9
      },
      "name": "Chris_Shoe_Sole",
      "doubleSided": true
    },
    {
      "pbrMetallicRoughness": {
        "baseColorTexture": {
          "index": 5
        },
        "metallicFactor": 0.1,
        "roughnessFactor": 0.9
      },
      "name": "Material26",
      "doubleSided": true
    },
    {
      "pbrMetallicRoughness": {
        "baseColorTexture": {
          "index": 6
        },
        "metallicFactor": 0.1,
        "roughnessFactor": 0.9
      },
      "name": "Madeira de bambu média",
      "doubleSided": true
    },
    {
      "pbrMetallicRoughness": {
        "baseColorFactor": [
          0.6121,
          0.2758,
          0.0802,
          1.0
        ],
        "metallicFactor": 0.1,
        "roughnessFactor": 0.9
      },
      "name": "Color_C08",
      "doubleSided": true
    }
  ],
  "images": [
    {
      "bufferView": 0,
      "mimeType": "image/jpeg"
    },
    {
      "bufferView": 1,
      "mimeType": "image/jpeg"
    },
    {
      "bufferView": 2,
      "mimeType": "image/jpeg"
    },
    {
      "bufferView": 3,
      "mimeType": "image/jpeg"
    },
    {
      "bufferView": 4,
      "mimeType": "image/jpeg"
    },
    {
      "bufferView": 5,
      "mimeType": "image/jpeg"
    },
    {
      "bufferView": 6,
      "mimeType": "image/jpeg"
    }
  ],
  "textures": [
    {
      "source": 0,
      "sampler": 0
    },
    {
      "source": 1,
      "sampler": 0
    },
    {
      "source": 2,
      "sampler": 0
    },
    {
      "source": 3,
      "sampler": 0
    },
    {
      "source": 4,
      "sampler": 0
    },
    {
      "source": 5,
      "sampler": 0
    },
    {
      "source": 6,
      "sampler": 0
    }
  ],
  "meshes": [
    {
      "primitives": [
        {
          "attributes": {
            "POSITION": 2,
            "NORMAL": 3,
            "TEXCOORD_0": 4
          },
          "indices": 5,
          "mode": 4,
          "material": 0
        },
        {
          "attributes": {
            "POSITION": 2,
            "NORMAL": 3,
            "TEXCOORD_0": 4
          },
          "indices": 6,
          "mode": 4,
          "material": 1
        },
        {
          "attributes": {
            "POSITION": 2,
            "NORMAL": 3,
            "TEXCOORD_0": 4
          },
          "indices": 7,
          "mode": 4,
          "material": 2
        },
        {
          "attributes": {
            "POSITION": 2,
            "NORMAL": 3,
            "TEXCOORD_0": 4
          },
          "indices": 8,
          "mode": 4,
          "material": 3
        },
        {
          "attributes": {
            "POSITION": 0,
            "NORMAL": 1
          },
          "indices": 9,
          "mode": 4,
          "material": 4
        },
        {
          "attributes": {
            "POSITION": 0,
            "NORMAL": 1
          },
          "indices": 10,
          "mode": 4,
          "material": 5
        },
        {
          "attributes": {
            "POSITION": 0,
            "NORMAL": 1
          },
          "indices": 11,
          "mode": 4,
          "material": 6
        },
        {
          "attributes": {
            "POSITION": 2,
            "NORMAL": 3,
            "TEXCOORD_0": 4
          },
          "indices": 12,
          "mode": 4,
          "material": 7
        },
        {
          "attributes": {
            "POSITION": 0,
            "NORMAL": 1
          },
          "indices": 13,
          "mode": 4,
          "material": 8
        },
        {
          "attributes": {
            "POSITION": 0,
            "NORMAL": 1
          },
          "indices": 14,
          "mode": 4,
          "material": 9
        },
        {
          "attributes": {
            "POSITION": 2,
            "NORMAL": 3,
            "TEXCOORD_0": 4
          },
          "indices": 15,
          "mode": 4,
          "material": 10
        },
        {
          "attributes": {
            "POSITION": 2,
            "NORMAL": 3,
            "TEXCOORD_0": 4
          },
          "indices": 16,
          "mode": 4,
          "material": 11
        },
        {
          "attributes": {
            "POSITION": 0,
            "NORMAL": 1
          },
          "indices": 17,
          "mode": 4,
          "material": 12
        }
      ]
    },
    {
      "primitives": [
        {
          "attributes": {
            "POSITION": 2,
            "NORMAL": 3,
            "TEXCOORD_0": 4
          },
          "indices": 18,
          "mode": 4,
          "material": 3
        },
        {
          "attributes": {
            "POSITION": 0,
            "NORMAL": 1
          },
          "indices": 19,
          "mode": 4,
          "material": 8
        },
        {
          "attributes": {
            "POSITION": 2,
            "NORMAL": 3,
            "TEXCOORD_0": 4
          },
          "indices": 20,
          "mode": 4,
          "material": 7
        },
        {
          "attributes": {
            "POSITION": 2,
            "NORMAL": 3,
            "TEXCOORD_0": 4
          },
          "indices": 21,
          "mode": 4,
          "material": 2
        }
      ]
    }
  ],
  "accessors": [
    {
      "bufferView": 7,
      "componentType": 5126,
      "count": 5268,
      "type": "VEC3",
      "min": [
        -6.5772867117064555,
        0.1692729520182569,
        -7.248142551664329
      ],
      "max": [
        7.222713288293552,
        2.710857148842646,
        7.171857448335657
      ]
    },
    {
      "bufferView": 8,
      "componentType": 5126,
      "count": 5268,
      "type": "VEC3",
      "min": [
        -1.0,
        -1.0,
        -1.0
      ],
      "max": [
        1.0,
        1.0,
        1.0
      ]
    },
    {
      "bufferView": 9,
      "componentType": 5126,
      "count": 35648,
      "type": "VEC3",
      "min": [
        -6.653486711706454,
        0.16927241236183926,
        -7.281242551664335
      ],
      "max": [
        7.822713288293548,
        5.194793858821343,
        7.220212688979046
      ]
    },
    {
      "bufferView": 10,
      "componentType": 5126,
      "count": 35648,
      "type": "VEC3",
      "min": [
        -1.0,
        -1.0,
        -1.0
      ],
      "max": [
        1.0,
        1.0,
        1.0
      ]
    },
    {
      "bufferView": 11,
      "componentType": 5126,
      "count": 35648,
      "type": "VEC2",
      "min": [
        -26.864809291465185,
        -40.867725091951314
      ],
      "max": [
        31.227535960670593,
        11.763707805089318
      ]
    },
    {
      "bufferView": 13,
      "componentType": 5123,
      "count": 27846,
      "type": "SCALAR"
    },
    {
      "bufferView": 13,
      "componentType": 5123,
      "count": 7296,
      "type": "SCALAR",
      "byteOffset": 55692
    },
    {
      "bufferView": 13,
      "componentType": 5123,
      "count": 5565,
      "type": "SCALAR",
      "byteOffset": 70284
    },
    {
      "bufferView": 13,
      "componentType": 5123,
      "count": 23874,
      "type": "SCALAR",
      "byteOffset": 81414
    },
    {
      "bufferView": 12,
      "componentType": 5123,
      "count": 72,
      "type": "SCALAR"
    },
    {
      "bufferView": 12,
      "componentType": 5123,
      "count": 12,
      "type": "SCALAR",
      "byteOffset": 144
    },
    {
      "bufferView": 12,
      "componentType": 5123,
      "count": 12225,
      "type": "SCALAR",
      "byteOffset": 168
    },
    {
      "bufferView": 13,
      "componentType": 5123,
      "count": 624,
      "type": "SCALAR",
      "byteOffset": 129162
    },
    {
      "bufferView": 12,
      "componentType": 5123,
      "count": 342,
      "type": "SCALAR",
      "byteOffset": 24618
    },
    {
      "bufferView": 12,
      "componentType": 5123,
      "count": 282,
      "type": "SCALAR",
      "byteOffset": 25302
    },
    {
      "bufferView": 13,
      "componentType": 5123,
      "count": 948,
      "type": "SCALAR",
      "byteOffset": 130410
    },
    {
      "bufferView": 13,
      "componentType": 5123,
      "count": 30,
      "type": "SCALAR",
      "byteOffset": 132306
    },
    {
      "bufferView": 12,
      "componentType": 5123,
      "count": 1956,
      "type": "SCALAR",
      "byteOffset": 25866
    },
    {
      "bufferView": 13,
      "componentType": 5123,
      "count": 3201,
      "type": "SCALAR",
      "byteOffset": 132366
    },
    {
      "bufferView": 12,
      "componentType": 5123,
      "count": 108,
      "type": "SCALAR",
      "byteOffset": 29778
    },
    {
      "bufferView": 13,
      "componentType": 5123,
      "count": 21,
      "type": "SCALAR",
      "byteOffset": 138768
    },
    {
      "bufferView": 13,
      "componentType": 5123,
      "count": 249,
      "type": "SCALAR",
      "byteOffset": 138810
    }
  ],
  "bufferViews": [
    {
      "buffer": 0,
      "byteLength": 2508
    },
    {
      "buffer": 0,
      "byteOffset": 2508,
      "byteLength": 4597
    },
    {
      "buffer": 0,
      "byteOffset": 7105,
      "byteLength": 4597
    },
    {
      "buffer": 0,
      "byteOffset": 11702,
      "byteLength": 12471
    },
    {
      "buffer": 0,
      "byteOffset": 24173,
      "byteLength": 44006
    },
    {
      "buffer": 0,
      "byteOffset": 68179,
      "byteLength": 77790
    },
    {
      "buffer": 0,
      "byteOffset": 145969,
      "byteLength": 7666
    },
    {
      "buffer": 0,
      "byteOffset": 153636,
      "byteLength": 63216,
      "target": 34962,
      "byteStride": 12
    },
    {
      "buffer": 0,
      "byteOffset": 216852,
      "byteLength": 63216,
      "target": 34962,
      "byteStride": 12
    },
    {
      "buffer": 0,
      "byteOffset": 280068,
      "byteLength": 427776,
      "target": 34962,
      "byteStride": 12
    },
    {
      "buffer": 0,
      "byteOffset": 707844,
      "byteLength": 427776,
      "target": 34962,
      "byteStride": 12
    },
    {
      "buffer": 0,
      "byteOffset": 1135624,
      "byteLength": 285184,
      "target": 34962,
      "byteStride": 8
    },
    {
      "buffer": 0,
      "byteOffset": 1420808,
      "byteLength": 29994,
      "target": 34963
    },
    {
      "buffer": 0,
      "byteOffset": 1450802,
      "byteLength": 139308,
      "target": 34963
    }
  ],
  "buffers": [
    {
      "uri": "data:application/octet-stream;base64,",
      "byteLength": 1590110
    }
  ]
}