{
  "asset": {
    "version": "2.0",
    "generator": "Sketchup glTF Exporter v1.2.6 by Centaur"
  },
  "scene": 0,
  "scenes": [
    {
      "nodes": [
        0
      ]
    }
  ],
  "samplers": [
    {
    }
  ],
  "nodes": [
    {
      "name": "root",
      "children": [
        1
      ],
      "mesh": 0
    },
    {
    }
  ],
  "materials": [
    {
      "pbrMetallicRoughness": {
        "baseColorTexture": {
          "index": 0
        },
        "metallicFactor": 0.1,
        "roughnessFactor": 0.9
      },
      "name": "Folheado de madeira 01",
      "doubleSided": true
    },
    {
      "pbrMetallicRoughness": {
        "baseColorFactor": [
          0.5114,
          0.3838,
          0.3489,
          1.0
        ],
        "metallicFactor": 0.1,
        "roughnessFactor": 0.9
      },
      "name": "<auto>6"
    },
    {
      "pbrMetallicRoughness": {
        "baseColorFactor": [
          0.0,
          0.0,
          1.0,
          0.251
        ],
        "metallicFactor": 0.1,
        "roughnessFactor": 0.9
      },
      "name": "<auto>3",
      "alphaMode": "BLEND"
    },
    {
      "pbrMetallicRoughness": {
        "baseColorTexture": {
          "index": 1
        },
        "metallicFactor": 0.1,
        "roughnessFactor": 0.9
      },
      "name": "Vidro de segurança translúcido",
      "doubleSided": true,
      "alphaMode": "BLEND"
    },
    {
      "pbrMetallicRoughness": {
        "baseColorFactor": [
          1.0,
          0.6941,
          0.6121,
          1.0
        ],
        "metallicFactor": 0.1,
        "roughnessFactor": 0.9
      },
      "name": "Cor B01",
      "doubleSided": true
    },
    {
      "pbrMetallicRoughness": {
        "baseColorTexture": {
          "index": 2
        },
        "metallicFactor": 0.1,
        "roughnessFactor": 0.9
      },
      "name": "Telhado ondulado",
      "doubleSided": true
    },
    {
      "pbrMetallicRoughness": {
        "baseColorTexture": {
          "index": 3
        },
        "metallicFactor": 0.1,
        "roughnessFactor": 0.9
      },
      "name": "Madeira de bambu média",
      "doubleSided": true
    },
    {
      "pbrMetallicRoughness": {
        "baseColorFactor": [
          0.2011,
          0.1835,
          0.1835,
          1.0
        ],
        "metallicFactor": 0.1,
        "roughnessFactor": 0.9
      },
      "name": "Chris_Shoe_Sole",
      "doubleSided": true
    },
    {
      "pbrMetallicRoughness": {
        "baseColorTexture": {
          "index": 4
        },
        "metallicFactor": 0.1,
        "roughnessFactor": 0.9
      },
      "name": "Bloco de concreto",
      "doubleSided": true
    },
    {
      "pbrMetallicRoughness": {
        "baseColorTexture": {
          "index": 5
        },
        "metallicFactor": 0.1,
        "roughnessFactor": 0.9
      },
      "name": "Azulejo básico",
      "doubleSided": true
    },
    {
      "pbrMetallicRoughness": {
        "baseColorFactor": [
          0.0478,
          0.0478,
          0.0478,
          1.0
        ],
        "metallicFactor": 0.1,
        "roughnessFactor": 0.9
      },
      "name": "<auto>1"
    }
  ],
  "images": [
    {
      "bufferView": 0,
      "mimeType": "image/jpeg"
    },
    {
      "bufferView": 1,
      "mimeType": "image/jpeg"
    },
    {
      "bufferView": 2,
      "mimeType": "image/jpeg"
    },
    {
      "bufferView": 3,
      "mimeType": "image/jpeg"
    },
    {
      "bufferView": 4,
      "mimeType": "image/jpeg"
    },
    {
      "bufferView": 5,
      "mimeType": "image/jpeg"
    }
  ],
  "textures": [
    {
      "source": 0,
      "sampler": 0
    },
    {
      "source": 1,
      "sampler": 0
    },
    {
      "source": 2,
      "sampler": 0
    },
    {
      "source": 3,
      "sampler": 0
    },
    {
      "source": 4,
      "sampler": 0
    },
    {
      "source": 5,
      "sampler": 0
    }
  ],
  "meshes": [
    {
      "primitives": [
        {
          "attributes": {
            "POSITION": 2,
            "NORMAL": 3,
            "TEXCOORD_0": 4
          },
          "indices": 5,
          "mode": 4,
          "material": 0
        },
        {
          "attributes": {
            "POSITION": 0,
            "NORMAL": 1
          },
          "indices": 6,
          "mode": 4,
          "material": 1
        },
        {
          "attributes": {
            "POSITION": 0,
            "NORMAL": 1
          },
          "indices": 7,
          "mode": 4,
          "material": 2
        },
        {
          "attributes": {
            "POSITION": 2,
            "NORMAL": 3,
            "TEXCOORD_0": 4
          },
          "indices": 8,
          "mode": 4,
          "material": 3
        },
        {
          "attributes": {
            "POSITION": 0,
            "NORMAL": 1
          },
          "indices": 9,
          "mode": 4,
          "material": 4
        },
        {
          "attributes": {
            "POSITION": 2,
            "NORMAL": 3,
            "TEXCOORD_0": 4
          },
          "indices": 10,
          "mode": 4,
          "material": 5
        },
        {
          "attributes": {
            "POSITION": 2,
            "NORMAL": 3,
            "TEXCOORD_0": 4
          },
          "indices": 11,
          "mode": 4,
          "material": 6
        },
        {
          "attributes": {
            "POSITION": 0,
            "NORMAL": 1
          },
          "indices": 12,
          "mode": 4,
          "material": 7
        },
        {
          "attributes": {
            "POSITION": 2,
            "NORMAL": 3,
            "TEXCOORD_0": 4
          },
          "indices": 13,
          "mode": 4,
          "material": 8
        },
        {
          "attributes": {
            "POSITION": 2,
            "NORMAL": 3,
            "TEXCOORD_0": 4
          },
          "indices": 14,
          "mode": 4,
          "material": 9
        },
        {
          "attributes": {
            "POSITION": 0,
            "NORMAL": 1
          },
          "indices": 15,
          "mode": 4,
          "material": 10
        }
      ]
    }
  ],
  "accessors": [
    {
      "bufferView": 6,
      "componentType": 5126,
      "count": 856,
      "type": "VEC3",
      "min": [
        -8.480149763404091,
        -3.193121705654413e-16,
        -5.244782628292565
      ],
      "max": [
        7.699852826995919,
        5.053736400000003,
        4.785239882107441
      ]
    },
    {
      "bufferView": 7,
      "componentType": 5126,
      "count": 856,
      "type": "VEC3",
      "min": [
        -1.0,
        -1.0,
        -1.0
      ],
      "max": [
        1.0,
        1.0,
        1.0
      ]
    },
    {
      "bufferView": 8,
      "componentType": 5126,
      "count": 3947,
      "type": "VEC3",
      "min": [
        -9.05015990100409,
        -3.193121705654413e-16,
        -5.814762285892567
      ],
      "max": [
        8.299848578995922,
        5.515630320000003,
        5.385238682107442
      ]
    },
    {
      "bufferView": 9,
      "componentType": 5126,
      "count": 3947,
      "type": "VEC3",
      "min": [
        -1.0,
        -1.0,
        -1.0
      ],
      "max": [
        1.0,
        1.0,
        1.0
      ]
    },
    {
      "bufferView": 10,
      "componentType": 5126,
      "count": 3947,
      "type": "VEC2",
      "min": [
        -27.231425659462246,
        -15.616704087574028
      ],
      "max": [
        44.45637131892448,
        16.207475912425984
      ]
    },
    {
      "bufferView": 12,
      "componentType": 5123,
      "count": 7014,
      "type": "SCALAR"
    },
    {
      "bufferView": 11,
      "componentType": 5123,
      "count": 459,
      "type": "SCALAR"
    },
    {
      "bufferView": 11,
      "componentType": 5123,
      "count": 468,
      "type": "SCALAR",
      "byteOffset": 918
    },
    {
      "bufferView": 12,
      "componentType": 5123,
      "count": 156,
      "type": "SCALAR",
      "byteOffset": 14028
    },
    {
      "bufferView": 11,
      "componentType": 5123,
      "count": 324,
      "type": "SCALAR",
      "byteOffset": 1854
    },
    {
      "bufferView": 12,
      "componentType": 5123,
      "count": 72,
      "type": "SCALAR",
      "byteOffset": 14340
    },
    {
      "bufferView": 12,
      "componentType": 5123,
      "count": 930,
      "type": "SCALAR",
      "byteOffset": 14484
    },
    {
      "bufferView": 11,
      "componentType": 5123,
      "count": 288,
      "type": "SCALAR",
      "byteOffset": 2502
    },
    {
      "bufferView": 12,
      "componentType": 5123,
      "count": 294,
      "type": "SCALAR",
      "byteOffset": 16344
    },
    {
      "bufferView": 12,
      "componentType": 5123,
      "count": 45,
      "type": "SCALAR",
      "byteOffset": 16932
    },
    {
      "bufferView": 11,
      "componentType": 5123,
      "count": 102,
      "type": "SCALAR",
      "byteOffset": 3078
    }
  ],
  "bufferViews": [
    {
      "buffer": 0,
      "byteLength": 38298
    },
    {
      "buffer": 0,
      "byteOffset": 38298,
      "byteLength": 5526
    },
    {
      "buffer": 0,
      "byteOffset": 43824,
      "byteLength": 12631
    },
    {
      "buffer": 0,
      "byteOffset": 56455,
      "byteLength": 7471
    },
    {
      "buffer": 0,
      "byteOffset": 63926,
      "byteLength": 45514
    },
    {
      "buffer": 0,
      "byteOffset": 109440,
      "byteLength": 46330
    },
    {
      "buffer": 0,
      "byteOffset": 155772,
      "byteLength": 10272,
      "target": 34962,
      "byteStride": 12
    },
    {
      "buffer": 0,
      "byteOffset": 166044,
      "byteLength": 10272,
      "target": 34962,
      "byteStride": 12
    },
    {
      "buffer": 0,
      "byteOffset": 176316,
      "byteLength": 47364,
      "target": 34962,
      "byteStride": 12
    },
    {
      "buffer": 0,
      "byteOffset": 223680,
      "byteLength": 47364,
      "target": 34962,
      "byteStride": 12
    },
    {
      "buffer": 0,
      "byteOffset": 271048,
      "byteLength": 31576,
      "target": 34962,
      "byteStride": 8
    },
    {
      "buffer": 0,
      "byteOffset": 302624,
      "byteLength": 3282,
      "target": 34963
    },
    {
      "buffer": 0,
      "byteOffset": 305906,
      "byteLength": 17022,
      "target": 34963
    }
  ],
  "buffers": [
    {
      "uri": "data:application/octet-stream;base64,",
      "byteLength": 322928
    }
  ]
}