{
  "asset": {
    "version": "2.0",
    "generator": "Sketchup glTF Exporter v1.2.6 by Centaur"
  },
  "scene": 0,
  "scenes": [
    {
      "nodes": [
        0
      ]
    }
  ],
  "samplers": [
    {
    }
  ],
  "nodes": [
    {
      "name": "root",
      "mesh": 0
    }
  ],
  "materials": [
    {
      "pbrMetallicRoughness": {
        "baseColorFactor": [
          0.0,
          0.0,
          1.0,
          0.251
        ],
        "metallicFactor": 0.1,
        "roughnessFactor": 0.9
      },
      "name": "<auto>5",
      "alphaMode": "BLEND"
    },
    {
      "pbrMetallicRoughness": {
        "baseColorTexture": {
          "index": 0
        },
        "metallicFactor": 0.1,
        "roughnessFactor": 0.9
      },
      "name": "Madeira de bambu média",
      "doubleSided": true
    },
    {
      "pbrMetallicRoughness": {
        "baseColorFactor": [
          0.2195,
          0.2195,
          0.2195,
          0.5
        ],
        "metallicFactor": 0.1,
        "roughnessFactor": 0.9
      },
      "name": "Vidro translúcido cinza",
      "doubleSided": true,
      "alphaMode": "BLEND"
    },
    {
      "pbrMetallicRoughness": {
        "baseColorFactor": [
          0.2011,
          0.1835,
          0.1835,
          1.0
        ],
        "metallicFactor": 0.1,
        "roughnessFactor": 0.9
      },
      "name": "Chris_Shoe_Sole",
      "doubleSided": true
    },
    {
      "pbrMetallicRoughness": {
        "baseColorTexture": {
          "index": 1
        },
        "metallicFactor": 0.1,
        "roughnessFactor": 0.9
      },
      "name": "Azulejo básico",
      "doubleSided": true
    },
    {
      "pbrMetallicRoughness": {
        "baseColorTexture": {
          "index": 2
        },
        "metallicFactor": 0.1,
        "roughnessFactor": 0.9
      },
      "name": "Bloco de concreto",
      "doubleSided": true
    }
  ],
  "images": [
    {
      "bufferView": 0,
      "mimeType": "image/jpeg"
    },
    {
      "bufferView": 1,
      "mimeType": "image/jpeg"
    },
    {
      "bufferView": 2,
      "mimeType": "image/jpeg"
    }
  ],
  "textures": [
    {
      "source": 0,
      "sampler": 0
    },
    {
      "source": 1,
      "sampler": 0
    },
    {
      "source": 2,
      "sampler": 0
    }
  ],
  "meshes": [
    {
      "primitives": [
        {
          "attributes": {
            "POSITION": 0,
            "NORMAL": 1
          },
          "indices": 5,
          "mode": 4,
          "material": 0
        },
        {
          "attributes": {
            "POSITION": 2,
            "NORMAL": 3,
            "TEXCOORD_0": 4
          },
          "indices": 6,
          "mode": 4,
          "material": 1
        },
        {
          "attributes": {
            "POSITION": 0,
            "NORMAL": 1
          },
          "indices": 7,
          "mode": 4,
          "material": 2
        },
        {
          "attributes": {
            "POSITION": 0,
            "NORMAL": 1
          },
          "indices": 8,
          "mode": 4,
          "material": 3
        },
        {
          "attributes": {
            "POSITION": 2,
            "NORMAL": 3,
            "TEXCOORD_0": 4
          },
          "indices": 9,
          "mode": 4,
          "material": 4
        },
        {
          "attributes": {
            "POSITION": 2,
            "NORMAL": 3,
            "TEXCOORD_0": 4
          },
          "indices": 10,
          "mode": 4,
          "material": 5
        }
      ]
    }
  ],
  "accessors": [
    {
      "bufferView": 3,
      "componentType": 5126,
      "count": 410,
      "type": "VEC3",
      "min": [
        -6.023419457617794,
        -3.4581102580368306e-16,
        -5.64752263337397
      ],
      "max": [
        5.976571782382213,
        2.2000006800000023,
        5.45246735862604
      ]
    },
    {
      "bufferView": 4,
      "componentType": 5126,
      "count": 410,
      "type": "VEC3",
      "min": [
        -1.0,
        -1.0,
        -1.0
      ],
      "max": [
        1.0,
        1.0,
        1.0
      ]
    },
    {
      "bufferView": 5,
      "componentType": 5126,
      "count": 3640,
      "type": "VEC3",
      "min": [
        -6.023419457617794,
        -3.4581102580368306e-16,
        -5.6775140389739684
      ],
      "max": [
        6.006572331982213,
        3.0618684000000025,
        5.45246735862604
      ]
    },
    {
      "bufferView": 6,
      "componentType": 5126,
      "count": 3640,
      "type": "VEC3",
      "min": [
        -1.0,
        -1.0,
        -1.0
      ],
      "max": [
        1.0,
        1.0,
        1.0
      ]
    },
    {
      "bufferView": 7,
      "componentType": 5126,
      "count": 3640,
      "type": "VEC2",
      "min": [
        -29.084179208573875,
        -16.970917563562885
      ],
      "max": [
        28.986574908573875,
        18.330932436437138
      ]
    },
    {
      "bufferView": 8,
      "componentType": 5123,
      "count": 408,
      "type": "SCALAR"
    },
    {
      "bufferView": 9,
      "componentType": 5123,
      "count": 7179,
      "type": "SCALAR"
    },
    {
      "bufferView": 8,
      "componentType": 5123,
      "count": 132,
      "type": "SCALAR",
      "byteOffset": 816
    },
    {
      "bufferView": 8,
      "componentType": 5123,
      "count": 177,
      "type": "SCALAR",
      "byteOffset": 1080
    },
    {
      "bufferView": 9,
      "componentType": 5123,
      "count": 39,
      "type": "SCALAR",
      "byteOffset": 14358
    },
    {
      "bufferView": 9,
      "componentType": 5123,
      "count": 480,
      "type": "SCALAR",
      "byteOffset": 14436
    }
  ],
  "bufferViews": [
    {
      "buffer": 0,
      "byteLength": 7599
    },
    {
      "buffer": 0,
      "byteOffset": 7599,
      "byteLength": 40734
    },
    {
      "buffer": 0,
      "byteOffset": 48333,
      "byteLength": 44189
    },
    {
      "buffer": 0,
      "byteOffset": 92532,
      "byteLength": 4920,
      "target": 34962,
      "byteStride": 12
    },
    {
      "buffer": 0,
      "byteOffset": 97452,
      "byteLength": 4920,
      "target": 34962,
      "byteStride": 12
    },
    {
      "buffer": 0,
      "byteOffset": 102372,
      "byteLength": 43680,
      "target": 34962,
      "byteStride": 12
    },
    {
      "buffer": 0,
      "byteOffset": 146052,
      "byteLength": 43680,
      "target": 34962,
      "byteStride": 12
    },
    {
      "buffer": 0,
      "byteOffset": 189736,
      "byteLength": 29120,
      "target": 34962,
      "byteStride": 8
    },
    {
      "buffer": 0,
      "byteOffset": 218856,
      "byteLength": 1434,
      "target": 34963
    },
    {
      "buffer": 0,
      "byteOffset": 220290,
      "byteLength": 15396,
      "target": 34963
    }
  ],
  "buffers": [
    {
      "uri": "data:application/octet-stream;base64,",
      "byteLength": 235686
    }
  ]
}