{
  "asset": {
    "version": "2.0",
    "generator": "Sketchup glTF Exporter v1.2.6 by Centaur"
  },
  "scene": 0,
  "scenes": [
    {
      "nodes": [
        0
      ]
    }
  ],
  "samplers": [
    {
    }
  ],
  "nodes": [
    {
      "name": "root",
      "mesh": 0
    }
  ],
  "materials": [
    {
      "pbrMetallicRoughness": {
        "baseColorTexture": {
          "index": 0
        },
        "metallicFactor": 0.1,
        "roughnessFactor": 0.9
      },
      "name": "Folheado de madeira 01",
      "doubleSided": true
    },
    {
      "pbrMetallicRoughness": {
        "baseColorFactor": [
          0.7969,
          0.7969,
          0.7969,
          1.0
        ],
        "metallicFactor": 0.1,
        "roughnessFactor": 0.9
      },
      "name": "Chris_Skin",
      "doubleSided": true
    },
    {
      "pbrMetallicRoughness": {
        "baseColorTexture": {
          "index": 1
        },
        "metallicFactor": 0.1,
        "roughnessFactor": 0.9
      },
      "name": "Bloco de concreto",
      "doubleSided": true
    },
    {
      "pbrMetallicRoughness": {
        "baseColorFactor": [
          0.0478,
          0.0478,
          0.0478,
          1.0
        ],
        "metallicFactor": 0.1,
        "roughnessFactor": 0.9
      },
      "name": "<auto>1"
    },
    {
      "pbrMetallicRoughness": {
        "baseColorFactor": [
          0.1275,
          0.3066,
          0.8513,
          0.35
        ],
        "metallicFactor": 0.1,
        "roughnessFactor": 0.9
      },
      "name": "Vidro translúcido azul",
      "doubleSided": true,
      "alphaMode": "BLEND"
    },
    {
      "pbrMetallicRoughness": {
        "baseColorFactor": [
          0.0,
          0.0,
          1.0,
          0.251
        ],
        "metallicFactor": 0.1,
        "roughnessFactor": 0.9
      },
      "name": "<auto>3",
      "alphaMode": "BLEND"
    },
    {
      "pbrMetallicRoughness": {
        "baseColorFactor": [
          0.5114,
          0.3838,
          0.3489,
          1.0
        ],
        "metallicFactor": 0.1,
        "roughnessFactor": 0.9
      },
      "name": "<auto>6"
    },
    {
      "pbrMetallicRoughness": {
        "baseColorTexture": {
          "index": 2
        },
        "metallicFactor": 0.1,
        "roughnessFactor": 0.9
      },
      "name": "Azulejo de calcário colorido",
      "doubleSided": true
    },
    {
      "pbrMetallicRoughness": {
        "baseColorTexture": {
          "index": 3
        },
        "metallicFactor": 0.1,
        "roughnessFactor": 0.9
      },
      "name": "Madeira de bambu média"
    }
  ],
  "images": [
    {
      "bufferView": 0,
      "mimeType": "image/jpeg"
    },
    {
      "bufferView": 1,
      "mimeType": "image/jpeg"
    },
    {
      "bufferView": 2,
      "mimeType": "image/jpeg"
    },
    {
      "bufferView": 3,
      "mimeType": "image/jpeg"
    }
  ],
  "textures": [
    {
      "source": 0,
      "sampler": 0
    },
    {
      "source": 1,
      "sampler": 0
    },
    {
      "source": 2,
      "sampler": 0
    },
    {
      "source": 3,
      "sampler": 0
    }
  ],
  "meshes": [
    {
      "primitives": [
        {
          "attributes": {
            "POSITION": 2,
            "NORMAL": 3,
            "TEXCOORD_0": 4
          },
          "indices": 5,
          "mode": 4,
          "material": 0
        },
        {
          "attributes": {
            "POSITION": 0,
            "NORMAL": 1
          },
          "indices": 6,
          "mode": 4,
          "material": 1
        },
        {
          "attributes": {
            "POSITION": 2,
            "NORMAL": 3,
            "TEXCOORD_0": 4
          },
          "indices": 7,
          "mode": 4,
          "material": 2
        },
        {
          "attributes": {
            "POSITION": 0,
            "NORMAL": 1
          },
          "indices": 8,
          "mode": 4,
          "material": 3
        },
        {
          "attributes": {
            "POSITION": 0,
            "NORMAL": 1
          },
          "indices": 9,
          "mode": 4,
          "material": 4
        },
        {
          "attributes": {
            "POSITION": 0,
            "NORMAL": 1
          },
          "indices": 10,
          "mode": 4,
          "material": 5
        },
        {
          "attributes": {
            "POSITION": 0,
            "NORMAL": 1
          },
          "indices": 11,
          "mode": 4,
          "material": 6
        },
        {
          "attributes": {
            "POSITION": 2,
            "NORMAL": 3,
            "TEXCOORD_0": 4
          },
          "indices": 12,
          "mode": 4,
          "material": 7
        },
        {
          "attributes": {
            "POSITION": 2,
            "NORMAL": 3,
            "TEXCOORD_0": 4
          },
          "indices": 13,
          "mode": 4,
          "material": 8
        }
      ]
    }
  ],
  "accessors": [
    {
      "bufferView": 4,
      "componentType": 5126,
      "count": 743,
      "type": "VEC3",
      "min": [
        -8.480149763404091,
        -3.101278045319686e-16,
        -5.244782628292565
      ],
      "max": [
        7.674853740595919,
        3.0618684000000016,
        4.760238662107441
      ]
    },
    {
      "bufferView": 5,
      "componentType": 5126,
      "count": 743,
      "type": "VEC3",
      "min": [
        -1.0,
        -1.0,
        -1.0
      ],
      "max": [
        1.0,
        1.0,
        1.0
      ]
    },
    {
      "bufferView": 6,
      "componentType": 5126,
      "count": 3887,
      "type": "VEC3",
      "min": [
        -8.480149763404091,
        -3.193121705654413e-16,
        -5.244782628292565
      ],
      "max": [
        7.699852826995918,
        3.061868400000002,
        4.785239882107441
      ]
    },
    {
      "bufferView": 7,
      "componentType": 5126,
      "count": 3887,
      "type": "VEC3",
      "min": [
        -1.0,
        -1.0,
        -1.0
      ],
      "max": [
        1.0,
        1.0,
        1.0
      ]
    },
    {
      "bufferView": 8,
      "componentType": 5126,
      "count": 3887,
      "type": "VEC2",
      "min": [
        -13.714144163064455,
        -8.025552187121749
      ],
      "max": [
        13.70896806306445,
        9.28214594980134
      ]
    },
    {
      "bufferView": 10,
      "componentType": 5123,
      "count": 7014,
      "type": "SCALAR"
    },
    {
      "bufferView": 9,
      "componentType": 5123,
      "count": 72,
      "type": "SCALAR"
    },
    {
      "bufferView": 10,
      "componentType": 5123,
      "count": 672,
      "type": "SCALAR",
      "byteOffset": 14028
    },
    {
      "bufferView": 9,
      "componentType": 5123,
      "count": 102,
      "type": "SCALAR",
      "byteOffset": 144
    },
    {
      "bufferView": 9,
      "componentType": 5123,
      "count": 108,
      "type": "SCALAR",
      "byteOffset": 348
    },
    {
      "bufferView": 9,
      "componentType": 5123,
      "count": 468,
      "type": "SCALAR",
      "byteOffset": 564
    },
    {
      "bufferView": 9,
      "componentType": 5123,
      "count": 459,
      "type": "SCALAR",
      "byteOffset": 1500
    },
    {
      "bufferView": 10,
      "componentType": 5123,
      "count": 45,
      "type": "SCALAR",
      "byteOffset": 15372
    },
    {
      "bufferView": 10,
      "componentType": 5123,
      "count": 780,
      "type": "SCALAR",
      "byteOffset": 15462
    }
  ],
  "bufferViews": [
    {
      "buffer": 0,
      "byteLength": 43019
    },
    {
      "buffer": 0,
      "byteOffset": 43019,
      "byteLength": 43581
    },
    {
      "buffer": 0,
      "byteOffset": 86600,
      "byteLength": 20176
    },
    {
      "buffer": 0,
      "byteOffset": 106776,
      "byteLength": 7471
    },
    {
      "buffer": 0,
      "byteOffset": 114252,
      "byteLength": 8916,
      "target": 34962,
      "byteStride": 12
    },
    {
      "buffer": 0,
      "byteOffset": 123168,
      "byteLength": 8916,
      "target": 34962,
      "byteStride": 12
    },
    {
      "buffer": 0,
      "byteOffset": 132084,
      "byteLength": 46644,
      "target": 34962,
      "byteStride": 12
    },
    {
      "buffer": 0,
      "byteOffset": 178728,
      "byteLength": 46644,
      "target": 34962,
      "byteStride": 12
    },
    {
      "buffer": 0,
      "byteOffset": 225376,
      "byteLength": 31096,
      "target": 34962,
      "byteStride": 8
    },
    {
      "buffer": 0,
      "byteOffset": 256472,
      "byteLength": 2418,
      "target": 34963
    },
    {
      "buffer": 0,
      "byteOffset": 258890,
      "byteLength": 17022,
      "target": 34963
    }
  ],
  "buffers": [
    {
      "uri": "data:application/octet-stream;base64,",
      "byteLength": 275912
    }
  ]
}