{
  "asset": {
    "version": "2.0",
    "generator": "Sketchup glTF Exporter v1.2.6 by Centaur"
  },
  "scene": 0,
  "scenes": [
    {
      "nodes": [
        0
      ]
    }
  ],
  "samplers": [
    {
    }
  ],
  "nodes": [
    {
      "name": "root",
      "mesh": 0
    }
  ],
  "materials": [
    {
      "pbrMetallicRoughness": {
        "baseColorTexture": {
          "index": 0
        },
        "metallicFactor": 0.1,
        "roughnessFactor": 0.9
      },
      "name": "Wood Veneer 02",
      "doubleSided": true
    },
    {
      "pbrMetallicRoughness": {
        "baseColorFactor": [
          0.0,
          0.0,
          1.0,
          0.251
        ],
        "metallicFactor": 0.1,
        "roughnessFactor": 0.9
      },
      "name": "<auto>4",
      "doubleSided": true,
      "alphaMode": "BLEND"
    },
    {
      "pbrMetallicRoughness": {
        "baseColorTexture": {
          "index": 1
        },
        "metallicFactor": 0.1,
        "roughnessFactor": 0.9
      },
      "name": "Cinder Block",
      "doubleSided": true
    },
    {
      "pbrMetallicRoughness": {
        "baseColorFactor": [
          0.1801,
          0.0582,
          0.029,
          1.0
        ],
        "metallicFactor": 0.1,
        "roughnessFactor": 0.9
      },
      "name": "<auto>9"
    },
    {
      "pbrMetallicRoughness": {
        "baseColorFactor": [
          0.7969,
          0.7969,
          0.7969,
          1.0
        ],
        "metallicFactor": 0.1,
        "roughnessFactor": 0.9
      },
      "name": "Chris_Shoe",
      "doubleSided": true
    },
    {
      "pbrMetallicRoughness": {
        "baseColorFactor": [
          0.1275,
          0.3066,
          0.8513,
          0.35
        ],
        "metallicFactor": 0.1,
        "roughnessFactor": 0.9
      },
      "name": "Translucent Glass Blue",
      "doubleSided": true,
      "alphaMode": "BLEND"
    },
    {
      "pbrMetallicRoughness": {
        "baseColorFactor": [
          0.212,
          0.212,
          0.212,
          1.0
        ],
        "metallicFactor": 0.1,
        "roughnessFactor": 0.9
      },
      "name": "<auto>1"
    },
    {
      "pbrMetallicRoughness": {
        "baseColorTexture": {
          "index": 2
        },
        "metallicFactor": 0.1,
        "roughnessFactor": 0.9
      },
      "name": "White Subway Tile",
      "doubleSided": true
    }
  ],
  "images": [
    {
      "bufferView": 0,
      "mimeType": "image/jpeg"
    },
    {
      "bufferView": 1,
      "mimeType": "image/jpeg"
    },
    {
      "bufferView": 2,
      "mimeType": "image/jpeg"
    }
  ],
  "textures": [
    {
      "source": 0,
      "sampler": 0
    },
    {
      "source": 1,
      "sampler": 0
    },
    {
      "source": 2,
      "sampler": 0
    }
  ],
  "meshes": [
    {
      "primitives": [
        {
          "attributes": {
            "POSITION": 2,
            "NORMAL": 3,
            "TEXCOORD_0": 4
          },
          "indices": 5,
          "mode": 4,
          "material": 0
        },
        {
          "attributes": {
            "POSITION": 0,
            "NORMAL": 1
          },
          "indices": 6,
          "mode": 4,
          "material": 1
        },
        {
          "attributes": {
            "POSITION": 2,
            "NORMAL": 3,
            "TEXCOORD_0": 4
          },
          "indices": 7,
          "mode": 4,
          "material": 2
        },
        {
          "attributes": {
            "POSITION": 0,
            "NORMAL": 1
          },
          "indices": 8,
          "mode": 4,
          "material": 3
        },
        {
          "attributes": {
            "POSITION": 0,
            "NORMAL": 1
          },
          "indices": 9,
          "mode": 4,
          "material": 4
        },
        {
          "attributes": {
            "POSITION": 0,
            "NORMAL": 1
          },
          "indices": 10,
          "mode": 4,
          "material": 5
        },
        {
          "attributes": {
            "POSITION": 0,
            "NORMAL": 1
          },
          "indices": 11,
          "mode": 4,
          "material": 6
        },
        {
          "attributes": {
            "POSITION": 2,
            "NORMAL": 3,
            "TEXCOORD_0": 4
          },
          "indices": 12,
          "mode": 4,
          "material": 7
        }
      ]
    }
  ],
  "accessors": [
    {
      "bufferView": 3,
      "componentType": 5126,
      "count": 540,
      "type": "VEC3",
      "min": [
        -7.327151036964894,
        -1.1978479462499011e-15,
        -7.7726333347542305
      ],
      "max": [
        7.4538624692751165,
        2.2000006800000014,
        8.182358763325778
      ]
    },
    {
      "bufferView": 4,
      "componentType": 5126,
      "count": 540,
      "type": "VEC3",
      "min": [
        -1.0,
        -1.0,
        -1.0
      ],
      "max": [
        1.0,
        1.0,
        1.0
      ]
    },
    {
      "bufferView": 5,
      "componentType": 5126,
      "count": 4339,
      "type": "VEC3",
      "min": [
        -7.466651169444893,
        -1.1978479462499011e-15,
        -7.7726333347542305
      ],
      "max": [
        7.593362601755118,
        3.045040392000001,
        8.252358338845779
      ]
    },
    {
      "bufferView": 6,
      "componentType": 5126,
      "count": 4339,
      "type": "VEC3",
      "min": [
        -1.0,
        -1.0,
        -1.0
      ],
      "max": [
        1.0,
        1.0,
        1.0
      ]
    },
    {
      "bufferView": 7,
      "componentType": 5126,
      "count": 4339,
      "type": "VEC2",
      "min": [
        -73.78643288341648,
        -24.50076553397058
      ],
      "max": [
        73.59119428341648,
        28.074666466029456
      ]
    },
    {
      "bufferView": 9,
      "componentType": 5123,
      "count": 8388,
      "type": "SCALAR"
    },
    {
      "bufferView": 8,
      "componentType": 5123,
      "count": 576,
      "type": "SCALAR"
    },
    {
      "bufferView": 9,
      "componentType": 5123,
      "count": 852,
      "type": "SCALAR",
      "byteOffset": 16776
    },
    {
      "bufferView": 8,
      "componentType": 5123,
      "count": 108,
      "type": "SCALAR",
      "byteOffset": 1152
    },
    {
      "bufferView": 8,
      "componentType": 5123,
      "count": 66,
      "type": "SCALAR",
      "byteOffset": 1368
    },
    {
      "bufferView": 8,
      "componentType": 5123,
      "count": 108,
      "type": "SCALAR",
      "byteOffset": 1500
    },
    {
      "bufferView": 8,
      "componentType": 5123,
      "count": 6,
      "type": "SCALAR",
      "byteOffset": 1716
    },
    {
      "bufferView": 9,
      "componentType": 5123,
      "count": 42,
      "type": "SCALAR",
      "byteOffset": 18480
    }
  ],
  "bufferViews": [
    {
      "buffer": 0,
      "byteLength": 30937
    },
    {
      "buffer": 0,
      "byteOffset": 30937,
      "byteLength": 44549
    },
    {
      "buffer": 0,
      "byteOffset": 75486,
      "byteLength": 6277
    },
    {
      "buffer": 0,
      "byteOffset": 81768,
      "byteLength": 6480,
      "target": 34962,
      "byteStride": 12
    },
    {
      "buffer": 0,
      "byteOffset": 88248,
      "byteLength": 6480,
      "target": 34962,
      "byteStride": 12
    },
    {
      "buffer": 0,
      "byteOffset": 94728,
      "byteLength": 52068,
      "target": 34962,
      "byteStride": 12
    },
    {
      "buffer": 0,
      "byteOffset": 146796,
      "byteLength": 52068,
      "target": 34962,
      "byteStride": 12
    },
    {
      "buffer": 0,
      "byteOffset": 198864,
      "byteLength": 34712,
      "target": 34962,
      "byteStride": 8
    },
    {
      "buffer": 0,
      "byteOffset": 233576,
      "byteLength": 1728,
      "target": 34963
    },
    {
      "buffer": 0,
      "byteOffset": 235304,
      "byteLength": 18564,
      "target": 34963
    }
  ],
  "buffers": [
    {
      "uri": "data:application/octet-stream;base64,",
      "byteLength": 253868
    }
  ]
}