{
  "asset": {
    "version": "2.0",
    "generator": "Sketchup glTF Exporter v1.2.6 by Centaur"
  },
  "scene": 0,
  "scenes": [
    {
      "nodes": [
        0
      ]
    }
  ],
  "samplers": [
    {
    }
  ],
  "nodes": [
    {
      "name": "root",
      "mesh": 0
    }
  ],
  "materials": [
    {
      "pbrMetallicRoughness": {
        "baseColorTexture": {
          "index": 0
        },
        "metallicFactor": 0.1,
        "roughnessFactor": 0.9
      },
      "name": "Wood Veneer 01",
      "doubleSided": true
    },
    {
      "pbrMetallicRoughness": {
        "baseColorFactor": [
          0.7969,
          0.7969,
          0.7969,
          1.0
        ],
        "metallicFactor": 0.1,
        "roughnessFactor": 0.9
      },
      "name": "Chris_Skin",
      "doubleSided": true
    },
    {
      "pbrMetallicRoughness": {
        "baseColorTexture": {
          "index": 1
        },
        "metallicFactor": 0.1,
        "roughnessFactor": 0.9
      },
      "name": "Cinder Block",
      "doubleSided": true
    },
    {
      "pbrMetallicRoughness": {
        "baseColorFactor": [
          0.0478,
          0.0478,
          0.0478,
          1.0
        ],
        "metallicFactor": 0.1,
        "roughnessFactor": 0.9
      },
      "name": "<auto>1"
    },
    {
      "pbrMetallicRoughness": {
        "baseColorFactor": [
          0.1275,
          0.3066,
          0.8513,
          0.35
        ],
        "metallicFactor": 0.1,
        "roughnessFactor": 0.9
      },
      "name": "Translucent Glass Blue",
      "doubleSided": true,
      "alphaMode": "BLEND"
    },
    {
      "pbrMetallicRoughness": {
        "baseColorFactor": [
          0.0,
          0.0,
          1.0,
          0.251
        ],
        "metallicFactor": 0.1,
        "roughnessFactor": 0.9
      },
      "name": "<auto>3",
      "alphaMode": "BLEND"
    },
    {
      "pbrMetallicRoughness": {
        "baseColorFactor": [
          0.5114,
          0.3838,
          0.3489,
          1.0
        ],
        "metallicFactor": 0.1,
        "roughnessFactor": 0.9
      },
      "name": "<auto>6"
    },
    {
      "pbrMetallicRoughness": {
        "baseColorTexture": {
          "index": 2
        },
        "metallicFactor": 0.1,
        "roughnessFactor": 0.9
      },
      "name": "Tile Limestone Multi",
      "doubleSided": true
    },
    {
      "pbrMetallicRoughness": {
        "baseColorTexture": {
          "index": 3
        },
        "metallicFactor": 0.1,
        "roughnessFactor": 0.9
      },
      "name": "Wood Bamboo"
    }
  ],
  "images": [
    {
      "bufferView": 0,
      "mimeType": "image/jpeg"
    },
    {
      "bufferView": 1,
      "mimeType": "image/jpeg"
    },
    {
      "bufferView": 2,
      "mimeType": "image/jpeg"
    },
    {
      "bufferView": 3,
      "mimeType": "image/jpeg"
    }
  ],
  "textures": [
    {
      "source": 0,
      "sampler": 0
    },
    {
      "source": 1,
      "sampler": 0
    },
    {
      "source": 2,
      "sampler": 0
    },
    {
      "source": 3,
      "sampler": 0
    }
  ],
  "meshes": [
    {
      "primitives": [
        {
          "attributes": {
            "POSITION": 2,
            "NORMAL": 3,
            "TEXCOORD_0": 4
          },
          "indices": 5,
          "mode": 4,
          "material": 0
        },
        {
          "attributes": {
            "POSITION": 0,
            "NORMAL": 1
          },
          "indices": 6,
          "mode": 4,
          "material": 1
        },
        {
          "attributes": {
            "POSITION": 2,
            "NORMAL": 3,
            "TEXCOORD_0": 4
          },
          "indices": 7,
          "mode": 4,
          "material": 2
        },
        {
          "attributes": {
            "POSITION": 0,
            "NORMAL": 1
          },
          "indices": 8,
          "mode": 4,
          "material": 3
        },
        {
          "attributes": {
            "POSITION": 0,
            "NORMAL": 1
          },
          "indices": 9,
          "mode": 4,
          "material": 4
        },
        {
          "attributes": {
            "POSITION": 0,
            "NORMAL": 1
          },
          "indices": 10,
          "mode": 4,
          "material": 5
        },
        {
          "attributes": {
            "POSITION": 0,
            "NORMAL": 1
          },
          "indices": 11,
          "mode": 4,
          "material": 6
        },
        {
          "attributes": {
            "POSITION": 2,
            "NORMAL": 3,
            "TEXCOORD_0": 4
          },
          "indices": 12,
          "mode": 4,
          "material": 7
        },
        {
          "attributes": {
            "POSITION": 2,
            "NORMAL": 3,
            "TEXCOORD_0": 4
          },
          "indices": 13,
          "mode": 4,
          "material": 8
        }
      ]
    }
  ],
  "accessors": [
    {
      "bufferView": 4,
      "componentType": 5126,
      "count": 713,
      "type": "VEC3",
      "min": [
        -8.480149763404091,
        -3.101278045319686e-16,
        -5.244782628292565
      ],
      "max": [
        7.6748537405959185,
        3.0618684000000016,
        4.760238662107441
      ]
    },
    {
      "bufferView": 5,
      "componentType": 5126,
      "count": 713,
      "type": "VEC3",
      "min": [
        -1.0,
        -1.0,
        -1.0
      ],
      "max": [
        1.0,
        1.0,
        1.0
      ]
    },
    {
      "bufferView": 6,
      "componentType": 5126,
      "count": 3927,
      "type": "VEC3",
      "min": [
        -8.480149763404091,
        -3.1931217056544126e-16,
        -5.244782628292565
      ],
      "max": [
        7.699852826995917,
        3.0618684000000025,
        4.785239882107441
      ]
    },
    {
      "bufferView": 7,
      "componentType": 5126,
      "count": 3927,
      "type": "VEC3",
      "min": [
        -1.0,
        -1.0,
        -1.0
      ],
      "max": [
        1.0,
        1.0,
        1.0
      ]
    },
    {
      "bufferView": 8,
      "componentType": 5126,
      "count": 3927,
      "type": "VEC2",
      "min": [
        -13.714144163064455,
        -8.025552187121749
      ],
      "max": [
        13.70896806306445,
        9.28214594980134
      ]
    },
    {
      "bufferView": 10,
      "componentType": 5123,
      "count": 7086,
      "type": "SCALAR"
    },
    {
      "bufferView": 9,
      "componentType": 5123,
      "count": 72,
      "type": "SCALAR"
    },
    {
      "bufferView": 10,
      "componentType": 5123,
      "count": 720,
      "type": "SCALAR",
      "byteOffset": 14172
    },
    {
      "bufferView": 9,
      "componentType": 5123,
      "count": 30,
      "type": "SCALAR",
      "byteOffset": 144
    },
    {
      "bufferView": 9,
      "componentType": 5123,
      "count": 108,
      "type": "SCALAR",
      "byteOffset": 204
    },
    {
      "bufferView": 9,
      "componentType": 5123,
      "count": 468,
      "type": "SCALAR",
      "byteOffset": 420
    },
    {
      "bufferView": 9,
      "componentType": 5123,
      "count": 459,
      "type": "SCALAR",
      "byteOffset": 1356
    },
    {
      "bufferView": 10,
      "componentType": 5123,
      "count": 45,
      "type": "SCALAR",
      "byteOffset": 15612
    },
    {
      "bufferView": 10,
      "componentType": 5123,
      "count": 780,
      "type": "SCALAR",
      "byteOffset": 15702
    }
  ],
  "bufferViews": [
    {
      "buffer": 0,
      "byteLength": 43501
    },
    {
      "buffer": 0,
      "byteOffset": 43501,
      "byteLength": 43713
    },
    {
      "buffer": 0,
      "byteOffset": 87214,
      "byteLength": 20270
    },
    {
      "buffer": 0,
      "byteOffset": 107484,
      "byteLength": 8600
    },
    {
      "buffer": 0,
      "byteOffset": 116088,
      "byteLength": 8556,
      "target": 34962,
      "byteStride": 12
    },
    {
      "buffer": 0,
      "byteOffset": 124644,
      "byteLength": 8556,
      "target": 34962,
      "byteStride": 12
    },
    {
      "buffer": 0,
      "byteOffset": 133200,
      "byteLength": 47124,
      "target": 34962,
      "byteStride": 12
    },
    {
      "buffer": 0,
      "byteOffset": 180324,
      "byteLength": 47124,
      "target": 34962,
      "byteStride": 12
    },
    {
      "buffer": 0,
      "byteOffset": 227448,
      "byteLength": 31416,
      "target": 34962,
      "byteStride": 8
    },
    {
      "buffer": 0,
      "byteOffset": 258864,
      "byteLength": 2274,
      "target": 34963
    },
    {
      "buffer": 0,
      "byteOffset": 261138,
      "byteLength": 17262,
      "target": 34963
    }
  ],
  "buffers": [
    {
      "uri": "data:application/octet-stream;base64,",
      "byteLength": 278400
    }
  ]
}