{
  "asset": {
    "version": "2.0",
    "generator": "Sketchup glTF Exporter v1.2.6 by Centaur"
  },
  "scene": 0,
  "scenes": [
    {
      "nodes": [
        0
      ]
    }
  ],
  "samplers": [
    {
    }
  ],
  "nodes": [
    {
      "name": "root",
      "children": [
        1
      ]
    },
    {
      "children": [
        2
      ],
      "mesh": 1
    },
    {
      "mesh": 0
    }
  ],
  "materials": [
    {
      "pbrMetallicRoughness": {
        "baseColorTexture": {
          "index": 0
        },
        "roughnessFactor": 0.1
      },
      "name": "Metal_Aluminum_Anodized",
      "doubleSided": true
    },
    {
      "pbrMetallicRoughness": {
        "baseColorTexture": {
          "index": 1
        },
        "metallicFactor": 0.1,
        "roughnessFactor": 0.9
      },
      "name": "Material9",
      "doubleSided": true
    },
    {
      "pbrMetallicRoughness": {
        "baseColorTexture": {
          "index": 2
        },
        "metallicFactor": 0.1,
        "roughnessFactor": 0.9
      },
      "name": "Material18",
      "doubleSided": true
    },
    {
      "pbrMetallicRoughness": {
        "baseColorTexture": {
          "index": 3
        },
        "roughnessFactor": 0.1
      },
      "name": "Metal de alumínio anodizado",
      "doubleSided": true
    },
    {
      "pbrMetallicRoughness": {
        "baseColorFactor": [
          0.0,
          0.5295,
          1.0,
          0.25
        ],
        "metallicFactor": 0.1,
        "roughnessFactor": 0.9
      },
      "name": "0097_azul_do_céu_profundo",
      "doubleSided": true,
      "alphaMode": "BLEND"
    },
    {
      "pbrMetallicRoughness": {
        "baseColorFactor": [
          0.6121,
          0.4259,
          0.0802,
          1.0
        ],
        "metallicFactor": 0.1,
        "roughnessFactor": 0.9
      },
      "name": "Color_D08",
      "doubleSided": true
    },
    {
      "pbrMetallicRoughness": {
        "baseColorTexture": {
          "index": 4
        },
        "metallicFactor": 0.1,
        "roughnessFactor": 0.9
      },
      "name": "Bloco de concreto",
      "doubleSided": true
    },
    {
      "pbrMetallicRoughness": {
        "baseColorFactor": [
          0.1275,
          0.3066,
          0.8513,
          0.5
        ],
        "metallicFactor": 0.1,
        "roughnessFactor": 0.9
      },
      "name": "Vidro translúcido azul",
      "doubleSided": true,
      "alphaMode": "BLEND"
    },
    {
      "pbrMetallicRoughness": {
        "baseColorTexture": {
          "index": 5
        },
        "metallicFactor": 0.1,
        "roughnessFactor": 0.9
      },
      "name": "Madeira de bambu média",
      "doubleSided": true
    },
    {
      "pbrMetallicRoughness": {
        "baseColorFactor": [
          0.4647,
          0.3686,
          0.1511,
          1.0
        ],
        "metallicFactor": 0.1,
        "roughnessFactor": 0.9
      },
      "name": "Douglas_Fir_Clear",
      "doubleSided": true
    },
    {
      "pbrMetallicRoughness": {
        "baseColorFactor": [
          0.6121,
          0.2758,
          0.0802,
          1.0
        ],
        "metallicFactor": 0.1,
        "roughnessFactor": 0.9
      },
      "name": "Color_C08",
      "doubleSided": true
    },
    {
      "pbrMetallicRoughness": {
        "baseColorFactor": [
          0.2176,
          0.2176,
          0.2176,
          1.0
        ],
        "metallicFactor": 0.1,
        "roughnessFactor": 0.9
      },
      "name": "default material",
      "doubleSided": true
    }
  ],
  "images": [
    {
      "bufferView": 0,
      "mimeType": "image/jpeg"
    },
    {
      "bufferView": 1,
      "mimeType": "image/jpeg"
    },
    {
      "bufferView": 2,
      "mimeType": "image/jpeg"
    },
    {
      "bufferView": 3,
      "mimeType": "image/jpeg"
    },
    {
      "bufferView": 4,
      "mimeType": "image/jpeg"
    },
    {
      "bufferView": 5,
      "mimeType": "image/jpeg"
    }
  ],
  "textures": [
    {
      "source": 0,
      "sampler": 0
    },
    {
      "source": 1,
      "sampler": 0
    },
    {
      "source": 2,
      "sampler": 0
    },
    {
      "source": 3,
      "sampler": 0
    },
    {
      "source": 4,
      "sampler": 0
    },
    {
      "source": 5,
      "sampler": 0
    }
  ],
  "meshes": [
    {
      "primitives": [
        {
          "attributes": {
            "POSITION": 2,
            "NORMAL": 3,
            "TEXCOORD_0": 4
          },
          "indices": 5,
          "mode": 4,
          "material": 0
        },
        {
          "attributes": {
            "POSITION": 2,
            "NORMAL": 3,
            "TEXCOORD_0": 4
          },
          "indices": 6,
          "mode": 4,
          "material": 1
        },
        {
          "attributes": {
            "POSITION": 2,
            "NORMAL": 3,
            "TEXCOORD_0": 4
          },
          "indices": 7,
          "mode": 4,
          "material": 2
        },
        {
          "attributes": {
            "POSITION": 2,
            "NORMAL": 3,
            "TEXCOORD_0": 4
          },
          "indices": 8,
          "mode": 4,
          "material": 3
        },
        {
          "attributes": {
            "POSITION": 0,
            "NORMAL": 1
          },
          "indices": 9,
          "mode": 4,
          "material": 4
        },
        {
          "attributes": {
            "POSITION": 0,
            "NORMAL": 1
          },
          "indices": 10,
          "mode": 4,
          "material": 5
        },
        {
          "attributes": {
            "POSITION": 2,
            "NORMAL": 3,
            "TEXCOORD_0": 4
          },
          "indices": 11,
          "mode": 4,
          "material": 6
        },
        {
          "attributes": {
            "POSITION": 0,
            "NORMAL": 1
          },
          "indices": 12,
          "mode": 4,
          "material": 7
        },
        {
          "attributes": {
            "POSITION": 2,
            "NORMAL": 3,
            "TEXCOORD_0": 4
          },
          "indices": 13,
          "mode": 4,
          "material": 8
        },
        {
          "attributes": {
            "POSITION": 0,
            "NORMAL": 1
          },
          "indices": 14,
          "mode": 4,
          "material": 9
        },
        {
          "attributes": {
            "POSITION": 0,
            "NORMAL": 1
          },
          "indices": 15,
          "mode": 4,
          "material": 10
        },
        {
          "attributes": {
            "POSITION": 0,
            "NORMAL": 1
          },
          "indices": 16,
          "mode": 4,
          "material": 11
        }
      ]
    },
    {
      "primitives": [
        {
          "attributes": {
            "POSITION": 2,
            "NORMAL": 3,
            "TEXCOORD_0": 4
          },
          "indices": 17,
          "mode": 4,
          "material": 1
        },
        {
          "attributes": {
            "POSITION": 0,
            "NORMAL": 1
          },
          "indices": 18,
          "mode": 4,
          "material": 7
        },
        {
          "attributes": {
            "POSITION": 2,
            "NORMAL": 3,
            "TEXCOORD_0": 4
          },
          "indices": 19,
          "mode": 4,
          "material": 6
        },
        {
          "attributes": {
            "POSITION": 2,
            "NORMAL": 3,
            "TEXCOORD_0": 4
          },
          "indices": 20,
          "mode": 4,
          "material": 2
        }
      ]
    }
  ],
  "accessors": [
    {
      "bufferView": 6,
      "componentType": 5126,
      "count": 5260,
      "type": "VEC3",
      "min": [
        -6.5772867117064555,
        0.1692729520182569,
        -7.248142551664329
      ],
      "max": [
        7.222713288293552,
        2.710857148842646,
        7.171857448335657
      ]
    },
    {
      "bufferView": 7,
      "componentType": 5126,
      "count": 5260,
      "type": "VEC3",
      "min": [
        -1.0,
        -1.0,
        -1.0
      ],
      "max": [
        1.0,
        1.0,
        1.0
      ]
    },
    {
      "bufferView": 8,
      "componentType": 5126,
      "count": 35676,
      "type": "VEC3",
      "min": [
        -6.653486711706454,
        0.16927241236183926,
        -7.281242551664335
      ],
      "max": [
        7.822713288293548,
        5.194793858821343,
        7.220212688979046
      ]
    },
    {
      "bufferView": 9,
      "componentType": 5126,
      "count": 35676,
      "type": "VEC3",
      "min": [
        -1.0,
        -1.0,
        -1.0
      ],
      "max": [
        1.0,
        1.0,
        1.0
      ]
    },
    {
      "bufferView": 10,
      "componentType": 5126,
      "count": 35676,
      "type": "VEC2",
      "min": [
        -52.865195636601584,
        -13.134272997032673
      ],
      "max": [
        22.93476889905439,
        11.76370780508927
      ]
    },
    {
      "bufferView": 12,
      "componentType": 5123,
      "count": 27846,
      "type": "SCALAR"
    },
    {
      "bufferView": 12,
      "componentType": 5123,
      "count": 28329,
      "type": "SCALAR",
      "byteOffset": 55692
    },
    {
      "bufferView": 12,
      "componentType": 5123,
      "count": 5565,
      "type": "SCALAR",
      "byteOffset": 112350
    },
    {
      "bufferView": 12,
      "componentType": 5123,
      "count": 3846,
      "type": "SCALAR",
      "byteOffset": 123480
    },
    {
      "bufferView": 11,
      "componentType": 5123,
      "count": 72,
      "type": "SCALAR"
    },
    {
      "bufferView": 11,
      "componentType": 5123,
      "count": 12225,
      "type": "SCALAR",
      "byteOffset": 144
    },
    {
      "bufferView": 12,
      "componentType": 5123,
      "count": 633,
      "type": "SCALAR",
      "byteOffset": 131172
    },
    {
      "bufferView": 11,
      "componentType": 5123,
      "count": 342,
      "type": "SCALAR",
      "byteOffset": 24594
    },
    {
      "bufferView": 12,
      "componentType": 5123,
      "count": 30,
      "type": "SCALAR",
      "byteOffset": 132438
    },
    {
      "bufferView": 11,
      "componentType": 5123,
      "count": 282,
      "type": "SCALAR",
      "byteOffset": 25278
    },
    {
      "bufferView": 11,
      "componentType": 5123,
      "count": 1956,
      "type": "SCALAR",
      "byteOffset": 25842
    },
    {
      "bufferView": 11,
      "componentType": 5123,
      "count": 15,
      "type": "SCALAR",
      "byteOffset": 29754
    },
    {
      "bufferView": 12,
      "componentType": 5123,
      "count": 3201,
      "type": "SCALAR",
      "byteOffset": 132498
    },
    {
      "bufferView": 11,
      "componentType": 5123,
      "count": 108,
      "type": "SCALAR",
      "byteOffset": 29784
    },
    {
      "bufferView": 12,
      "componentType": 5123,
      "count": 21,
      "type": "SCALAR",
      "byteOffset": 138900
    },
    {
      "bufferView": 12,
      "componentType": 5123,
      "count": 249,
      "type": "SCALAR",
      "byteOffset": 138942
    }
  ],
  "bufferViews": [
    {
      "buffer": 0,
      "byteLength": 2508
    },
    {
      "buffer": 0,
      "byteOffset": 2508,
      "byteLength": 4147
    },
    {
      "buffer": 0,
      "byteOffset": 6655,
      "byteLength": 4597
    },
    {
      "buffer": 0,
      "byteOffset": 11252,
      "byteLength": 2508
    },
    {
      "buffer": 0,
      "byteOffset": 13760,
      "byteLength": 40888
    },
    {
      "buffer": 0,
      "byteOffset": 54648,
      "byteLength": 7666
    },
    {
      "buffer": 0,
      "byteOffset": 62316,
      "byteLength": 63120,
      "target": 34962,
      "byteStride": 12
    },
    {
      "buffer": 0,
      "byteOffset": 125436,
      "byteLength": 63120,
      "target": 34962,
      "byteStride": 12
    },
    {
      "buffer": 0,
      "byteOffset": 188556,
      "byteLength": 428112,
      "target": 34962,
      "byteStride": 12
    },
    {
      "buffer": 0,
      "byteOffset": 616668,
      "byteLength": 428112,
      "target": 34962,
      "byteStride": 12
    },
    {
      "buffer": 0,
      "byteOffset": 1044784,
      "byteLength": 285408,
      "target": 34962,
      "byteStride": 8
    },
    {
      "buffer": 0,
      "byteOffset": 1330192,
      "byteLength": 30000,
      "target": 34963
    },
    {
      "buffer": 0,
      "byteOffset": 1360192,
      "byteLength": 139440,
      "target": 34963
    }
  ],
  "buffers": [
    {
      "uri": "data:application/octet-stream;base64,",
      "byteLength": 1499632
    }
  ]
}