{
  "asset": {
    "version": "2.0",
    "generator": "Sketchup glTF Exporter v1.2.6 by Centaur"
  },
  "scene": 0,
  "scenes": [
    {
      "nodes": [
        0
      ]
    }
  ],
  "samplers": [
    {
    }
  ],
  "nodes": [
    {
      "name": "root",
      "mesh": 0
    }
  ],
  "materials": [
    {
      "pbrMetallicRoughness": {
        "baseColorTexture": {
          "index": 0
        },
        "metallicFactor": 0.1,
        "roughnessFactor": 0.9
      },
      "name": "Material9",
      "doubleSided": true
    },
    {
      "pbrMetallicRoughness": {
        "baseColorTexture": {
          "index": 1
        },
        "metallicFactor": 0.1,
        "roughnessFactor": 0.9
      },
      "name": "Material18",
      "doubleSided": true
    },
    {
      "pbrMetallicRoughness": {
        "baseColorFactor": [
          0.1275,
          0.3066,
          0.8513,
          0.5
        ],
        "metallicFactor": 0.1,
        "roughnessFactor": 0.9
      },
      "name": "Vidro translúcido azul",
      "doubleSided": true,
      "alphaMode": "BLEND"
    },
    {
      "pbrMetallicRoughness": {
        "baseColorTexture": {
          "index": 2
        },
        "roughnessFactor": 0.1
      },
      "name": "Metal_Aluminum_Anodized",
      "doubleSided": true
    },
    {
      "pbrMetallicRoughness": {
        "baseColorFactor": [
          0.0,
          0.5295,
          1.0,
          0.25
        ],
        "metallicFactor": 0.1,
        "roughnessFactor": 0.9
      },
      "name": "0097_azul_do_céu_profundo",
      "doubleSided": true,
      "alphaMode": "BLEND"
    },
    {
      "pbrMetallicRoughness": {
        "baseColorTexture": {
          "index": 3
        },
        "metallicFactor": 0.1,
        "roughnessFactor": 0.9
      },
      "name": "Bloco de concreto",
      "doubleSided": true
    },
    {
      "pbrMetallicRoughness": {
        "baseColorTexture": {
          "index": 4
        },
        "roughnessFactor": 0.1
      },
      "name": "Metal de alumínio anodizado",
      "doubleSided": true
    },
    {
      "pbrMetallicRoughness": {
        "baseColorFactor": [
          0.6121,
          0.4259,
          0.0802,
          1.0
        ],
        "metallicFactor": 0.1,
        "roughnessFactor": 0.9
      },
      "name": "Color_D08",
      "doubleSided": true
    },
    {
      "pbrMetallicRoughness": {
        "baseColorFactor": [
          0.7969,
          0.7969,
          0.7969,
          1.0
        ],
        "metallicFactor": 0.1,
        "roughnessFactor": 0.9
      },
      "name": "Douglas_Fir_Clear",
      "doubleSided": true
    },
    {
      "pbrMetallicRoughness": {
        "baseColorFactor": [
          0.6121,
          0.2758,
          0.0802,
          1.0
        ],
        "metallicFactor": 0.1,
        "roughnessFactor": 0.9
      },
      "name": "Color_C08",
      "doubleSided": true
    },
    {
      "pbrMetallicRoughness": {
        "baseColorTexture": {
          "index": 5
        },
        "metallicFactor": 0.1,
        "roughnessFactor": 0.9
      },
      "name": "Madeira de bambu média",
      "doubleSided": true
    },
    {
      "pbrMetallicRoughness": {
        "baseColorFactor": [
          0.2176,
          0.2176,
          0.2176,
          1.0
        ],
        "metallicFactor": 0.1,
        "roughnessFactor": 0.9
      },
      "name": "default material",
      "doubleSided": true
    }
  ],
  "images": [
    {
      "bufferView": 0,
      "mimeType": "image/jpeg"
    },
    {
      "bufferView": 1,
      "mimeType": "image/jpeg"
    },
    {
      "bufferView": 2,
      "mimeType": "image/jpeg"
    },
    {
      "bufferView": 3,
      "mimeType": "image/jpeg"
    },
    {
      "bufferView": 4,
      "mimeType": "image/jpeg"
    },
    {
      "bufferView": 5,
      "mimeType": "image/jpeg"
    }
  ],
  "textures": [
    {
      "source": 0,
      "sampler": 0
    },
    {
      "source": 1,
      "sampler": 0
    },
    {
      "source": 2,
      "sampler": 0
    },
    {
      "source": 3,
      "sampler": 0
    },
    {
      "source": 4,
      "sampler": 0
    },
    {
      "source": 5,
      "sampler": 0
    }
  ],
  "meshes": [
    {
      "primitives": [
        {
          "attributes": {
            "POSITION": 2,
            "NORMAL": 3,
            "TEXCOORD_0": 4
          },
          "indices": 5,
          "mode": 4,
          "material": 0
        },
        {
          "attributes": {
            "POSITION": 2,
            "NORMAL": 3,
            "TEXCOORD_0": 4
          },
          "indices": 6,
          "mode": 4,
          "material": 1
        },
        {
          "attributes": {
            "POSITION": 0,
            "NORMAL": 1
          },
          "indices": 7,
          "mode": 4,
          "material": 2
        },
        {
          "attributes": {
            "POSITION": 2,
            "NORMAL": 3,
            "TEXCOORD_0": 4
          },
          "indices": 8,
          "mode": 4,
          "material": 3
        },
        {
          "attributes": {
            "POSITION": 0,
            "NORMAL": 1
          },
          "indices": 9,
          "mode": 4,
          "material": 4
        },
        {
          "attributes": {
            "POSITION": 2,
            "NORMAL": 3,
            "TEXCOORD_0": 4
          },
          "indices": 10,
          "mode": 4,
          "material": 5
        },
        {
          "attributes": {
            "POSITION": 2,
            "NORMAL": 3,
            "TEXCOORD_0": 4
          },
          "indices": 11,
          "mode": 4,
          "material": 6
        },
        {
          "attributes": {
            "POSITION": 0,
            "NORMAL": 1
          },
          "indices": 12,
          "mode": 4,
          "material": 7
        },
        {
          "attributes": {
            "POSITION": 0,
            "NORMAL": 1
          },
          "indices": 13,
          "mode": 4,
          "material": 8
        },
        {
          "attributes": {
            "POSITION": 0,
            "NORMAL": 1
          },
          "indices": 14,
          "mode": 4,
          "material": 9
        },
        {
          "attributes": {
            "POSITION": 2,
            "NORMAL": 3,
            "TEXCOORD_0": 4
          },
          "indices": 15,
          "mode": 4,
          "material": 10
        },
        {
          "attributes": {
            "POSITION": 0,
            "NORMAL": 1
          },
          "indices": 16,
          "mode": 4,
          "material": 11
        }
      ]
    }
  ],
  "accessors": [
    {
      "bufferView": 6,
      "componentType": 5126,
      "count": 5221,
      "type": "VEC3",
      "min": [
        -6.577286711706454,
        0.1692729520182569,
        -7.158397720412862
      ],
      "max": [
        7.174358047651174,
        2.710857148842646,
        7.171857448335657
      ]
    },
    {
      "bufferView": 7,
      "componentType": 5126,
      "count": 5221,
      "type": "VEC3",
      "min": [
        -1.0,
        -1.0,
        -1.0
      ],
      "max": [
        1.0,
        1.0,
        1.0
      ]
    },
    {
      "bufferView": 8,
      "componentType": 5126,
      "count": 35591,
      "type": "VEC3",
      "min": [
        -6.653486711706454,
        0.16927241236183926,
        -7.281242551664335
      ],
      "max": [
        7.822713288293548,
        5.194793858821343,
        7.220212688979047
      ]
    },
    {
      "bufferView": 9,
      "componentType": 5126,
      "count": 35591,
      "type": "VEC3",
      "min": [
        -1.0,
        -1.0,
        -1.0
      ],
      "max": [
        1.0,
        1.0,
        1.0
      ]
    },
    {
      "bufferView": 10,
      "componentType": 5126,
      "count": 35591,
      "type": "VEC2",
      "min": [
        -52.86513768646725,
        -19.385400926555924
      ],
      "max": [
        22.934768899067777,
        21.170849073444028
      ]
    },
    {
      "bufferView": 12,
      "componentType": 5123,
      "count": 31599,
      "type": "SCALAR"
    },
    {
      "bufferView": 12,
      "componentType": 5123,
      "count": 5382,
      "type": "SCALAR",
      "byteOffset": 63198
    },
    {
      "bufferView": 11,
      "componentType": 5123,
      "count": 450,
      "type": "SCALAR"
    },
    {
      "bufferView": 12,
      "componentType": 5123,
      "count": 27846,
      "type": "SCALAR",
      "byteOffset": 73962
    },
    {
      "bufferView": 11,
      "componentType": 5123,
      "count": 72,
      "type": "SCALAR",
      "byteOffset": 900
    },
    {
      "bufferView": 12,
      "componentType": 5123,
      "count": 780,
      "type": "SCALAR",
      "byteOffset": 129654
    },
    {
      "bufferView": 12,
      "componentType": 5123,
      "count": 3846,
      "type": "SCALAR",
      "byteOffset": 131214
    },
    {
      "bufferView": 11,
      "componentType": 5123,
      "count": 12225,
      "type": "SCALAR",
      "byteOffset": 1044
    },
    {
      "bufferView": 11,
      "componentType": 5123,
      "count": 165,
      "type": "SCALAR",
      "byteOffset": 25494
    },
    {
      "bufferView": 11,
      "componentType": 5123,
      "count": 1956,
      "type": "SCALAR",
      "byteOffset": 25824
    },
    {
      "bufferView": 12,
      "componentType": 5123,
      "count": 30,
      "type": "SCALAR",
      "byteOffset": 138906
    },
    {
      "bufferView": 11,
      "componentType": 5123,
      "count": 15,
      "type": "SCALAR",
      "byteOffset": 29736
    }
  ],
  "bufferViews": [
    {
      "buffer": 0,
      "byteLength": 3584
    },
    {
      "buffer": 0,
      "byteOffset": 3584,
      "byteLength": 4597
    },
    {
      "buffer": 0,
      "byteOffset": 8181,
      "byteLength": 2508
    },
    {
      "buffer": 0,
      "byteOffset": 10689,
      "byteLength": 40888
    },
    {
      "buffer": 0,
      "byteOffset": 51577,
      "byteLength": 2508
    },
    {
      "buffer": 0,
      "byteOffset": 54085,
      "byteLength": 7666
    },
    {
      "buffer": 0,
      "byteOffset": 61752,
      "byteLength": 62652,
      "target": 34962,
      "byteStride": 12
    },
    {
      "buffer": 0,
      "byteOffset": 124404,
      "byteLength": 62652,
      "target": 34962,
      "byteStride": 12
    },
    {
      "buffer": 0,
      "byteOffset": 187056,
      "byteLength": 427092,
      "target": 34962,
      "byteStride": 12
    },
    {
      "buffer": 0,
      "byteOffset": 614148,
      "byteLength": 427092,
      "target": 34962,
      "byteStride": 12
    },
    {
      "buffer": 0,
      "byteOffset": 1041240,
      "byteLength": 284728,
      "target": 34962,
      "byteStride": 8
    },
    {
      "buffer": 0,
      "byteOffset": 1325968,
      "byteLength": 29766,
      "target": 34963
    },
    {
      "buffer": 0,
      "byteOffset": 1355734,
      "byteLength": 138966,
      "target": 34963
    }
  ],
  "buffers": [
    {
      "uri": "data:application/octet-stream;base64,",
      "byteLength": 1494700
    }
  ]
}