{
  "asset": {
    "version": "2.0",
    "generator": "Sketchup glTF Exporter v1.2.6 by Centaur"
  },
  "scene": 0,
  "scenes": [
    {
      "nodes": [
        0
      ]
    }
  ],
  "samplers": [
    {
    }
  ],
  "nodes": [
    {
      "name": "root",
      "mesh": 0
    }
  ],
  "materials": [
    {
      "pbrMetallicRoughness": {
        "baseColorTexture": {
          "index": 0
        },
        "metallicFactor": 0.1,
        "roughnessFactor": 0.9
      },
      "name": "Folheado de madeira 02",
      "doubleSided": true
    },
    {
      "pbrMetallicRoughness": {
        "baseColorFactor": [
          0.2195,
          0.2195,
          0.2195,
          0.5
        ],
        "metallicFactor": 0.1,
        "roughnessFactor": 0.9
      },
      "name": "Vidro translúcido cinza",
      "doubleSided": true,
      "alphaMode": "BLEND"
    },
    {
      "pbrMetallicRoughness": {
        "baseColorTexture": {
          "index": 1
        },
        "metallicFactor": 0.1,
        "roughnessFactor": 0.9
      },
      "name": "Bloco de concreto",
      "doubleSided": true
    },
    {
      "pbrMetallicRoughness": {
        "baseColorFactor": [
          0.7969,
          0.7969,
          0.7969,
          1.0
        ],
        "metallicFactor": 0.1,
        "roughnessFactor": 0.9
      },
      "name": "<auto>10",
      "doubleSided": true
    },
    {
      "pbrMetallicRoughness": {
        "baseColorTexture": {
          "index": 2
        },
        "metallicFactor": 0.1,
        "roughnessFactor": 0.9
      },
      "name": "Azulejo branco",
      "doubleSided": true
    },
    {
      "pbrMetallicRoughness": {
        "baseColorFactor": [
          0.1801,
          0.0582,
          0.029,
          1.0
        ],
        "metallicFactor": 0.1,
        "roughnessFactor": 0.9
      },
      "name": "<auto>9"
    }
  ],
  "images": [
    {
      "bufferView": 0,
      "mimeType": "image/jpeg"
    },
    {
      "bufferView": 1,
      "mimeType": "image/jpeg"
    },
    {
      "bufferView": 2,
      "mimeType": "image/jpeg"
    }
  ],
  "textures": [
    {
      "source": 0,
      "sampler": 0
    },
    {
      "source": 1,
      "sampler": 0
    },
    {
      "source": 2,
      "sampler": 0
    }
  ],
  "meshes": [
    {
      "primitives": [
        {
          "attributes": {
            "POSITION": 2,
            "NORMAL": 3,
            "TEXCOORD_0": 4
          },
          "indices": 5,
          "mode": 4,
          "material": 0
        },
        {
          "attributes": {
            "POSITION": 0,
            "NORMAL": 1
          },
          "indices": 6,
          "mode": 4,
          "material": 1
        },
        {
          "attributes": {
            "POSITION": 2,
            "NORMAL": 3,
            "TEXCOORD_0": 4
          },
          "indices": 7,
          "mode": 4,
          "material": 2
        },
        {
          "attributes": {
            "POSITION": 0,
            "NORMAL": 1
          },
          "indices": 8,
          "mode": 4,
          "material": 3
        },
        {
          "attributes": {
            "POSITION": 2,
            "NORMAL": 3,
            "TEXCOORD_0": 4
          },
          "indices": 9,
          "mode": 4,
          "material": 4
        },
        {
          "attributes": {
            "POSITION": 0,
            "NORMAL": 1
          },
          "indices": 10,
          "mode": 4,
          "material": 5
        }
      ]
    }
  ],
  "accessors": [
    {
      "bufferView": 3,
      "componentType": 5126,
      "count": 67,
      "type": "VEC3",
      "min": [
        -3.625792053168655,
        0.20339026880880987,
        -5.199941723082548
      ],
      "max": [
        4.1552151330713505,
        2.403390948808812,
        5.6245594828374585
      ]
    },
    {
      "bufferView": 4,
      "componentType": 5126,
      "count": 67,
      "type": "VEC3",
      "min": [
        -1.0,
        -1.0,
        -2.4492935982947064e-16
      ],
      "max": [
        1.0,
        6.123233995736766e-17,
        1.0
      ]
    },
    {
      "bufferView": 5,
      "componentType": 5126,
      "count": 3645,
      "type": "VEC3",
      "min": [
        -3.765292185648654,
        0.20339026880880984,
        -5.340441843402549
      ],
      "max": [
        4.294715265551349,
        3.7989634688088123,
        5.689559058197459
      ]
    },
    {
      "bufferView": 6,
      "componentType": 5126,
      "count": 3645,
      "type": "VEC3",
      "min": [
        -1.0,
        -1.0,
        -1.0
      ],
      "max": [
        1.0,
        1.0,
        1.0
      ]
    },
    {
      "bufferView": 7,
      "componentType": 5126,
      "count": 3645,
      "type": "VEC2",
      "min": [
        -51.43151297049753,
        -16.504729656832723
      ],
      "max": [
        51.51517437049753,
        19.666532343167514
      ]
    },
    {
      "bufferView": 9,
      "componentType": 5123,
      "count": 8169,
      "type": "SCALAR"
    },
    {
      "bufferView": 8,
      "componentType": 5121,
      "count": 72,
      "type": "SCALAR"
    },
    {
      "bufferView": 9,
      "componentType": 5123,
      "count": 495,
      "type": "SCALAR",
      "byteOffset": 16338
    },
    {
      "bufferView": 8,
      "componentType": 5121,
      "count": 51,
      "type": "SCALAR",
      "byteOffset": 72
    },
    {
      "bufferView": 9,
      "componentType": 5123,
      "count": 24,
      "type": "SCALAR",
      "byteOffset": 17328
    },
    {
      "bufferView": 8,
      "componentType": 5121,
      "count": 6,
      "type": "SCALAR",
      "byteOffset": 123
    }
  ],
  "bufferViews": [
    {
      "buffer": 0,
      "byteLength": 17055
    },
    {
      "buffer": 0,
      "byteOffset": 17055,
      "byteLength": 44189
    },
    {
      "buffer": 0,
      "byteOffset": 61244,
      "byteLength": 6277
    },
    {
      "buffer": 0,
      "byteOffset": 67524,
      "byteLength": 804,
      "target": 34962,
      "byteStride": 12
    },
    {
      "buffer": 0,
      "byteOffset": 68328,
      "byteLength": 804,
      "target": 34962,
      "byteStride": 12
    },
    {
      "buffer": 0,
      "byteOffset": 69132,
      "byteLength": 43740,
      "target": 34962,
      "byteStride": 12
    },
    {
      "buffer": 0,
      "byteOffset": 112872,
      "byteLength": 43740,
      "target": 34962,
      "byteStride": 12
    },
    {
      "buffer": 0,
      "byteOffset": 156616,
      "byteLength": 29160,
      "target": 34962,
      "byteStride": 8
    },
    {
      "buffer": 0,
      "byteOffset": 185776,
      "byteLength": 129,
      "target": 34963
    },
    {
      "buffer": 0,
      "byteOffset": 185906,
      "byteLength": 17376,
      "target": 34963
    }
  ],
  "buffers": [
    {
      "uri": "data:application/octet-stream;base64,",
      "byteLength": 203282
    }
  ]
}