{
  "asset": {
    "version": "2.0",
    "generator": "Sketchup glTF Exporter v1.2.6 by Centaur"
  },
  "scene": 0,
  "scenes": [
    {
      "nodes": [
        0
      ]
    }
  ],
  "samplers": [
    {
    }
  ],
  "nodes": [
    {
      "name": "root",
      "mesh": 0
    }
  ],
  "materials": [
    {
      "pbrMetallicRoughness": {
        "baseColorFactor": [
          0.0,
          0.0,
          1.0,
          0.251
        ],
        "metallicFactor": 0.1,
        "roughnessFactor": 0.9
      },
      "name": "<auto>4",
      "alphaMode": "BLEND"
    },
    {
      "pbrMetallicRoughness": {
        "baseColorFactor": [
          0.1275,
          0.3066,
          0.8513,
          0.5
        ],
        "metallicFactor": 0.1,
        "roughnessFactor": 0.9
      },
      "name": "Vidro translúcido azul",
      "doubleSided": true,
      "alphaMode": "BLEND"
    },
    {
      "pbrMetallicRoughness": {
        "baseColorTexture": {
          "index": 0
        },
        "roughnessFactor": 0.1
      },
      "name": "Metal de alumínio anodizado"
    },
    {
      "pbrMetallicRoughness": {
        "baseColorTexture": {
          "index": 1
        },
        "metallicFactor": 0.1,
        "roughnessFactor": 0.9
      },
      "name": "Aço inoxidável escovado"
    },
    {
      "pbrMetallicRoughness": {
        "baseColorTexture": {
          "index": 2
        },
        "metallicFactor": 0.1,
        "roughnessFactor": 0.9
      },
      "name": "Tijolo azul",
      "doubleSided": true
    },
    {
      "pbrMetallicRoughness": {
        "baseColorFactor": [
          0.212,
          0.212,
          0.212,
          1.0
        ],
        "metallicFactor": 0.1,
        "roughnessFactor": 0.9
      },
      "name": "<auto>"
    },
    {
      "pbrMetallicRoughness": {
        "baseColorFactor": [
          0.5418,
          0.3993,
          0.1801,
          1.0
        ],
        "metallicFactor": 0.1,
        "roughnessFactor": 0.9
      },
      "name": "<auto>5",
      "doubleSided": true
    },
    {
      "pbrMetallicRoughness": {
        "baseColorTexture": {
          "index": 3
        },
        "metallicFactor": 0.1,
        "roughnessFactor": 0.9
      },
      "name": "Azulejo de calcário colorido",
      "doubleSided": true
    }
  ],
  "images": [
    {
      "bufferView": 0,
      "mimeType": "image/jpeg"
    },
    {
      "bufferView": 1,
      "mimeType": "image/jpeg"
    },
    {
      "bufferView": 2,
      "mimeType": "image/jpeg"
    },
    {
      "bufferView": 3,
      "mimeType": "image/jpeg"
    }
  ],
  "textures": [
    {
      "source": 0,
      "sampler": 0
    },
    {
      "source": 1,
      "sampler": 0
    },
    {
      "source": 2,
      "sampler": 0
    },
    {
      "source": 3,
      "sampler": 0
    }
  ],
  "meshes": [
    {
      "primitives": [
        {
          "attributes": {
            "POSITION": 0,
            "NORMAL": 1
          },
          "indices": 5,
          "mode": 4,
          "material": 0
        },
        {
          "attributes": {
            "POSITION": 0,
            "NORMAL": 1
          },
          "indices": 6,
          "mode": 4,
          "material": 1
        },
        {
          "attributes": {
            "POSITION": 2,
            "NORMAL": 3,
            "TEXCOORD_0": 4
          },
          "indices": 7,
          "mode": 4,
          "material": 2
        },
        {
          "attributes": {
            "POSITION": 2,
            "NORMAL": 3,
            "TEXCOORD_0": 4
          },
          "indices": 8,
          "mode": 4,
          "material": 3
        },
        {
          "attributes": {
            "POSITION": 2,
            "NORMAL": 3,
            "TEXCOORD_0": 4
          },
          "indices": 9,
          "mode": 4,
          "material": 4
        },
        {
          "attributes": {
            "POSITION": 0,
            "NORMAL": 1
          },
          "indices": 10,
          "mode": 4,
          "material": 5
        },
        {
          "attributes": {
            "POSITION": 0,
            "NORMAL": 1
          },
          "indices": 11,
          "mode": 4,
          "material": 6
        },
        {
          "attributes": {
            "POSITION": 2,
            "NORMAL": 3,
            "TEXCOORD_0": 4
          },
          "indices": 12,
          "mode": 4,
          "material": 7
        }
      ]
    }
  ],
  "accessors": [
    {
      "bufferView": 4,
      "componentType": 5126,
      "count": 560,
      "type": "VEC3",
      "min": [
        -7.427358275470294,
        -4.703422986862336e-16,
        -7.681272657776987
      ],
      "max": [
        7.572642204529718,
        2.2000006800000023,
        8.233737422223022
      ]
    },
    {
      "bufferView": 5,
      "componentType": 5126,
      "count": 560,
      "type": "VEC3",
      "min": [
        -1.0,
        -1.0,
        -1.0
      ],
      "max": [
        1.0,
        1.0,
        1.0
      ]
    },
    {
      "bufferView": 6,
      "componentType": 5126,
      "count": 4557,
      "type": "VEC3",
      "min": [
        -7.427358275470294,
        -4.703422986862336e-16,
        -7.711264063376987
      ],
      "max": [
        7.602664090129713,
        4.000012320000003,
        8.233737422223022
      ]
    },
    {
      "bufferView": 7,
      "componentType": 5126,
      "count": 4557,
      "type": "VEC3",
      "min": [
        -1.0,
        -1.0,
        -1.0
      ],
      "max": [
        1.0,
        1.0,
        1.0
      ]
    },
    {
      "bufferView": 8,
      "componentType": 5126,
      "count": 4557,
      "type": "VEC2",
      "min": [
        -56.146098806772855,
        -37.40636328888493
      ],
      "max": [
        27.598224005992094,
        31.74367367111509
      ]
    },
    {
      "bufferView": 9,
      "componentType": 5123,
      "count": 600,
      "type": "SCALAR"
    },
    {
      "bufferView": 9,
      "componentType": 5123,
      "count": 120,
      "type": "SCALAR",
      "byteOffset": 1200
    },
    {
      "bufferView": 10,
      "componentType": 5123,
      "count": 6714,
      "type": "SCALAR"
    },
    {
      "bufferView": 10,
      "componentType": 5123,
      "count": 1215,
      "type": "SCALAR",
      "byteOffset": 13428
    },
    {
      "bufferView": 10,
      "componentType": 5123,
      "count": 1686,
      "type": "SCALAR",
      "byteOffset": 15858
    },
    {
      "bufferView": 9,
      "componentType": 5123,
      "count": 6,
      "type": "SCALAR",
      "byteOffset": 1440
    },
    {
      "bufferView": 9,
      "componentType": 5123,
      "count": 225,
      "type": "SCALAR",
      "byteOffset": 1452
    },
    {
      "bufferView": 10,
      "componentType": 5123,
      "count": 36,
      "type": "SCALAR",
      "byteOffset": 19230
    }
  ],
  "bufferViews": [
    {
      "buffer": 0,
      "byteLength": 2508
    },
    {
      "buffer": 0,
      "byteOffset": 2508,
      "byteLength": 27544
    },
    {
      "buffer": 0,
      "byteOffset": 30052,
      "byteLength": 30081
    },
    {
      "buffer": 0,
      "byteOffset": 60133,
      "byteLength": 13114
    },
    {
      "buffer": 0,
      "byteOffset": 73248,
      "byteLength": 6720,
      "target": 34962,
      "byteStride": 12
    },
    {
      "buffer": 0,
      "byteOffset": 79968,
      "byteLength": 6720,
      "target": 34962,
      "byteStride": 12
    },
    {
      "buffer": 0,
      "byteOffset": 86688,
      "byteLength": 54684,
      "target": 34962,
      "byteStride": 12
    },
    {
      "buffer": 0,
      "byteOffset": 141372,
      "byteLength": 54684,
      "target": 34962,
      "byteStride": 12
    },
    {
      "buffer": 0,
      "byteOffset": 196056,
      "byteLength": 36456,
      "target": 34962,
      "byteStride": 8
    },
    {
      "buffer": 0,
      "byteOffset": 232512,
      "byteLength": 1902,
      "target": 34963
    },
    {
      "buffer": 0,
      "byteOffset": 234414,
      "byteLength": 19302,
      "target": 34963
    }
  ],
  "buffers": [
    {
      "uri": "data:application/octet-stream;base64,",
      "byteLength": 253716
    }
  ]
}