{
  "asset": {
    "version": "2.0",
    "generator": "Sketchup glTF Exporter v1.2.6 by Centaur"
  },
  "scene": 0,
  "scenes": [
    {
      "nodes": [
        0
      ]
    }
  ],
  "samplers": [
    {
    }
  ],
  "nodes": [
    {
      "name": "root",
      "mesh": 0
    }
  ],
  "materials": [
    {
      "pbrMetallicRoughness": {
        "baseColorTexture": {
          "index": 0
        },
        "metallicFactor": 0.1,
        "roughnessFactor": 0.9
      },
      "name": "Folheado de madeira 01",
      "doubleSided": true
    },
    {
      "pbrMetallicRoughness": {
        "baseColorFactor": [
          0.0,
          0.0,
          1.0,
          0.251
        ],
        "metallicFactor": 0.1,
        "roughnessFactor": 0.9
      },
      "name": "<auto>2",
      "doubleSided": true,
      "alphaMode": "BLEND"
    },
    {
      "pbrMetallicRoughness": {
        "baseColorTexture": {
          "index": 1
        },
        "metallicFactor": 0.1,
        "roughnessFactor": 0.9
      },
      "name": "Bloco de concreto",
      "doubleSided": true
    },
    {
      "pbrMetallicRoughness": {
        "baseColorFactor": [
          0.2195,
          0.2195,
          0.2195,
          0.5
        ],
        "metallicFactor": 0.1,
        "roughnessFactor": 0.9
      },
      "name": "Vidro translúcido cinza",
      "doubleSided": true,
      "alphaMode": "BLEND"
    },
    {
      "pbrMetallicRoughness": {
        "baseColorFactor": [
          0.7969,
          0.7969,
          0.7969,
          1.0
        ],
        "metallicFactor": 0.1,
        "roughnessFactor": 0.9
      },
      "name": "Chris_Skin",
      "doubleSided": true
    },
    {
      "pbrMetallicRoughness": {
        "baseColorTexture": {
          "index": 2
        },
        "metallicFactor": 0.1,
        "roughnessFactor": 0.9
      },
      "name": "Azulejo de terraço",
      "doubleSided": true
    },
    {
      "pbrMetallicRoughness": {
        "baseColorFactor": [
          0.5732,
          0.5732,
          0.5732,
          1.0
        ],
        "metallicFactor": 0.1,
        "roughnessFactor": 0.9
      },
      "name": "Cor M02",
      "doubleSided": true
    }
  ],
  "images": [
    {
      "bufferView": 0,
      "mimeType": "image/jpeg"
    },
    {
      "bufferView": 1,
      "mimeType": "image/jpeg"
    },
    {
      "bufferView": 2,
      "mimeType": "image/jpeg"
    }
  ],
  "textures": [
    {
      "source": 0,
      "sampler": 0
    },
    {
      "source": 1,
      "sampler": 0
    },
    {
      "source": 2,
      "sampler": 0
    }
  ],
  "meshes": [
    {
      "primitives": [
        {
          "attributes": {
            "POSITION": 2,
            "NORMAL": 3,
            "TEXCOORD_0": 4
          },
          "indices": 5,
          "mode": 4,
          "material": 0
        },
        {
          "attributes": {
            "POSITION": 0,
            "NORMAL": 1
          },
          "indices": 6,
          "mode": 4,
          "material": 1
        },
        {
          "attributes": {
            "POSITION": 2,
            "NORMAL": 3,
            "TEXCOORD_0": 4
          },
          "indices": 7,
          "mode": 4,
          "material": 2
        },
        {
          "attributes": {
            "POSITION": 0,
            "NORMAL": 1
          },
          "indices": 8,
          "mode": 4,
          "material": 3
        },
        {
          "attributes": {
            "POSITION": 0,
            "NORMAL": 1
          },
          "indices": 9,
          "mode": 4,
          "material": 4
        },
        {
          "attributes": {
            "POSITION": 2,
            "NORMAL": 3,
            "TEXCOORD_0": 4
          },
          "indices": 10,
          "mode": 4,
          "material": 5
        },
        {
          "attributes": {
            "POSITION": 0,
            "NORMAL": 1
          },
          "indices": 11,
          "mode": 4,
          "material": 6
        }
      ]
    }
  ],
  "accessors": [
    {
      "bufferView": 3,
      "componentType": 5126,
      "count": 328,
      "type": "VEC3",
      "min": [
        -7.089120254418016,
        -4.033231447407065e-16,
        -6.647275526563934
      ],
      "max": [
        7.231399339181994,
        2.2500000720000015,
        7.63374405967607
      ]
    },
    {
      "bufferView": 4,
      "componentType": 5126,
      "count": 328,
      "type": "VEC3",
      "min": [
        -1.0,
        -1.0,
        -1.0
      ],
      "max": [
        1.0,
        1.0,
        1.0
      ]
    },
    {
      "bufferView": 5,
      "componentType": 5126,
      "count": 3678,
      "type": "VEC3",
      "min": [
        -7.228620386898015,
        -4.1373184406374584e-16,
        -6.7867756590439345
      ],
      "max": [
        7.301408058701997,
        3.044558808000002,
        7.7732441921560715
      ]
    },
    {
      "bufferView": 6,
      "componentType": 5126,
      "count": 3678,
      "type": "VEC3",
      "min": [
        -1.0,
        -1.0,
        -1.0
      ],
      "max": [
        1.0,
        1.0,
        1.0
      ]
    },
    {
      "bufferView": 7,
      "componentType": 5126,
      "count": 3678,
      "type": "VEC2",
      "min": [
        -23.059749151240204,
        -20.610127340695332
      ],
      "max": [
        23.39697084875983,
        25.846572659304698
      ]
    },
    {
      "bufferView": 9,
      "componentType": 5123,
      "count": 7098,
      "type": "SCALAR"
    },
    {
      "bufferView": 8,
      "componentType": 5123,
      "count": 336,
      "type": "SCALAR"
    },
    {
      "bufferView": 9,
      "componentType": 5123,
      "count": 819,
      "type": "SCALAR",
      "byteOffset": 14196
    },
    {
      "bufferView": 8,
      "componentType": 5123,
      "count": 126,
      "type": "SCALAR",
      "byteOffset": 672
    },
    {
      "bufferView": 8,
      "componentType": 5123,
      "count": 36,
      "type": "SCALAR",
      "byteOffset": 924
    },
    {
      "bufferView": 9,
      "componentType": 5123,
      "count": 36,
      "type": "SCALAR",
      "byteOffset": 15834
    },
    {
      "bufferView": 8,
      "componentType": 5123,
      "count": 12,
      "type": "SCALAR",
      "byteOffset": 996
    }
  ],
  "bufferViews": [
    {
      "buffer": 0,
      "byteLength": 40810
    },
    {
      "buffer": 0,
      "byteOffset": 40810,
      "byteLength": 44116
    },
    {
      "buffer": 0,
      "byteOffset": 84926,
      "byteLength": 25277
    },
    {
      "buffer": 0,
      "byteOffset": 110208,
      "byteLength": 3936,
      "target": 34962,
      "byteStride": 12
    },
    {
      "buffer": 0,
      "byteOffset": 114144,
      "byteLength": 3936,
      "target": 34962,
      "byteStride": 12
    },
    {
      "buffer": 0,
      "byteOffset": 118080,
      "byteLength": 44136,
      "target": 34962,
      "byteStride": 12
    },
    {
      "buffer": 0,
      "byteOffset": 162216,
      "byteLength": 44136,
      "target": 34962,
      "byteStride": 12
    },
    {
      "buffer": 0,
      "byteOffset": 206352,
      "byteLength": 29424,
      "target": 34962,
      "byteStride": 8
    },
    {
      "buffer": 0,
      "byteOffset": 235776,
      "byteLength": 1020,
      "target": 34963
    },
    {
      "buffer": 0,
      "byteOffset": 236796,
      "byteLength": 15906,
      "target": 34963
    }
  ],
  "buffers": [
    {
      "uri": "data:application/octet-stream;base64,",
      "byteLength": 252702
    }
  ]
}