{
  "asset": {
    "version": "2.0",
    "generator": "Sketchup glTF Exporter v1.2.6 by Centaur"
  },
  "scene": 0,
  "scenes": [
    {
      "nodes": [
        0
      ]
    }
  ],
  "samplers": [
    {
    }
  ],
  "nodes": [
    {
      "name": "root",
      "children": [
        1,
        2,
        3,
        4,
        5,
        6,
        7,
        8,
        9,
        10,
        11,
        12,
        13,
        14,
        15,
        16,
        17,
        18,
        19,
        20,
        21,
        22,
        23,
        24
      ],
      "mesh": 24
    },
    {
      "name": "a",
      "mesh": 0
    },
    {
      "name": "h1",
      "mesh": 1
    },
    {
      "name": "a#2",
      "mesh": 2
    },
    {
      "name": "h'1",
      "mesh": 3
    },
    {
      "name": "h'2",
      "mesh": 4
    },
    {
      "name": "d",
      "mesh": 5
    },
    {
      "name": "d'",
      "mesh": 6
    },
    {
      "name": "ap",
      "mesh": 7
    },
    {
      "name": "a#1",
      "mesh": 8
    },
    {
      "name": "h2",
      "mesh": 9
    },
    {
      "name": "Pipe",
      "mesh": 10
    },
    {
      "name": "Pipe",
      "mesh": 11
    },
    {
      "name": "Pipe",
      "mesh": 12
    },
    {
      "name": "Pipe",
      "mesh": 13
    },
    {
      "name": "Pipe",
      "mesh": 14
    },
    {
      "name": "Pipe",
      "mesh": 15
    },
    {
      "name": "Pipe",
      "mesh": 16
    },
    {
      "name": "Pipe",
      "mesh": 17
    },
    {
      "name": "Pipe",
      "mesh": 18
    },
    {
      "mesh": 19
    },
    {
      "name": "Pipe#2",
      "mesh": 20
    },
    {
      "name": "Pipe#2",
      "mesh": 21
    },
    {
      "name": "Pipe#2",
      "mesh": 22
    },
    {
      "name": "Pipe#2",
      "mesh": 23
    }
  ],
  "materials": [
    {
      "pbrMetallicRoughness": {
        "baseColorFactor": [
          1.0,
          0.0,
          0.0,
          0.25
        ],
        "metallicFactor": 0.1,
        "roughnessFactor": 0.9
      },
      "name": "0020_Red",
      "doubleSided": true,
      "alphaMode": "BLEND"
    },
    {
      "pbrMetallicRoughness": {
        "baseColorFactor": [
          0.2845,
          0.8592,
          0.2845,
          0.25
        ],
        "metallicFactor": 0.1,
        "roughnessFactor": 0.9
      },
      "name": "0068_LightGreen",
      "doubleSided": true,
      "alphaMode": "BLEND"
    },
    {
      "pbrMetallicRoughness": {
        "baseColorFactor": [
          0.142,
          0.142,
          0.142,
          1.0
        ],
        "metallicFactor": 0.1,
        "roughnessFactor": 0.9
      },
      "name": "0134_DimGray"
    },
    {
      "pbrMetallicRoughness": {
        "baseColorFactor": [
          0.1701,
          0.1701,
          0.1701,
          1.0
        ],
        "metallicFactor": 0.1,
        "roughnessFactor": 0.9
      },
      "name": "Color M05"
    },
    {
      "pbrMetallicRoughness": {
        "baseColorFactor": [
          0.1332,
          0.1801,
          0.1734,
          0.23
        ],
        "metallicFactor": 0.1,
        "roughnessFactor": 0.9
      },
      "name": "Steve_Shirt",
      "doubleSided": true,
      "alphaMode": "BLEND"
    },
    {
      "pbrMetallicRoughness": {
        "baseColorFactor": [
          0.2176,
          0.2176,
          0.2176,
          1.0
        ],
        "metallicFactor": 0.1,
        "roughnessFactor": 0.9
      },
      "name": "default material",
      "doubleSided": true
    },
    {
      "pbrMetallicRoughness": {
        "baseColorFactor": [
          0.0915,
          0.0915,
          0.0915,
          1.0
        ],
        "metallicFactor": 0.1,
        "roughnessFactor": 0.9
      },
      "name": "Color M06"
    }
  ],
  "meshes": [
    {
      "primitives": [
        {
          "attributes": {
            "POSITION": 0,
            "NORMAL": 1
          },
          "indices": 2,
          "mode": 4,
          "material": 2
        }
      ]
    },
    {
      "primitives": [
        {
          "attributes": {
            "POSITION": 0,
            "NORMAL": 1
          },
          "indices": 3,
          "mode": 4,
          "material": 2
        }
      ]
    },
    {
      "primitives": [
        {
          "attributes": {
            "POSITION": 0,
            "NORMAL": 1
          },
          "indices": 4,
          "mode": 4,
          "material": 2
        }
      ]
    },
    {
      "primitives": [
        {
          "attributes": {
            "POSITION": 0,
            "NORMAL": 1
          },
          "indices": 5,
          "mode": 4,
          "material": 2
        }
      ]
    },
    {
      "primitives": [
        {
          "attributes": {
            "POSITION": 0,
            "NORMAL": 1
          },
          "indices": 6,
          "mode": 4,
          "material": 2
        }
      ]
    },
    {
      "primitives": [
        {
          "attributes": {
            "POSITION": 0,
            "NORMAL": 1
          },
          "indices": 7,
          "mode": 4,
          "material": 2
        }
      ]
    },
    {
      "primitives": [
        {
          "attributes": {
            "POSITION": 0,
            "NORMAL": 1
          },
          "indices": 8,
          "mode": 4,
          "material": 2
        }
      ]
    },
    {
      "primitives": [
        {
          "attributes": {
            "POSITION": 0,
            "NORMAL": 1
          },
          "indices": 9,
          "mode": 4,
          "material": 2
        }
      ]
    },
    {
      "primitives": [
        {
          "attributes": {
            "POSITION": 0,
            "NORMAL": 1
          },
          "indices": 10,
          "mode": 4,
          "material": 2
        }
      ]
    },
    {
      "primitives": [
        {
          "attributes": {
            "POSITION": 0,
            "NORMAL": 1
          },
          "indices": 11,
          "mode": 4,
          "material": 2
        }
      ]
    },
    {
      "primitives": [
        {
          "attributes": {
            "POSITION": 0,
            "NORMAL": 1
          },
          "indices": 12,
          "mode": 4,
          "material": 3
        }
      ]
    },
    {
      "primitives": [
        {
          "attributes": {
            "POSITION": 0,
            "NORMAL": 1
          },
          "indices": 13,
          "mode": 4,
          "material": 3
        }
      ]
    },
    {
      "primitives": [
        {
          "attributes": {
            "POSITION": 0,
            "NORMAL": 1
          },
          "indices": 14,
          "mode": 4,
          "material": 3
        }
      ]
    },
    {
      "primitives": [
        {
          "attributes": {
            "POSITION": 0,
            "NORMAL": 1
          },
          "indices": 15,
          "mode": 4,
          "material": 3
        }
      ]
    },
    {
      "primitives": [
        {
          "attributes": {
            "POSITION": 0,
            "NORMAL": 1
          },
          "indices": 16,
          "mode": 4,
          "material": 3
        }
      ]
    },
    {
      "primitives": [
        {
          "attributes": {
            "POSITION": 0,
            "NORMAL": 1
          },
          "indices": 17,
          "mode": 4,
          "material": 3
        }
      ]
    },
    {
      "primitives": [
        {
          "attributes": {
            "POSITION": 0,
            "NORMAL": 1
          },
          "indices": 18,
          "mode": 4,
          "material": 3
        }
      ]
    },
    {
      "primitives": [
        {
          "attributes": {
            "POSITION": 0,
            "NORMAL": 1
          },
          "indices": 19,
          "mode": 4,
          "material": 3
        }
      ]
    },
    {
      "primitives": [
        {
          "attributes": {
            "POSITION": 0,
            "NORMAL": 1
          },
          "indices": 20,
          "mode": 4,
          "material": 3
        }
      ]
    },
    {
      "primitives": [
        {
          "attributes": {
            "POSITION": 0,
            "NORMAL": 1
          },
          "indices": 21,
          "mode": 4,
          "material": 1
        },
        {
          "attributes": {
            "POSITION": 0,
            "NORMAL": 1
          },
          "indices": 22,
          "mode": 4,
          "material": 4
        }
      ]
    },
    {
      "primitives": [
        {
          "attributes": {
            "POSITION": 0,
            "NORMAL": 1
          },
          "indices": 23,
          "mode": 4,
          "material": 5
        },
        {
          "attributes": {
            "POSITION": 0,
            "NORMAL": 1
          },
          "indices": 24,
          "mode": 4,
          "material": 6
        }
      ]
    },
    {
      "primitives": [
        {
          "attributes": {
            "POSITION": 0,
            "NORMAL": 1
          },
          "indices": 25,
          "mode": 4,
          "material": 5
        },
        {
          "attributes": {
            "POSITION": 0,
            "NORMAL": 1
          },
          "indices": 26,
          "mode": 4,
          "material": 6
        }
      ]
    },
    {
      "primitives": [
        {
          "attributes": {
            "POSITION": 0,
            "NORMAL": 1
          },
          "indices": 27,
          "mode": 4,
          "material": 5
        },
        {
          "attributes": {
            "POSITION": 0,
            "NORMAL": 1
          },
          "indices": 28,
          "mode": 4,
          "material": 6
        }
      ]
    },
    {
      "primitives": [
        {
          "attributes": {
            "POSITION": 0,
            "NORMAL": 1
          },
          "indices": 29,
          "mode": 4,
          "material": 5
        },
        {
          "attributes": {
            "POSITION": 0,
            "NORMAL": 1
          },
          "indices": 30,
          "mode": 4,
          "material": 6
        }
      ]
    },
    {
      "primitives": [
        {
          "attributes": {
            "POSITION": 0,
            "NORMAL": 1
          },
          "indices": 31,
          "mode": 4,
          "material": 0
        },
        {
          "attributes": {
            "POSITION": 0,
            "NORMAL": 1
          },
          "indices": 32,
          "mode": 4,
          "material": 1
        }
      ]
    }
  ],
  "accessors": [
    {
      "bufferView": 0,
      "componentType": 5126,
      "count": 3316,
      "type": "VEC3",
      "min": [
        -1.1800000000000004,
        -0.7739999999999998,
        -1.2630000000000006
      ],
      "max": [
        1.3629999999999993,
        0.9251380112556762,
        1.2830000000000004
      ]
    },
    {
      "bufferView": 1,
      "componentType": 5126,
      "count": 3316,
      "type": "VEC3",
      "min": [
        -1.0,
        -1.0,
        -1.0
      ],
      "max": [
        1.0,
        1.0,
        1.0
      ]
    },
    {
      "bufferView": 2,
      "componentType": 5123,
      "count": 828,
      "type": "SCALAR"
    },
    {
      "bufferView": 2,
      "componentType": 5123,
      "count": 456,
      "type": "SCALAR",
      "byteOffset": 1656
    },
    {
      "bufferView": 2,
      "componentType": 5123,
      "count": 828,
      "type": "SCALAR",
      "byteOffset": 2568
    },
    {
      "bufferView": 2,
      "componentType": 5123,
      "count": 516,
      "type": "SCALAR",
      "byteOffset": 4224
    },
    {
      "bufferView": 2,
      "componentType": 5123,
      "count": 942,
      "type": "SCALAR",
      "byteOffset": 5256
    },
    {
      "bufferView": 2,
      "componentType": 5123,
      "count": 684,
      "type": "SCALAR",
      "byteOffset": 7140
    },
    {
      "bufferView": 2,
      "componentType": 5123,
      "count": 744,
      "type": "SCALAR",
      "byteOffset": 8508
    },
    {
      "bufferView": 2,
      "componentType": 5123,
      "count": 1428,
      "type": "SCALAR",
      "byteOffset": 9996
    },
    {
      "bufferView": 2,
      "componentType": 5123,
      "count": 828,
      "type": "SCALAR",
      "byteOffset": 12852
    },
    {
      "bufferView": 2,
      "componentType": 5123,
      "count": 888,
      "type": "SCALAR",
      "byteOffset": 14508
    },
    {
      "bufferView": 2,
      "componentType": 5123,
      "count": 36,
      "type": "SCALAR",
      "byteOffset": 16284
    },
    {
      "bufferView": 2,
      "componentType": 5123,
      "count": 36,
      "type": "SCALAR",
      "byteOffset": 16356
    },
    {
      "bufferView": 2,
      "componentType": 5123,
      "count": 36,
      "type": "SCALAR",
      "byteOffset": 16428
    },
    {
      "bufferView": 2,
      "componentType": 5123,
      "count": 36,
      "type": "SCALAR",
      "byteOffset": 16500
    },
    {
      "bufferView": 2,
      "componentType": 5123,
      "count": 36,
      "type": "SCALAR",
      "byteOffset": 16572
    },
    {
      "bufferView": 2,
      "componentType": 5123,
      "count": 36,
      "type": "SCALAR",
      "byteOffset": 16644
    },
    {
      "bufferView": 2,
      "componentType": 5123,
      "count": 36,
      "type": "SCALAR",
      "byteOffset": 16716
    },
    {
      "bufferView": 2,
      "componentType": 5123,
      "count": 36,
      "type": "SCALAR",
      "byteOffset": 16788
    },
    {
      "bufferView": 2,
      "componentType": 5123,
      "count": 36,
      "type": "SCALAR",
      "byteOffset": 16860
    },
    {
      "bufferView": 2,
      "componentType": 5123,
      "count": 51,
      "type": "SCALAR",
      "byteOffset": 16932
    },
    {
      "bufferView": 2,
      "componentType": 5123,
      "count": 57,
      "type": "SCALAR",
      "byteOffset": 17034
    },
    {
      "bufferView": 2,
      "componentType": 5123,
      "count": 30,
      "type": "SCALAR",
      "byteOffset": 17148
    },
    {
      "bufferView": 2,
      "componentType": 5123,
      "count": 6,
      "type": "SCALAR",
      "byteOffset": 17208
    },
    {
      "bufferView": 2,
      "componentType": 5123,
      "count": 30,
      "type": "SCALAR",
      "byteOffset": 17220
    },
    {
      "bufferView": 2,
      "componentType": 5123,
      "count": 6,
      "type": "SCALAR",
      "byteOffset": 17280
    },
    {
      "bufferView": 2,
      "componentType": 5123,
      "count": 30,
      "type": "SCALAR",
      "byteOffset": 17292
    },
    {
      "bufferView": 2,
      "componentType": 5123,
      "count": 6,
      "type": "SCALAR",
      "byteOffset": 17352
    },
    {
      "bufferView": 2,
      "componentType": 5123,
      "count": 30,
      "type": "SCALAR",
      "byteOffset": 17364
    },
    {
      "bufferView": 2,
      "componentType": 5123,
      "count": 6,
      "type": "SCALAR",
      "byteOffset": 17424
    },
    {
      "bufferView": 2,
      "componentType": 5123,
      "count": 72,
      "type": "SCALAR",
      "byteOffset": 17436
    },
    {
      "bufferView": 2,
      "componentType": 5123,
      "count": 24,
      "type": "SCALAR",
      "byteOffset": 17580
    }
  ],
  "bufferViews": [
    {
      "buffer": 0,
      "byteLength": 39792,
      "target": 34962,
      "byteStride": 12
    },
    {
      "buffer": 0,
      "byteOffset": 39792,
      "byteLength": 39792,
      "target": 34962,
      "byteStride": 12
    },
    {
      "buffer": 0,
      "byteOffset": 79584,
      "byteLength": 17628,
      "target": 34963
    }
  ],
  "buffers": [
    {
      "uri": "data:application/octet-stream;base64,",
      "byteLength": 97212
    }
  ]
}