{
  "asset": {
    "version": "2.0",
    "generator": "Sketchup glTF Exporter v1.2.6 by Centaur"
  },
  "scene": 0,
  "scenes": [
    {
      "nodes": [
        0
      ]
    }
  ],
  "samplers": [
    {
    }
  ],
  "nodes": [
    {
      "name": "root",
      "children": [
        1,
        2
      ],
      "mesh": 2
    },
    {
      "name": "0#1",
      "mesh": 0
    },
    {
      "children": [
        3
      ]
    },
    {
      "name": "0#2",
      "mesh": 1
    }
  ],
  "materials": [
    {
      "pbrMetallicRoughness": {
        "baseColorFactor": [
          0.2176,
          0.2176,
          0.2176,
          1.0
        ],
        "metallicFactor": 0.1,
        "roughnessFactor": 0.9
      },
      "name": "default material",
      "doubleSided": true
    },
    {
      "pbrMetallicRoughness": {
        "baseColorFactor": [
          1.0,
          0.0,
          0.0,
          0.47
        ],
        "metallicFactor": 0.1,
        "roughnessFactor": 0.9
      },
      "name": "Cor A05",
      "doubleSided": true,
      "alphaMode": "BLEND"
    },
    {
      "pbrMetallicRoughness": {
        "baseColorTexture": {
          "index": 0
        },
        "metallicFactor": 0.1,
        "roughnessFactor": 0.9
      },
      "name": "Location Snapshot#1"
    },
    {
      "pbrMetallicRoughness": {
        "baseColorFactor": [
          1.0,
          0.0,
          0.0,
          1.0
        ],
        "metallicFactor": 0.1,
        "roughnessFactor": 0.9
      },
      "name": "[Color A05]1",
      "doubleSided": true
    }
  ],
  "images": [
    {
      "bufferView": 0,
      "mimeType": "image/jpeg"
    }
  ],
  "textures": [
    {
      "source": 0,
      "sampler": 0
    }
  ],
  "meshes": [
    {
      "primitives": [
        {
          "attributes": {
            "POSITION": 0,
            "NORMAL": 1
          },
          "indices": 5,
          "mode": 4,
          "material": 0
        }
      ]
    },
    {
      "primitives": [
        {
          "attributes": {
            "POSITION": 0,
            "NORMAL": 1
          },
          "indices": 6,
          "mode": 4,
          "material": 0
        }
      ]
    },
    {
      "primitives": [
        {
          "attributes": {
            "POSITION": 0,
            "NORMAL": 1
          },
          "indices": 7,
          "mode": 4,
          "material": 1
        },
        {
          "attributes": {
            "POSITION": 2,
            "NORMAL": 3,
            "TEXCOORD_0": 4
          },
          "indices": 8,
          "mode": 4,
          "material": 2
        },
        {
          "attributes": {
            "POSITION": 0,
            "NORMAL": 1
          },
          "indices": 9,
          "mode": 4,
          "material": 3
        }
      ]
    }
  ],
  "accessors": [
    {
      "bufferView": 1,
      "componentType": 5126,
      "count": 8462,
      "type": "VEC3",
      "min": [
        -1000.3361359238783,
        -147.8544674660569,
        -2757.5119142849585
      ],
      "max": [
        1695.3038618447565,
        70.65863253394281,
        68.48536017870346
      ]
    },
    {
      "bufferView": 2,
      "componentType": 5126,
      "count": 8462,
      "type": "VEC3",
      "min": [
        -0.9999999969313826,
        -1.0,
        -0.9999999666190638
      ],
      "max": [
        0.9999988622678861,
        1.0,
        1.0
      ]
    },
    {
      "bufferView": 3,
      "componentType": 5126,
      "count": 9648,
      "type": "VEC3",
      "min": [
        -1014.2785619486829,
        -154.88300991745905,
        -1013.2434232328096
      ],
      "max": [
        1014.4945010702368,
        79.1681271370661,
        1008.9388915169992
      ]
    },
    {
      "bufferView": 4,
      "componentType": 5126,
      "count": 9648,
      "type": "VEC3",
      "min": [
        -0.5264909137105351,
        0.7645637415406387,
        -0.5328122659678103
      ],
      "max": [
        0.6444861224257504,
        0.9999988938349823,
        0.5572742179541413
      ]
    },
    {
      "bufferView": 5,
      "componentType": 5126,
      "count": 9648,
      "type": "VEC2",
      "min": [
        0.01171783962469497,
        0.27600213085138825
      ],
      "max": [
        0.9102272422950826,
        0.8763247862482617
      ]
    },
    {
      "bufferView": 6,
      "componentType": 5123,
      "count": 768,
      "type": "SCALAR"
    },
    {
      "bufferView": 6,
      "componentType": 5123,
      "count": 768,
      "type": "SCALAR",
      "byteOffset": 1536
    },
    {
      "bufferView": 6,
      "componentType": 5123,
      "count": 6,
      "type": "SCALAR",
      "byteOffset": 3072
    },
    {
      "bufferView": 7,
      "componentType": 5123,
      "count": 35748,
      "type": "SCALAR"
    },
    {
      "bufferView": 6,
      "componentType": 5123,
      "count": 23232,
      "type": "SCALAR",
      "byteOffset": 3084
    }
  ],
  "bufferViews": [
    {
      "buffer": 0,
      "byteLength": 105720
    },
    {
      "buffer": 0,
      "byteOffset": 105720,
      "byteLength": 101544,
      "target": 34962,
      "byteStride": 12
    },
    {
      "buffer": 0,
      "byteOffset": 207264,
      "byteLength": 101544,
      "target": 34962,
      "byteStride": 12
    },
    {
      "buffer": 0,
      "byteOffset": 308808,
      "byteLength": 115776,
      "target": 34962,
      "byteStride": 12
    },
    {
      "buffer": 0,
      "byteOffset": 424584,
      "byteLength": 115776,
      "target": 34962,
      "byteStride": 12
    },
    {
      "buffer": 0,
      "byteOffset": 540360,
      "byteLength": 77184,
      "target": 34962,
      "byteStride": 8
    },
    {
      "buffer": 0,
      "byteOffset": 617544,
      "byteLength": 49548,
      "target": 34963
    },
    {
      "buffer": 0,
      "byteOffset": 667092,
      "byteLength": 71496,
      "target": 34963
    }
  ],
  "buffers": [
    {
      "uri": "data:application/octet-stream;base64,",
      "byteLength": 738588
    }
  ]
}