{
  "asset": {
    "version": "2.0",
    "generator": "Sketchup glTF Exporter v1.2.6 by Centaur"
  },
  "scene": 0,
  "scenes": [
    {
      "nodes": [
        0
      ]
    }
  ],
  "samplers": [
    {
    }
  ],
  "nodes": [
    {
      "name": "root",
      "children": [
        1,
        2
      ],
      "mesh": 2
    },
    {
      "name": "0#1",
      "mesh": 0
    },
    {
      "children": [
        3
      ]
    },
    {
      "name": "0#2",
      "mesh": 1
    }
  ],
  "materials": [
    {
      "pbrMetallicRoughness": {
        "baseColorFactor": [
          0.2176,
          0.2176,
          0.2176,
          1.0
        ],
        "metallicFactor": 0.1,
        "roughnessFactor": 0.9
      },
      "name": "default material",
      "doubleSided": true
    },
    {
      "pbrMetallicRoughness": {
        "baseColorTexture": {
          "index": 0
        },
        "metallicFactor": 0.1,
        "roughnessFactor": 0.9
      },
      "name": "Location Snapshot#2"
    },
    {
      "pbrMetallicRoughness": {
        "baseColorFactor": [
          1.0,
          0.0,
          0.0,
          0.47
        ],
        "metallicFactor": 0.1,
        "roughnessFactor": 0.9
      },
      "name": "Cor A05",
      "doubleSided": true,
      "alphaMode": "BLEND"
    },
    {
      "pbrMetallicRoughness": {
        "baseColorFactor": [
          1.0,
          0.0,
          0.0,
          1.0
        ],
        "metallicFactor": 0.1,
        "roughnessFactor": 0.9
      },
      "name": "[Color A05]1",
      "doubleSided": true
    }
  ],
  "images": [
    {
      "bufferView": 0,
      "mimeType": "image/jpeg"
    }
  ],
  "textures": [
    {
      "source": 0,
      "sampler": 0
    }
  ],
  "meshes": [
    {
      "primitives": [
        {
          "attributes": {
            "POSITION": 0,
            "NORMAL": 1
          },
          "indices": 5,
          "mode": 4,
          "material": 0
        }
      ]
    },
    {
      "primitives": [
        {
          "attributes": {
            "POSITION": 0,
            "NORMAL": 1
          },
          "indices": 6,
          "mode": 4,
          "material": 0
        }
      ]
    },
    {
      "primitives": [
        {
          "attributes": {
            "POSITION": 2,
            "NORMAL": 3,
            "TEXCOORD_0": 4
          },
          "indices": 7,
          "mode": 4,
          "material": 1
        },
        {
          "attributes": {
            "POSITION": 0,
            "NORMAL": 1
          },
          "indices": 8,
          "mode": 4,
          "material": 2
        },
        {
          "attributes": {
            "POSITION": 0,
            "NORMAL": 1
          },
          "indices": 9,
          "mode": 4,
          "material": 3
        }
      ]
    }
  ],
  "accessors": [
    {
      "bufferView": 1,
      "componentType": 5126,
      "count": 8462,
      "type": "VEC3",
      "min": [
        -1000.3361359238783,
        -147.8544674660569,
        -2757.5119142849585
      ],
      "max": [
        1695.3038618447565,
        70.65863253394281,
        68.48536017870346
      ]
    },
    {
      "bufferView": 2,
      "componentType": 5126,
      "count": 8462,
      "type": "VEC3",
      "min": [
        -0.9999999969313826,
        -1.0,
        -0.9999999666190638
      ],
      "max": [
        0.9999988622678861,
        1.0,
        1.0
      ]
    },
    {
      "bufferView": 3,
      "componentType": 5126,
      "count": 9650,
      "type": "VEC3",
      "min": [
        -1010.2970219210264,
        -155.2647833382773,
        -991.5971119534232
      ],
      "max": [
        1018.4737683469438,
        79.63944994779828,
        1030.5829771496362
      ]
    },
    {
      "bufferView": 4,
      "componentType": 5126,
      "count": 9650,
      "type": "VEC3",
      "min": [
        -0.5144552322608085,
        0.7595462122529091,
        -0.5376525423153897
      ],
      "max": [
        0.6499240784548981,
        0.9999894030281066,
        0.5718044772463339
      ]
    },
    {
      "bufferView": 5,
      "componentType": 5126,
      "count": 9650,
      "type": "VEC2",
      "min": [
        0.013670791810406535,
        0.13900004300935564
      ],
      "max": [
        0.9121791138579025,
        0.8593983068945543
      ]
    },
    {
      "bufferView": 6,
      "componentType": 5123,
      "count": 768,
      "type": "SCALAR"
    },
    {
      "bufferView": 6,
      "componentType": 5123,
      "count": 768,
      "type": "SCALAR",
      "byteOffset": 1536
    },
    {
      "bufferView": 7,
      "componentType": 5123,
      "count": 35742,
      "type": "SCALAR"
    },
    {
      "bufferView": 6,
      "componentType": 5123,
      "count": 6,
      "type": "SCALAR",
      "byteOffset": 3072
    },
    {
      "bufferView": 6,
      "componentType": 5123,
      "count": 23232,
      "type": "SCALAR",
      "byteOffset": 3084
    }
  ],
  "bufferViews": [
    {
      "buffer": 0,
      "byteLength": 316923
    },
    {
      "buffer": 0,
      "byteOffset": 316932,
      "byteLength": 101544,
      "target": 34962,
      "byteStride": 12
    },
    {
      "buffer": 0,
      "byteOffset": 418476,
      "byteLength": 101544,
      "target": 34962,
      "byteStride": 12
    },
    {
      "buffer": 0,
      "byteOffset": 520020,
      "byteLength": 115800,
      "target": 34962,
      "byteStride": 12
    },
    {
      "buffer": 0,
      "byteOffset": 635820,
      "byteLength": 115800,
      "target": 34962,
      "byteStride": 12
    },
    {
      "buffer": 0,
      "byteOffset": 751624,
      "byteLength": 77200,
      "target": 34962,
      "byteStride": 8
    },
    {
      "buffer": 0,
      "byteOffset": 828824,
      "byteLength": 49548,
      "target": 34963
    },
    {
      "buffer": 0,
      "byteOffset": 878372,
      "byteLength": 71484,
      "target": 34963
    }
  ],
  "buffers": [
    {
      "uri": "data:application/octet-stream;base64,",
      "byteLength": 949856
    }
  ]
}