{
  "asset": {
    "version": "2.0",
    "generator": "Sketchup glTF Exporter v1.2.6 by Centaur"
  },
  "scene": 0,
  "scenes": [
    {
      "nodes": [
        0
      ]
    }
  ],
  "samplers": [
    {
    }
  ],
  "nodes": [
    {
      "name": "root",
      "children": [
        1
      ],
      "mesh": 0
    },
    {
    }
  ],
  "materials": [
    {
      "pbrMetallicRoughness": {
        "baseColorFactor": [
          0.2176,
          0.2176,
          0.2176,
          1.0
        ],
        "metallicFactor": 0.1,
        "roughnessFactor": 0.9
      },
      "name": "default material",
      "doubleSided": true
    },
    {
      "pbrMetallicRoughness": {
        "baseColorTexture": {
          "index": 0
        },
        "metallicFactor": 0.1,
        "roughnessFactor": 0.9
      },
      "name": "Location Snapshot#2"
    },
    {
      "pbrMetallicRoughness": {
        "baseColorFactor": [
          1.0,
          1.0,
          0.0,
          1.0
        ],
        "metallicFactor": 0.1,
        "roughnessFactor": 0.9
      },
      "name": "Cor E05",
      "doubleSided": true
    },
    {
      "pbrMetallicRoughness": {
        "baseColorFactor": [
          0.002,
          0.0278,
          0.325,
          0.45
        ],
        "metallicFactor": 0.1,
        "roughnessFactor": 0.9
      },
      "name": "Cor D07",
      "doubleSided": true,
      "alphaMode": "BLEND"
    },
    {
      "pbrMetallicRoughness": {
        "baseColorFactor": [
          1.0,
          0.1011,
          0.0,
          0.4
        ],
        "metallicFactor": 0.1,
        "roughnessFactor": 0.9
      },
      "name": "Cor C05",
      "doubleSided": true,
      "alphaMode": "BLEND"
    }
  ],
  "images": [
    {
      "bufferView": 0,
      "mimeType": "image/jpeg"
    }
  ],
  "textures": [
    {
      "source": 0,
      "sampler": 0
    }
  ],
  "meshes": [
    {
      "primitives": [
        {
          "attributes": {
            "POSITION": 0,
            "NORMAL": 1
          },
          "indices": 5,
          "mode": 4,
          "material": 0
        },
        {
          "attributes": {
            "POSITION": 2,
            "NORMAL": 3,
            "TEXCOORD_0": 4
          },
          "indices": 6,
          "mode": 4,
          "material": 1
        },
        {
          "attributes": {
            "POSITION": 0,
            "NORMAL": 1
          },
          "indices": 7,
          "mode": 4,
          "material": 2
        },
        {
          "attributes": {
            "POSITION": 0,
            "NORMAL": 1
          },
          "indices": 8,
          "mode": 4,
          "material": 3
        },
        {
          "attributes": {
            "POSITION": 0,
            "NORMAL": 1
          },
          "indices": 9,
          "mode": 4,
          "material": 4
        }
      ]
    }
  ],
  "accessors": [
    {
      "bufferView": 1,
      "componentType": 5126,
      "count": 3435,
      "type": "VEC3",
      "min": [
        -928.629744360813,
        -440.81324420817936,
        -277.10267021864075
      ],
      "max": [
        382.6697220582894,
        49.211551452219474,
        807.0185433049705
      ]
    },
    {
      "bufferView": 2,
      "componentType": 5126,
      "count": 3435,
      "type": "VEC3",
      "min": [
        -0.9938103940724036,
        -1.0,
        -0.9994824374214097
      ],
      "max": [
        0.9950720901428697,
        0.9739160930095332,
        0.9995310519713759
      ]
    },
    {
      "bufferView": 3,
      "componentType": 5126,
      "count": 10757,
      "type": "VEC3",
      "min": [
        -1009.695108543849,
        -470.2203886085836,
        -999.759142385796
      ],
      "max": [
        1009.5962328706522,
        105.9216959072382,
        1004.1115117408339
      ]
    },
    {
      "bufferView": 4,
      "componentType": 5126,
      "count": 10757,
      "type": "VEC3",
      "min": [
        -0.837356169447594,
        0.5395110574926744,
        -0.6902135968115741
      ],
      "max": [
        0.6057985730401728,
        0.9998548281248655,
        0.6447033497144702
      ]
    },
    {
      "bufferView": 5,
      "componentType": 5126,
      "count": 10757,
      "type": "VEC2",
      "min": [
        0.03320093836335397,
        0.05265735487139911
      ],
      "max": [
        0.9277951914419192,
        0.9453204648258557
      ]
    },
    {
      "bufferView": 6,
      "componentType": 5123,
      "count": 3,
      "type": "SCALAR"
    },
    {
      "bufferView": 7,
      "componentType": 5123,
      "count": 38940,
      "type": "SCALAR"
    },
    {
      "bufferView": 6,
      "componentType": 5123,
      "count": 7932,
      "type": "SCALAR",
      "byteOffset": 6
    },
    {
      "bufferView": 6,
      "componentType": 5123,
      "count": 126,
      "type": "SCALAR",
      "byteOffset": 15870
    },
    {
      "bufferView": 6,
      "componentType": 5123,
      "count": 1074,
      "type": "SCALAR",
      "byteOffset": 16122
    }
  ],
  "bufferViews": [
    {
      "buffer": 0,
      "byteLength": 246602
    },
    {
      "buffer": 0,
      "byteOffset": 246612,
      "byteLength": 41220,
      "target": 34962,
      "byteStride": 12
    },
    {
      "buffer": 0,
      "byteOffset": 287832,
      "byteLength": 41220,
      "target": 34962,
      "byteStride": 12
    },
    {
      "buffer": 0,
      "byteOffset": 329052,
      "byteLength": 129084,
      "target": 34962,
      "byteStride": 12
    },
    {
      "buffer": 0,
      "byteOffset": 458136,
      "byteLength": 129084,
      "target": 34962,
      "byteStride": 12
    },
    {
      "buffer": 0,
      "byteOffset": 587224,
      "byteLength": 86056,
      "target": 34962,
      "byteStride": 8
    },
    {
      "buffer": 0,
      "byteOffset": 673280,
      "byteLength": 18270,
      "target": 34963
    },
    {
      "buffer": 0,
      "byteOffset": 691550,
      "byteLength": 77880,
      "target": 34963
    }
  ],
  "buffers": [
    {
      "uri": "data:application/octet-stream;base64,",
      "byteLength": 769430
    }
  ]
}