{
  "asset": {
    "version": "2.0",
    "generator": "Sketchup glTF Exporter v1.2.6 by Centaur"
  },
  "scene": 0,
  "scenes": [
    {
      "nodes": [
        0
      ]
    }
  ],
  "samplers": [
    {
    }
  ],
  "nodes": [
    {
      "name": "root",
      "children": [
        1,
        2,
        3
      ]
    },
    {
    },
    {
      "mesh": 0
    },
    {
      "mesh": 1
    }
  ],
  "materials": [
    {
      "pbrMetallicRoughness": {
        "baseColorFactor": [
          1.0,
          1.0,
          0.0,
          1.0
        ],
        "metallicFactor": 0.1,
        "roughnessFactor": 0.9
      },
      "name": "Color E05",
      "doubleSided": true
    },
    {
      "pbrMetallicRoughness": {
        "baseColorFactor": [
          0.002,
          0.0278,
          0.325,
          0.45
        ],
        "metallicFactor": 0.1,
        "roughnessFactor": 0.9
      },
      "name": "Color D07",
      "doubleSided": true,
      "alphaMode": "BLEND"
    },
    {
      "pbrMetallicRoughness": {
        "baseColorFactor": [
          1.0,
          0.1011,
          0.0,
          0.4
        ],
        "metallicFactor": 0.1,
        "roughnessFactor": 0.9
      },
      "name": "Color C05",
      "doubleSided": true,
      "alphaMode": "BLEND"
    }
  ],
  "meshes": [
    {
      "primitives": [
        {
          "attributes": {
            "POSITION": 0,
            "NORMAL": 1
          },
          "indices": 2,
          "mode": 4,
          "material": 0
        }
      ]
    },
    {
      "primitives": [
        {
          "attributes": {
            "POSITION": 0,
            "NORMAL": 1
          },
          "indices": 3,
          "mode": 4,
          "material": 1
        },
        {
          "attributes": {
            "POSITION": 0,
            "NORMAL": 1
          },
          "indices": 4,
          "mode": 4,
          "material": 2
        }
      ]
    }
  ],
  "accessors": [
    {
      "bufferView": 0,
      "componentType": 5126,
      "count": 3142,
      "type": "VEC3",
      "min": [
        -928.629744360813,
        -440.81324420817936,
        -277.1026702186407
      ],
      "max": [
        382.6697220582894,
        49.21155145221951,
        806.6312018374095
      ]
    },
    {
      "bufferView": 1,
      "componentType": 5126,
      "count": 3142,
      "type": "VEC3",
      "min": [
        -0.9938103940724036,
        -1.0,
        -0.9994824374214097
      ],
      "max": [
        0.9950720901428697,
        0.9739160930095332,
        0.9995310519713759
      ]
    },
    {
      "bufferView": 2,
      "componentType": 5123,
      "count": 7932,
      "type": "SCALAR"
    },
    {
      "bufferView": 2,
      "componentType": 5123,
      "count": 174,
      "type": "SCALAR",
      "byteOffset": 15864
    },
    {
      "bufferView": 2,
      "componentType": 5123,
      "count": 594,
      "type": "SCALAR",
      "byteOffset": 16212
    }
  ],
  "bufferViews": [
    {
      "buffer": 0,
      "byteLength": 37704,
      "target": 34962,
      "byteStride": 12
    },
    {
      "buffer": 0,
      "byteOffset": 37704,
      "byteLength": 37704,
      "target": 34962,
      "byteStride": 12
    },
    {
      "buffer": 0,
      "byteOffset": 75408,
      "byteLength": 17400,
      "target": 34963
    }
  ],
  "buffers": [
    {
      "uri": "data:application/octet-stream;base64,",
      "byteLength": 92808
    }
  ]
}