{
  "asset": {
    "version": "2.0",
    "generator": "Sketchup glTF Exporter v1.2.6 by Centaur"
  },
  "scene": 0,
  "scenes": [
    {
      "nodes": [
        0
      ]
    }
  ],
  "samplers": [
    {
    }
  ],
  "nodes": [
    {
      "name": "root",
      "children": [
        1
      ],
      "mesh": 0
    },
    {
      "children": [
        2
      ]
    },
    {
    }
  ],
  "materials": [
    {
      "pbrMetallicRoughness": {
        "baseColorTexture": {
          "index": 0
        },
        "metallicFactor": 0.1,
        "roughnessFactor": 0.9
      },
      "name": "Location Snapshot#3"
    },
    {
      "pbrMetallicRoughness": {
        "baseColorFactor": [
          0.0,
          0.0,
          0.0,
          0.6
        ],
        "metallicFactor": 0.1,
        "roughnessFactor": 0.9
      },
      "name": "Cor M09",
      "doubleSided": true,
      "alphaMode": "BLEND"
    },
    {
      "pbrMetallicRoughness": {
        "baseColorFactor": [
          1.0,
          0.2158,
          0.0,
          0.4
        ],
        "metallicFactor": 0.1,
        "roughnessFactor": 0.9
      },
      "name": "Cor C05",
      "doubleSided": true,
      "alphaMode": "BLEND"
    },
    {
      "pbrMetallicRoughness": {
        "baseColorFactor": [
          1.0,
          0.2158,
          0.0,
          1.0
        ],
        "metallicFactor": 0.1,
        "roughnessFactor": 0.9
      },
      "name": "[Color C05]1",
      "doubleSided": true
    }
  ],
  "images": [
    {
      "bufferView": 0,
      "mimeType": "image/jpeg"
    }
  ],
  "textures": [
    {
      "source": 0,
      "sampler": 0
    }
  ],
  "meshes": [
    {
      "primitives": [
        {
          "attributes": {
            "POSITION": 2,
            "NORMAL": 3,
            "TEXCOORD_0": 4
          },
          "indices": 5,
          "mode": 4,
          "material": 0
        },
        {
          "attributes": {
            "POSITION": 0,
            "NORMAL": 1
          },
          "indices": 6,
          "mode": 4,
          "material": 1
        },
        {
          "attributes": {
            "POSITION": 0,
            "NORMAL": 1
          },
          "indices": 7,
          "mode": 4,
          "material": 2
        },
        {
          "attributes": {
            "POSITION": 0,
            "NORMAL": 1
          },
          "indices": 8,
          "mode": 4,
          "material": 3
        }
      ]
    }
  ],
  "accessors": [
    {
      "bufferView": 1,
      "componentType": 5126,
      "count": 4585,
      "type": "VEC3",
      "min": [
        -793.4986830658694,
        -40.00000000000022,
        -967.5530105484958
      ],
      "max": [
        1041.3991070097552,
        276.32543168342875,
        906.00745881605
      ]
    },
    {
      "bufferView": 2,
      "componentType": 5126,
      "count": 4585,
      "type": "VEC3",
      "min": [
        -1.0,
        -1.0,
        -1.0
      ],
      "max": [
        1.0,
        1.0,
        1.0
      ]
    },
    {
      "bufferView": 3,
      "componentType": 5126,
      "count": 4881,
      "type": "VEC3",
      "min": [
        -793.4986830658692,
        -60.86452380959457,
        -967.553010548496
      ],
      "max": [
        1041.3991070097552,
        204.08673208099955,
        906.00745881605
      ]
    },
    {
      "bufferView": 4,
      "componentType": 5126,
      "count": 4881,
      "type": "VEC3",
      "min": [
        -0.6347881835621767,
        0.6459636406671909,
        -0.5635323397850157
      ],
      "max": [
        0.6076458009938283,
        0.9998731962615349,
        0.5804731184716765
      ]
    },
    {
      "bufferView": 5,
      "componentType": 5126,
      "count": 4881,
      "type": "VEC2",
      "min": [
        0.10488576838341479,
        0.20216872809074649
      ],
      "max": [
        0.9347920160504766,
        0.8804989059137105
      ]
    },
    {
      "bufferView": 7,
      "componentType": 5123,
      "count": 17526,
      "type": "SCALAR"
    },
    {
      "bufferView": 6,
      "componentType": 5123,
      "count": 24,
      "type": "SCALAR"
    },
    {
      "bufferView": 6,
      "componentType": 5123,
      "count": 69,
      "type": "SCALAR",
      "byteOffset": 48
    },
    {
      "bufferView": 6,
      "componentType": 5123,
      "count": 12336,
      "type": "SCALAR",
      "byteOffset": 186
    }
  ],
  "bufferViews": [
    {
      "buffer": 0,
      "byteLength": 355616
    },
    {
      "buffer": 0,
      "byteOffset": 355620,
      "byteLength": 55020,
      "target": 34962,
      "byteStride": 12
    },
    {
      "buffer": 0,
      "byteOffset": 410640,
      "byteLength": 55020,
      "target": 34962,
      "byteStride": 12
    },
    {
      "buffer": 0,
      "byteOffset": 465660,
      "byteLength": 58572,
      "target": 34962,
      "byteStride": 12
    },
    {
      "buffer": 0,
      "byteOffset": 524232,
      "byteLength": 58572,
      "target": 34962,
      "byteStride": 12
    },
    {
      "buffer": 0,
      "byteOffset": 582808,
      "byteLength": 39048,
      "target": 34962,
      "byteStride": 8
    },
    {
      "buffer": 0,
      "byteOffset": 621856,
      "byteLength": 24858,
      "target": 34963
    },
    {
      "buffer": 0,
      "byteOffset": 646714,
      "byteLength": 35052,
      "target": 34963
    }
  ],
  "buffers": [
    {
      "uri": "data:application/octet-stream;base64,",
      "byteLength": 681766
    }
  ]
}