{
  "asset": {
    "version": "2.0",
    "generator": "Sketchup glTF Exporter v1.2.6 by Centaur"
  },
  "scene": 0,
  "scenes": [
    {
      "nodes": [
        0
      ]
    }
  ],
  "samplers": [
    {
    }
  ],
  "nodes": [
    {
      "name": "root",
      "children": [
        1,
        3
      ]
    },
    {
      "children": [
        2
      ]
    },
    {
    },
    {
      "children": [
        4
      ],
      "mesh": 2
    },
    {
      "children": [
        5
      ],
      "mesh": 1
    },
    {
      "mesh": 0
    }
  ],
  "materials": [
    {
      "pbrMetallicRoughness": {
        "baseColorFactor": [
          1.0,
          0.2158,
          0.0,
          0.4
        ],
        "metallicFactor": 0.1,
        "roughnessFactor": 0.9
      },
      "name": "Cor C05",
      "doubleSided": true,
      "alphaMode": "BLEND"
    },
    {
      "pbrMetallicRoughness": {
        "baseColorFactor": [
          1.0,
          0.2158,
          0.0,
          1.0
        ],
        "metallicFactor": 0.1,
        "roughnessFactor": 0.9
      },
      "name": "[Color C05]1",
      "doubleSided": true
    },
    {
      "pbrMetallicRoughness": {
        "baseColorFactor": [
          0.0,
          0.0,
          0.0,
          0.6
        ],
        "metallicFactor": 0.1,
        "roughnessFactor": 0.9
      },
      "name": "Cor M09",
      "doubleSided": true,
      "alphaMode": "BLEND"
    }
  ],
  "meshes": [
    {
      "primitives": [
        {
          "attributes": {
            "POSITION": 0,
            "NORMAL": 1
          },
          "indices": 2,
          "mode": 4,
          "material": 1
        }
      ]
    },
    {
      "primitives": [
        {
          "attributes": {
            "POSITION": 0,
            "NORMAL": 1
          },
          "indices": 3,
          "mode": 4,
          "material": 0
        }
      ]
    },
    {
      "primitives": [
        {
          "attributes": {
            "POSITION": 0,
            "NORMAL": 1
          },
          "indices": 4,
          "mode": 4,
          "material": 2
        }
      ]
    }
  ],
  "accessors": [
    {
      "bufferView": 0,
      "componentType": 5126,
      "count": 4880,
      "type": "VEC3",
      "min": [
        -793.4986830658694,
        -40.00000000000022,
        -967.5530105484956
      ],
      "max": [
        1041.3991070097552,
        276.3254316834287,
        906.0074588160498
      ]
    },
    {
      "bufferView": 1,
      "componentType": 5126,
      "count": 4880,
      "type": "VEC3",
      "min": [
        -1.0,
        -1.0,
        -1.0
      ],
      "max": [
        1.0,
        1.0,
        1.0
      ]
    },
    {
      "bufferView": 2,
      "componentType": 5123,
      "count": 12336,
      "type": "SCALAR"
    },
    {
      "bufferView": 2,
      "componentType": 5123,
      "count": 906,
      "type": "SCALAR",
      "byteOffset": 24672
    },
    {
      "bufferView": 2,
      "componentType": 5123,
      "count": 6,
      "type": "SCALAR",
      "byteOffset": 26484
    }
  ],
  "bufferViews": [
    {
      "buffer": 0,
      "byteLength": 58560,
      "target": 34962,
      "byteStride": 12
    },
    {
      "buffer": 0,
      "byteOffset": 58560,
      "byteLength": 58560,
      "target": 34962,
      "byteStride": 12
    },
    {
      "buffer": 0,
      "byteOffset": 117120,
      "byteLength": 26496,
      "target": 34963
    }
  ],
  "buffers": [
    {
      "uri": "data:application/octet-stream;base64,",
      "byteLength": 143616
    }
  ]
}