{
  "asset": {
    "version": "2.0",
    "generator": "Sketchup glTF Exporter v1.2.6 by Centaur"
  },
  "scene": 0,
  "scenes": [
    {
      "nodes": [
        0
      ]
    }
  ],
  "samplers": [
    {
    }
  ],
  "nodes": [
    {
      "name": "root",
      "children": [
        1,
        2,
        11
      ]
    },
    {
    },
    {
      "children": [
        3,
        10
      ]
    },
    {
      "children": [
        4,
        5,
        6,
        7,
        8,
        9
      ]
    },
    {
      "name": "200#5",
      "mesh": 0
    },
    {
      "name": "250#2",
      "mesh": 1
    },
    {
      "name": "150#2",
      "mesh": 2
    },
    {
      "name": "50#1",
      "mesh": 3
    },
    {
      "name": "0",
      "mesh": 4
    },
    {
      "name": "100",
      "mesh": 5
    },
    {
      "name": "-50",
      "mesh": 6
    },
    {
      "mesh": 7
    }
  ],
  "materials": [
    {
      "pbrMetallicRoughness": {
        "baseColorFactor": [
          1.0,
          0.0461,
          0.0,
          1.0
        ],
        "metallicFactor": 0.1,
        "roughnessFactor": 0.9
      },
      "name": "Color B05",
      "doubleSided": true
    },
    {
      "pbrMetallicRoughness": {
        "baseColorFactor": [
          1.0,
          1.0,
          1.0,
          0.35
        ],
        "metallicFactor": 0.1,
        "roughnessFactor": 0.9
      },
      "name": "Color A05",
      "doubleSided": true,
      "alphaMode": "BLEND"
    }
  ],
  "meshes": [
    {
      "primitives": [
        {
          "attributes": {
            "POSITION": 0,
            "NORMAL": 1
          },
          "indices": 2,
          "mode": 4,
          "material": 0
        }
      ]
    },
    {
      "primitives": [
        {
          "attributes": {
            "POSITION": 0,
            "NORMAL": 1
          },
          "indices": 3,
          "mode": 4,
          "material": 0
        }
      ]
    },
    {
      "primitives": [
        {
          "attributes": {
            "POSITION": 0,
            "NORMAL": 1
          },
          "indices": 4,
          "mode": 4,
          "material": 0
        }
      ]
    },
    {
      "primitives": [
        {
          "attributes": {
            "POSITION": 0,
            "NORMAL": 1
          },
          "indices": 5,
          "mode": 4,
          "material": 0
        }
      ]
    },
    {
      "primitives": [
        {
          "attributes": {
            "POSITION": 0,
            "NORMAL": 1
          },
          "indices": 6,
          "mode": 4,
          "material": 0
        }
      ]
    },
    {
      "primitives": [
        {
          "attributes": {
            "POSITION": 0,
            "NORMAL": 1
          },
          "indices": 7,
          "mode": 4,
          "material": 0
        }
      ]
    },
    {
      "primitives": [
        {
          "attributes": {
            "POSITION": 0,
            "NORMAL": 1
          },
          "indices": 8,
          "mode": 4,
          "material": 0
        }
      ]
    },
    {
      "primitives": [
        {
          "attributes": {
            "POSITION": 0,
            "NORMAL": 1
          },
          "indices": 9,
          "mode": 4,
          "material": 1
        }
      ]
    }
  ],
  "accessors": [
    {
      "bufferView": 0,
      "componentType": 5126,
      "count": 3912,
      "type": "VEC3",
      "min": [
        -993.5505280373752,
        -311.20000000000005,
        -988.8295583919033
      ],
      "max": [
        1000.6724843571612,
        23.138097619357318,
        1004.5245269560802
      ]
    },
    {
      "bufferView": 1,
      "componentType": 5126,
      "count": 3912,
      "type": "VEC3",
      "min": [
        -0.9999323518846744,
        -1.0,
        -0.9981796672009532
      ],
      "max": [
        0.9999119620544554,
        0.9878476858292111,
        0.99777800017237
      ]
    },
    {
      "bufferView": 2,
      "componentType": 5123,
      "count": 2100,
      "type": "SCALAR"
    },
    {
      "bufferView": 2,
      "componentType": 5123,
      "count": 2016,
      "type": "SCALAR",
      "byteOffset": 4200
    },
    {
      "bufferView": 2,
      "componentType": 5123,
      "count": 1584,
      "type": "SCALAR",
      "byteOffset": 8232
    },
    {
      "bufferView": 2,
      "componentType": 5123,
      "count": 1452,
      "type": "SCALAR",
      "byteOffset": 11400
    },
    {
      "bufferView": 2,
      "componentType": 5123,
      "count": 768,
      "type": "SCALAR",
      "byteOffset": 14304
    },
    {
      "bufferView": 2,
      "componentType": 5123,
      "count": 1668,
      "type": "SCALAR",
      "byteOffset": 15840
    },
    {
      "bufferView": 2,
      "componentType": 5123,
      "count": 1488,
      "type": "SCALAR",
      "byteOffset": 19176
    },
    {
      "bufferView": 2,
      "componentType": 5123,
      "count": 78,
      "type": "SCALAR",
      "byteOffset": 22152
    }
  ],
  "bufferViews": [
    {
      "buffer": 0,
      "byteLength": 46944,
      "target": 34962,
      "byteStride": 12
    },
    {
      "buffer": 0,
      "byteOffset": 46944,
      "byteLength": 46944,
      "target": 34962,
      "byteStride": 12
    },
    {
      "buffer": 0,
      "byteOffset": 93888,
      "byteLength": 22308,
      "target": 34963
    }
  ],
  "buffers": [
    {
      "uri": "data:application/octet-stream;base64,",
      "byteLength": 116196
    }
  ]
}