{
  "asset": {
    "version": "2.0",
    "generator": "Sketchup glTF Exporter v1.2.6 by Centaur"
  },
  "scene": 0,
  "scenes": [
    {
      "nodes": [
        0
      ]
    }
  ],
  "samplers": [
    {
    }
  ],
  "nodes": [
    {
      "name": "root",
      "children": [
        1
      ],
      "mesh": 0
    },
    {
    }
  ],
  "materials": [
    {
      "pbrMetallicRoughness": {
        "baseColorTexture": {
          "index": 0
        },
        "metallicFactor": 0.1,
        "roughnessFactor": 0.9
      },
      "name": "Location Snapshot#1"
    },
    {
      "pbrMetallicRoughness": {
        "baseColorFactor": [
          1.0,
          0.0461,
          0.0,
          1.0
        ],
        "metallicFactor": 0.1,
        "roughnessFactor": 0.9
      },
      "name": "Cor B05",
      "doubleSided": true
    }
  ],
  "images": [
    {
      "bufferView": 0,
      "mimeType": "image/jpeg"
    }
  ],
  "textures": [
    {
      "source": 0,
      "sampler": 0
    }
  ],
  "meshes": [
    {
      "primitives": [
        {
          "attributes": {
            "POSITION": 2,
            "NORMAL": 3,
            "TEXCOORD_0": 4
          },
          "indices": 5,
          "mode": 4,
          "material": 0
        },
        {
          "attributes": {
            "POSITION": 0,
            "NORMAL": 1
          },
          "indices": 6,
          "mode": 4,
          "material": 1
        }
      ]
    }
  ],
  "accessors": [
    {
      "bufferView": 1,
      "componentType": 5126,
      "count": 3860,
      "type": "VEC3",
      "min": [
        110.37344142578685,
        -303.5533405939112,
        -966.1133349257068
      ],
      "max": [
        900.6405572177271,
        23.13809761935728,
        889.5554162191773
      ]
    },
    {
      "bufferView": 2,
      "componentType": 5126,
      "count": 3860,
      "type": "VEC3",
      "min": [
        -0.9999323518846744,
        -0.9878476858292111,
        -0.998179667200953
      ],
      "max": [
        0.9999119620544554,
        0.9878476858292111,
        0.9977780001723698
      ]
    },
    {
      "bufferView": 3,
      "componentType": 5126,
      "count": 6464,
      "type": "VEC3",
      "min": [
        -999.3591723598659,
        -331.35053135343014,
        -995.969981147908
      ],
      "max": [
        999.2120909258377,
        12.854161520135458,
        995.9719748059291
      ]
    },
    {
      "bufferView": 4,
      "componentType": 5126,
      "count": 6464,
      "type": "VEC3",
      "min": [
        -0.809487166689658,
        0.5727338295964263,
        -0.706885100337134
      ],
      "max": [
        0.6402008433333525,
        0.999949018334223,
        0.6337348224827295
      ]
    },
    {
      "bufferView": 5,
      "componentType": 5126,
      "count": 6464,
      "type": "VEC2",
      "min": [
        0.18592388166955154,
        0.17806601428597046
      ],
      "max": [
        0.9078789892880594,
        0.9015788879086953
      ]
    },
    {
      "bufferView": 7,
      "componentType": 5123,
      "count": 26436,
      "type": "SCALAR"
    },
    {
      "bufferView": 6,
      "componentType": 5123,
      "count": 11076,
      "type": "SCALAR"
    }
  ],
  "bufferViews": [
    {
      "buffer": 0,
      "byteLength": 333400
    },
    {
      "buffer": 0,
      "byteOffset": 333408,
      "byteLength": 46320,
      "target": 34962,
      "byteStride": 12
    },
    {
      "buffer": 0,
      "byteOffset": 379728,
      "byteLength": 46320,
      "target": 34962,
      "byteStride": 12
    },
    {
      "buffer": 0,
      "byteOffset": 426048,
      "byteLength": 77568,
      "target": 34962,
      "byteStride": 12
    },
    {
      "buffer": 0,
      "byteOffset": 503616,
      "byteLength": 77568,
      "target": 34962,
      "byteStride": 12
    },
    {
      "buffer": 0,
      "byteOffset": 581184,
      "byteLength": 51712,
      "target": 34962,
      "byteStride": 8
    },
    {
      "buffer": 0,
      "byteOffset": 632896,
      "byteLength": 22152,
      "target": 34963
    },
    {
      "buffer": 0,
      "byteOffset": 655048,
      "byteLength": 52872,
      "target": 34963
    }
  ],
  "buffers": [
    {
      "uri": "data:application/octet-stream;base64,",
      "byteLength": 707920
    }
  ]
}