{
  "asset": {
    "version": "2.0",
    "generator": "Sketchup glTF Exporter v1.2.6 by Centaur"
  },
  "scene": 0,
  "scenes": [
    {
      "nodes": [
        0
      ]
    }
  ],
  "samplers": [
    {
    }
  ],
  "nodes": [
    {
      "name": "root",
      "children": [
        1
      ],
      "mesh": 0
    },
    {
    }
  ],
  "materials": [
    {
      "pbrMetallicRoughness": {
        "baseColorFactor": [
          0.2176,
          0.2176,
          0.2176,
          1.0
        ],
        "metallicFactor": 0.1,
        "roughnessFactor": 0.9
      },
      "name": "default material",
      "doubleSided": true
    },
    {
      "pbrMetallicRoughness": {
        "baseColorTexture": {
          "index": 0
        },
        "metallicFactor": 0.1,
        "roughnessFactor": 0.9
      },
      "name": "Location Snapshot#1"
    },
    {
      "pbrMetallicRoughness": {
        "baseColorFactor": [
          1.0,
          0.0461,
          0.0,
          1.0
        ],
        "metallicFactor": 0.1,
        "roughnessFactor": 0.9
      },
      "name": "Cor B05",
      "doubleSided": true
    },
    {
      "pbrMetallicRoughness": {
        "baseColorFactor": [
          1.0,
          1.0,
          0.0,
          0.4
        ],
        "metallicFactor": 0.1,
        "roughnessFactor": 0.9
      },
      "name": "Cor E05",
      "doubleSided": true,
      "alphaMode": "BLEND"
    }
  ],
  "images": [
    {
      "bufferView": 0,
      "mimeType": "image/jpeg"
    }
  ],
  "textures": [
    {
      "source": 0,
      "sampler": 0
    }
  ],
  "meshes": [
    {
      "primitives": [
        {
          "attributes": {
            "POSITION": 0,
            "NORMAL": 1
          },
          "indices": 5,
          "mode": 4,
          "material": 0
        },
        {
          "attributes": {
            "POSITION": 2,
            "NORMAL": 3,
            "TEXCOORD_0": 4
          },
          "indices": 6,
          "mode": 4,
          "material": 1
        },
        {
          "attributes": {
            "POSITION": 0,
            "NORMAL": 1
          },
          "indices": 7,
          "mode": 4,
          "material": 2
        },
        {
          "attributes": {
            "POSITION": 0,
            "NORMAL": 1
          },
          "indices": 8,
          "mode": 4,
          "material": 3
        }
      ]
    }
  ],
  "accessors": [
    {
      "bufferView": 1,
      "componentType": 5126,
      "count": 17107,
      "type": "VEC3",
      "min": [
        -1028.5899723206046,
        -185.06828349900502,
        -1080.959915060656
      ],
      "max": [
        881.8696887601234,
        459.05191509918404,
        1161.7365668089165
      ]
    },
    {
      "bufferView": 2,
      "componentType": 5126,
      "count": 17107,
      "type": "VEC3",
      "min": [
        -1.0,
        -1.0,
        -1.0
      ],
      "max": [
        1.0,
        1.0,
        1.0
      ]
    },
    {
      "bufferView": 3,
      "componentType": 5126,
      "count": 11762,
      "type": "VEC3",
      "min": [
        -1011.9543769010352,
        -207.01045430166627,
        -984.2038193875931
      ],
      "max": [
        1012.119831184741,
        460.555200008527,
        984.2142860665924
      ]
    },
    {
      "bufferView": 4,
      "componentType": 5126,
      "count": 11762,
      "type": "VEC3",
      "min": [
        -0.5058687281996382,
        0.4436255741208386,
        -0.8777651676622714
      ],
      "max": [
        0.6954064711804913,
        0.9996274236176119,
        0.774729670196983
      ]
    },
    {
      "bufferView": 5,
      "componentType": 5126,
      "count": 11762,
      "type": "VEC2",
      "min": [
        0.10936557424260679,
        0.03701308986030494
      ],
      "max": [
        0.8531985215105056,
        0.9453219372306503
      ]
    },
    {
      "bufferView": 6,
      "componentType": 5123,
      "count": 12,
      "type": "SCALAR"
    },
    {
      "bufferView": 7,
      "componentType": 5123,
      "count": 41700,
      "type": "SCALAR"
    },
    {
      "bufferView": 6,
      "componentType": 5123,
      "count": 46596,
      "type": "SCALAR",
      "byteOffset": 24
    },
    {
      "bufferView": 6,
      "componentType": 5123,
      "count": 2757,
      "type": "SCALAR",
      "byteOffset": 93216
    }
  ],
  "bufferViews": [
    {
      "buffer": 0,
      "byteLength": 265269
    },
    {
      "buffer": 0,
      "byteOffset": 265272,
      "byteLength": 205284,
      "target": 34962,
      "byteStride": 12
    },
    {
      "buffer": 0,
      "byteOffset": 470556,
      "byteLength": 205284,
      "target": 34962,
      "byteStride": 12
    },
    {
      "buffer": 0,
      "byteOffset": 675840,
      "byteLength": 141144,
      "target": 34962,
      "byteStride": 12
    },
    {
      "buffer": 0,
      "byteOffset": 816984,
      "byteLength": 141144,
      "target": 34962,
      "byteStride": 12
    },
    {
      "buffer": 0,
      "byteOffset": 958128,
      "byteLength": 94096,
      "target": 34962,
      "byteStride": 8
    },
    {
      "buffer": 0,
      "byteOffset": 1052224,
      "byteLength": 98730,
      "target": 34963
    },
    {
      "buffer": 0,
      "byteOffset": 1150954,
      "byteLength": 83400,
      "target": 34963
    }
  ],
  "buffers": [
    {
      "uri": "data:application/octet-stream;base64,",
      "byteLength": 1234354
    }
  ]
}