{
  "asset": {
    "version": "2.0",
    "generator": "Sketchup glTF Exporter v1.2.6 by Centaur"
  },
  "scene": 0,
  "scenes": [
    {
      "nodes": [
        0
      ]
    }
  ],
  "samplers": [
    {
    }
  ],
  "nodes": [
    {
      "name": "root",
      "children": [
        1,
        2,
        3
      ],
      "mesh": 3
    },
    {
    },
    {
      "mesh": 0
    },
    {
      "children": [
        4,
        5
      ]
    },
    {
      "mesh": 1
    },
    {
      "mesh": 2
    }
  ],
  "materials": [
    {
      "pbrMetallicRoughness": {
        "baseColorFactor": [
          1.0,
          0.0461,
          0.0,
          1.0
        ],
        "metallicFactor": 0.1,
        "roughnessFactor": 0.9
      },
      "name": "Color B05",
      "doubleSided": true
    },
    {
      "pbrMetallicRoughness": {
        "baseColorFactor": [
          1.0,
          1.0,
          0.0,
          0.4
        ],
        "metallicFactor": 0.1,
        "roughnessFactor": 0.9
      },
      "name": "Color E05",
      "doubleSided": true,
      "alphaMode": "BLEND"
    },
    {
      "pbrMetallicRoughness": {
        "baseColorTexture": {
          "index": 0
        },
        "metallicFactor": 0.1,
        "roughnessFactor": 0.9
      },
      "name": "Location Snapshot"
    }
  ],
  "images": [
    {
      "bufferView": 0,
      "mimeType": "image/jpeg"
    }
  ],
  "textures": [
    {
      "source": 0,
      "sampler": 0
    }
  ],
  "meshes": [
    {
      "primitives": [
        {
          "attributes": {
            "POSITION": 0,
            "NORMAL": 1
          },
          "indices": 5,
          "mode": 4,
          "material": 0
        }
      ]
    },
    {
      "primitives": [
        {
          "attributes": {
            "POSITION": 0,
            "NORMAL": 1
          },
          "indices": 6,
          "mode": 4,
          "material": 1
        }
      ]
    },
    {
      "primitives": [
        {
          "attributes": {
            "POSITION": 0,
            "NORMAL": 1
          },
          "indices": 7,
          "mode": 4,
          "material": 0
        }
      ]
    },
    {
      "primitives": [
        {
          "attributes": {
            "POSITION": 2,
            "NORMAL": 3,
            "TEXCOORD_0": 4
          },
          "indices": 8,
          "mode": 4,
          "material": 2
        }
      ]
    }
  ],
  "accessors": [
    {
      "bufferView": 1,
      "componentType": 5126,
      "count": 16810,
      "type": "VEC3",
      "min": [
        -967.3717014515295,
        -185.068283499005,
        -1078.7899150606563
      ],
      "max": [
        881.8696887601234,
        440.1204667241192,
        1161.7365668089165
      ]
    },
    {
      "bufferView": 2,
      "componentType": 5126,
      "count": 16810,
      "type": "VEC3",
      "min": [
        -1.0,
        -1.0,
        -1.0
      ],
      "max": [
        1.0,
        1.0,
        1.0
      ]
    },
    {
      "bufferView": 3,
      "componentType": 5126,
      "count": 11382,
      "type": "VEC3",
      "min": [
        -1011.9543769010352,
        -207.48169407426897,
        -984.2038193875931
      ],
      "max": [
        1012.119831184741,
        461.4304594613107,
        984.2142860665924
      ]
    },
    {
      "bufferView": 4,
      "componentType": 5126,
      "count": 11382,
      "type": "VEC3",
      "min": [
        -0.5629917092261058,
        0.3895433455415284,
        -0.8908961088496085
      ],
      "max": [
        0.7182512303710775,
        0.9998680538939132,
        0.7859154499511851
      ]
    },
    {
      "bufferView": 5,
      "componentType": 5126,
      "count": 11382,
      "type": "VEC2",
      "min": [
        -3.3306690738754696e-16,
        -0.000104617827982878
      ],
      "max": [
        1.0000861790601916,
        1.0
      ]
    },
    {
      "bufferView": 6,
      "componentType": 5123,
      "count": 37536,
      "type": "SCALAR"
    },
    {
      "bufferView": 6,
      "componentType": 5123,
      "count": 2544,
      "type": "SCALAR",
      "byteOffset": 75072
    },
    {
      "bufferView": 6,
      "componentType": 5123,
      "count": 8664,
      "type": "SCALAR",
      "byteOffset": 80160
    },
    {
      "bufferView": 7,
      "componentType": 5123,
      "count": 41082,
      "type": "SCALAR"
    }
  ],
  "bufferViews": [
    {
      "buffer": 0,
      "byteLength": 46362
    },
    {
      "buffer": 0,
      "byteOffset": 46368,
      "byteLength": 201720,
      "target": 34962,
      "byteStride": 12
    },
    {
      "buffer": 0,
      "byteOffset": 248088,
      "byteLength": 201720,
      "target": 34962,
      "byteStride": 12
    },
    {
      "buffer": 0,
      "byteOffset": 449808,
      "byteLength": 136584,
      "target": 34962,
      "byteStride": 12
    },
    {
      "buffer": 0,
      "byteOffset": 586392,
      "byteLength": 136584,
      "target": 34962,
      "byteStride": 12
    },
    {
      "buffer": 0,
      "byteOffset": 722976,
      "byteLength": 91056,
      "target": 34962,
      "byteStride": 8
    },
    {
      "buffer": 0,
      "byteOffset": 814032,
      "byteLength": 97488,
      "target": 34963
    },
    {
      "buffer": 0,
      "byteOffset": 911520,
      "byteLength": 82164,
      "target": 34963
    }
  ],
  "buffers": [
    {
      "uri": "data:application/octet-stream;base64,",
      "byteLength": 993684
    }
  ]
}