{
  "asset": {
    "version": "2.0",
    "generator": "Sketchup glTF Exporter v1.2.6 by Centaur"
  },
  "scene": 0,
  "scenes": [
    {
      "nodes": [
        0
      ]
    }
  ],
  "samplers": [
    {
    }
  ],
  "nodes": [
    {
      "name": "root",
      "children": [
        1,
        2
      ]
    },
    {
    },
    {
      "mesh": 0
    }
  ],
  "materials": [
    {
      "pbrMetallicRoughness": {
        "baseColorFactor": [
          1.0,
          0.0,
          0.0,
          1.0
        ],
        "metallicFactor": 0.1,
        "roughnessFactor": 0.9
      },
      "name": "Color A05",
      "doubleSided": true
    }
  ],
  "meshes": [
    {
      "primitives": [
        {
          "attributes": {
            "POSITION": 0,
            "NORMAL": 1
          },
          "indices": 2,
          "mode": 4,
          "material": 0
        }
      ]
    }
  ],
  "accessors": [
    {
      "bufferView": 0,
      "componentType": 5126,
      "count": 3414,
      "type": "VEC3",
      "min": [
        22.29030547140519,
        26.000000000000004,
        -209.10416071254792
      ],
      "max": [
        252.85275538329566,
        257.99311225337755,
        715.2313420288713
      ]
    },
    {
      "bufferView": 1,
      "componentType": 5126,
      "count": 3414,
      "type": "VEC3",
      "min": [
        -0.9924981157633127,
        -0.9253668272636886,
        -0.9563393864858605
      ],
      "max": [
        0.9930901171500798,
        0.9253668272636887,
        0.9563205377710776
      ]
    },
    {
      "bufferView": 2,
      "componentType": 5123,
      "count": 9804,
      "type": "SCALAR"
    }
  ],
  "bufferViews": [
    {
      "buffer": 0,
      "byteLength": 40968,
      "target": 34962,
      "byteStride": 12
    },
    {
      "buffer": 0,
      "byteOffset": 40968,
      "byteLength": 40968,
      "target": 34962,
      "byteStride": 12
    },
    {
      "buffer": 0,
      "byteOffset": 81936,
      "byteLength": 19608,
      "target": 34963
    }
  ],
  "buffers": [
    {
      "uri": "data:application/octet-stream;base64,",
      "byteLength": 101544
    }
  ]
}