{
  "asset": {
    "version": "2.0",
    "generator": "Sketchup glTF Exporter v1.2.6 by Centaur"
  },
  "scene": 0,
  "scenes": [
    {
      "nodes": [
        0
      ]
    }
  ],
  "samplers": [
    {
    }
  ],
  "nodes": [
    {
      "name": "root",
      "children": [
        1
      ],
      "mesh": 0
    },
    {
    }
  ],
  "materials": [
    {
      "pbrMetallicRoughness": {
        "baseColorTexture": {
          "index": 0
        },
        "metallicFactor": 0.1,
        "roughnessFactor": 0.9
      },
      "name": "Location Snapshot#1"
    },
    {
      "pbrMetallicRoughness": {
        "baseColorFactor": [
          0.2176,
          0.2176,
          0.2176,
          1.0
        ],
        "metallicFactor": 0.1,
        "roughnessFactor": 0.9
      },
      "name": "default material",
      "doubleSided": true
    },
    {
      "pbrMetallicRoughness": {
        "baseColorFactor": [
          1.0,
          0.0,
          0.0,
          1.0
        ],
        "metallicFactor": 0.1,
        "roughnessFactor": 0.9
      },
      "name": "Cor A05",
      "doubleSided": true
    }
  ],
  "images": [
    {
      "bufferView": 0,
      "mimeType": "image/jpeg"
    }
  ],
  "textures": [
    {
      "source": 0,
      "sampler": 0
    }
  ],
  "meshes": [
    {
      "primitives": [
        {
          "attributes": {
            "POSITION": 2,
            "NORMAL": 3,
            "TEXCOORD_0": 4
          },
          "indices": 5,
          "mode": 4,
          "material": 0
        },
        {
          "attributes": {
            "POSITION": 0,
            "NORMAL": 1
          },
          "indices": 6,
          "mode": 4,
          "material": 1
        },
        {
          "attributes": {
            "POSITION": 0,
            "NORMAL": 1
          },
          "indices": 7,
          "mode": 4,
          "material": 2
        }
      ]
    }
  ],
  "accessors": [
    {
      "bufferView": 1,
      "componentType": 5126,
      "count": 3430,
      "type": "VEC3",
      "min": [
        22.29030547140519,
        -0.03700268158592669,
        -209.10416071254792
      ],
      "max": [
        459.9450319475145,
        257.99311225337755,
        715.2313420288713
      ]
    },
    {
      "bufferView": 2,
      "componentType": 5126,
      "count": 3430,
      "type": "VEC3",
      "min": [
        -1.0,
        -0.9253668272636886,
        -0.9563393864858605
      ],
      "max": [
        0.9930901171500798,
        0.9253668272636887,
        0.9563205377710776
      ]
    },
    {
      "bufferView": 3,
      "componentType": 5126,
      "count": 3499,
      "type": "VEC3",
      "min": [
        -459.33365324493843,
        -13.004677328635776,
        -720.1983029714278
      ],
      "max": [
        459.94503194751474,
        238.37106269998054,
        755.4860955953765
      ]
    },
    {
      "bufferView": 4,
      "componentType": 5126,
      "count": 3499,
      "type": "VEC3",
      "min": [
        -0.5091836834326408,
        0.7226868792319285,
        -0.44195970803732415
      ],
      "max": [
        0.6352251474545093,
        0.9999872007651007,
        0.4037212184768685
      ]
    },
    {
      "bufferView": 5,
      "componentType": 5126,
      "count": 3499,
      "type": "VEC2",
      "min": [
        0.17837374187729113,
        0.09499356625659727
      ],
      "max": [
        0.46448589199153456,
        0.5567789907340044
      ]
    },
    {
      "bufferView": 7,
      "componentType": 5123,
      "count": 12846,
      "type": "SCALAR"
    },
    {
      "bufferView": 6,
      "componentType": 5123,
      "count": 24,
      "type": "SCALAR"
    },
    {
      "bufferView": 6,
      "componentType": 5123,
      "count": 9804,
      "type": "SCALAR",
      "byteOffset": 48
    }
  ],
  "bufferViews": [
    {
      "buffer": 0,
      "byteLength": 146869
    },
    {
      "buffer": 0,
      "byteOffset": 146880,
      "byteLength": 41160,
      "target": 34962,
      "byteStride": 12
    },
    {
      "buffer": 0,
      "byteOffset": 188040,
      "byteLength": 41160,
      "target": 34962,
      "byteStride": 12
    },
    {
      "buffer": 0,
      "byteOffset": 229200,
      "byteLength": 41988,
      "target": 34962,
      "byteStride": 12
    },
    {
      "buffer": 0,
      "byteOffset": 271188,
      "byteLength": 41988,
      "target": 34962,
      "byteStride": 12
    },
    {
      "buffer": 0,
      "byteOffset": 313176,
      "byteLength": 27992,
      "target": 34962,
      "byteStride": 8
    },
    {
      "buffer": 0,
      "byteOffset": 341168,
      "byteLength": 19656,
      "target": 34963
    },
    {
      "buffer": 0,
      "byteOffset": 360824,
      "byteLength": 25692,
      "target": 34963
    }
  ],
  "buffers": [
    {
      "uri": "data:application/octet-stream;base64,",
      "byteLength": 386516
    }
  ]
}