{
  "asset": {
    "version": "2.0",
    "generator": "Sketchup glTF Exporter v1.2.6 by Centaur"
  },
  "scene": 0,
  "scenes": [
    {
      "nodes": [
        0
      ]
    }
  ],
  "samplers": [
    {
    }
  ],
  "nodes": [
    {
      "name": "root",
      "children": [
        1
      ],
      "mesh": 0
    },
    {
      "children": [
        2
      ]
    },
    {
    }
  ],
  "materials": [
    {
      "pbrMetallicRoughness": {
        "baseColorTexture": {
          "index": 0
        },
        "metallicFactor": 0.1,
        "roughnessFactor": 0.9
      },
      "name": "Location Snapshot#2"
    },
    {
      "pbrMetallicRoughness": {
        "baseColorFactor": [
          1.0,
          0.0,
          0.0,
          0.47
        ],
        "metallicFactor": 0.1,
        "roughnessFactor": 0.9
      },
      "name": "Cor A05",
      "doubleSided": true,
      "alphaMode": "BLEND"
    },
    {
      "pbrMetallicRoughness": {
        "baseColorFactor": [
          1.0,
          0.0,
          0.0,
          1.0
        ],
        "metallicFactor": 0.1,
        "roughnessFactor": 0.9
      },
      "name": "[Color A05]1",
      "doubleSided": true
    }
  ],
  "images": [
    {
      "bufferView": 0,
      "mimeType": "image/jpeg"
    }
  ],
  "textures": [
    {
      "source": 0,
      "sampler": 0
    }
  ],
  "meshes": [
    {
      "primitives": [
        {
          "attributes": {
            "POSITION": 2,
            "NORMAL": 3,
            "TEXCOORD_0": 4
          },
          "indices": 5,
          "mode": 4,
          "material": 0
        },
        {
          "attributes": {
            "POSITION": 0,
            "NORMAL": 1
          },
          "indices": 6,
          "mode": 4,
          "material": 1
        },
        {
          "attributes": {
            "POSITION": 0,
            "NORMAL": 1
          },
          "indices": 7,
          "mode": 4,
          "material": 2
        }
      ]
    }
  ],
  "accessors": [
    {
      "bufferView": 1,
      "componentType": 5126,
      "count": 6723,
      "type": "VEC3",
      "min": [
        -997.1262251475695,
        -225.2880353590317,
        -126.58000000000028
      ],
      "max": [
        995.3396765780299,
        180.47572464096845,
        853.8137053081844
      ]
    },
    {
      "bufferView": 2,
      "componentType": 5126,
      "count": 6723,
      "type": "VEC3",
      "min": [
        -0.9998912254086473,
        -0.997800414853456,
        -0.9979093809206533
      ],
      "max": [
        0.9998914760859948,
        0.997800414853456,
        1.0
      ]
    },
    {
      "bufferView": 3,
      "componentType": 5126,
      "count": 9387,
      "type": "VEC3",
      "min": [
        -1006.7718366727939,
        -128.5948534380131,
        -977.0046682236724
      ],
      "max": [
        1006.9705244571676,
        78.00774023899451,
        972.8525713430724
      ]
    },
    {
      "bufferView": 4,
      "componentType": 5126,
      "count": 9387,
      "type": "VEC3",
      "min": [
        -0.6324248986541163,
        0.6878196796623242,
        -0.6529236276194554
      ],
      "max": [
        0.7255601447005917,
        0.9999955516780271,
        0.5836183797616044
      ]
    },
    {
      "bufferView": 5,
      "componentType": 5126,
      "count": 9387,
      "type": "VEC2",
      "min": [
        0.03320027684634708,
        0.08975449773642341
      ],
      "max": [
        0.9668801553294823,
        0.9980472233809621
      ]
    },
    {
      "bufferView": 7,
      "componentType": 5123,
      "count": 35118,
      "type": "SCALAR"
    },
    {
      "bufferView": 6,
      "componentType": 5123,
      "count": 9,
      "type": "SCALAR"
    },
    {
      "bufferView": 6,
      "componentType": 5123,
      "count": 19380,
      "type": "SCALAR",
      "byteOffset": 18
    }
  ],
  "bufferViews": [
    {
      "buffer": 0,
      "byteLength": 233090
    },
    {
      "buffer": 0,
      "byteOffset": 233100,
      "byteLength": 80676,
      "target": 34962,
      "byteStride": 12
    },
    {
      "buffer": 0,
      "byteOffset": 313776,
      "byteLength": 80676,
      "target": 34962,
      "byteStride": 12
    },
    {
      "buffer": 0,
      "byteOffset": 394452,
      "byteLength": 112644,
      "target": 34962,
      "byteStride": 12
    },
    {
      "buffer": 0,
      "byteOffset": 507096,
      "byteLength": 112644,
      "target": 34962,
      "byteStride": 12
    },
    {
      "buffer": 0,
      "byteOffset": 619744,
      "byteLength": 75096,
      "target": 34962,
      "byteStride": 8
    },
    {
      "buffer": 0,
      "byteOffset": 694840,
      "byteLength": 38778,
      "target": 34963
    },
    {
      "buffer": 0,
      "byteOffset": 733618,
      "byteLength": 70236,
      "target": 34963
    }
  ],
  "buffers": [
    {
      "uri": "data:application/octet-stream;base64,",
      "byteLength": 803854
    }
  ]
}