{
  "asset": {
    "version": "2.0",
    "generator": "Sketchup glTF Exporter v1.2.6 by Centaur"
  },
  "scene": 0,
  "scenes": [
    {
      "nodes": [
        0
      ]
    }
  ],
  "samplers": [
    {
    }
  ],
  "nodes": [
    {
      "name": "root",
      "children": [
        1
      ],
      "mesh": 0
    },
    {
    }
  ],
  "materials": [
    {
      "pbrMetallicRoughness": {
        "baseColorTexture": {
          "index": 0
        },
        "metallicFactor": 0.1,
        "roughnessFactor": 0.9
      },
      "name": "Location Snapshot#2"
    },
    {
      "pbrMetallicRoughness": {
        "baseColorFactor": [
          1.0,
          0.0,
          0.0,
          1.0
        ],
        "metallicFactor": 0.1,
        "roughnessFactor": 0.9
      },
      "name": "Cor A05",
      "doubleSided": true
    }
  ],
  "images": [
    {
      "bufferView": 0,
      "mimeType": "image/jpeg"
    }
  ],
  "textures": [
    {
      "source": 0,
      "sampler": 0
    }
  ],
  "meshes": [
    {
      "primitives": [
        {
          "attributes": {
            "POSITION": 2,
            "NORMAL": 3,
            "TEXCOORD_0": 4
          },
          "indices": 5,
          "mode": 4,
          "material": 0
        },
        {
          "attributes": {
            "POSITION": 0,
            "NORMAL": 1
          },
          "indices": 6,
          "mode": 4,
          "material": 1
        }
      ]
    }
  ],
  "accessors": [
    {
      "bufferView": 1,
      "componentType": 5126,
      "count": 3414,
      "type": "VEC3",
      "min": [
        22.29030547140519,
        26.000000000000004,
        -209.10416071254792
      ],
      "max": [
        252.85275538329566,
        257.99311225337755,
        715.2313420288713
      ]
    },
    {
      "bufferView": 2,
      "componentType": 5126,
      "count": 3414,
      "type": "VEC3",
      "min": [
        -0.9924981157633127,
        -0.9253668272636886,
        -0.9563393864858605
      ],
      "max": [
        0.9930901171500798,
        0.9253668272636887,
        0.9563205377710776
      ]
    },
    {
      "bufferView": 3,
      "componentType": 5126,
      "count": 3516,
      "type": "VEC3",
      "min": [
        -457.46778534193714,
        -13.004677328636074,
        -724.3892266535047
      ],
      "max": [
        459.9450319475149,
        238.37106269998023,
        760.5729215685171
      ]
    },
    {
      "bufferView": 4,
      "componentType": 5126,
      "count": 3516,
      "type": "VEC3",
      "min": [
        -0.5091836834326426,
        0.7226868792319341,
        -0.4419597080373216
      ],
      "max": [
        0.6352251474545092,
        0.9999872007651007,
        0.4037212184768683
      ]
    },
    {
      "bufferView": 5,
      "componentType": 5126,
      "count": 3516,
      "type": "VEC2",
      "min": [
        0.01757727358775496,
        0.11400192874027726
      ],
      "max": [
        0.4458739328342102,
        0.6715894226136445
      ]
    },
    {
      "bufferView": 7,
      "componentType": 5123,
      "count": 12936,
      "type": "SCALAR"
    },
    {
      "bufferView": 6,
      "componentType": 5123,
      "count": 9804,
      "type": "SCALAR"
    }
  ],
  "bufferViews": [
    {
      "buffer": 0,
      "byteLength": 302284
    },
    {
      "buffer": 0,
      "byteOffset": 302292,
      "byteLength": 40968,
      "target": 34962,
      "byteStride": 12
    },
    {
      "buffer": 0,
      "byteOffset": 343260,
      "byteLength": 40968,
      "target": 34962,
      "byteStride": 12
    },
    {
      "buffer": 0,
      "byteOffset": 384228,
      "byteLength": 42192,
      "target": 34962,
      "byteStride": 12
    },
    {
      "buffer": 0,
      "byteOffset": 426420,
      "byteLength": 42192,
      "target": 34962,
      "byteStride": 12
    },
    {
      "buffer": 0,
      "byteOffset": 468616,
      "byteLength": 28128,
      "target": 34962,
      "byteStride": 8
    },
    {
      "buffer": 0,
      "byteOffset": 496744,
      "byteLength": 19608,
      "target": 34963
    },
    {
      "buffer": 0,
      "byteOffset": 516352,
      "byteLength": 25872,
      "target": 34963
    }
  ],
  "buffers": [
    {
      "uri": "data:application/octet-stream;base64,",
      "byteLength": 542224
    }
  ]
}