{
  "asset": {
    "version": "2.0",
    "generator": "Sketchup glTF Exporter v1.2.6 by Centaur"
  },
  "scene": 0,
  "scenes": [
    {
      "nodes": [
        0
      ]
    }
  ],
  "samplers": [
    {
    }
  ],
  "nodes": [
    {
      "name": "root",
      "children": [
        1,
        3,
        18
      ]
    },
    {
      "children": [
        2
      ]
    },
    {
    },
    {
      "children": [
        4
      ],
      "mesh": 13
    },
    {
      "children": [
        5,
        6,
        7,
        8,
        9,
        10,
        11,
        12,
        13,
        14,
        15,
        16,
        17
      ]
    },
    {
      "name": "120#2",
      "mesh": 0
    },
    {
      "name": "160#1",
      "mesh": 1
    },
    {
      "name": "40#1",
      "mesh": 2
    },
    {
      "name": "0",
      "mesh": 3
    },
    {
      "name": "120",
      "mesh": 4
    },
    {
      "name": "40#2",
      "mesh": 5
    },
    {
      "name": "80#2",
      "mesh": 6
    },
    {
      "name": "160",
      "mesh": 7
    },
    {
      "name": "80",
      "mesh": 8
    },
    {
      "name": "80#1",
      "mesh": 9
    },
    {
      "name": "40",
      "mesh": 10
    },
    {
      "name": "120#1",
      "mesh": 11
    },
    {
      "name": "160#2",
      "mesh": 12
    },
    {
      "children": [
        19
      ],
      "mesh": 14
    },
    {
    }
  ],
  "materials": [
    {
      "pbrMetallicRoughness": {
        "baseColorFactor": [
          1.0,
          0.0,
          0.0,
          1.0
        ],
        "metallicFactor": 0.1,
        "roughnessFactor": 0.9
      },
      "name": "[Color A05]1",
      "doubleSided": true
    },
    {
      "pbrMetallicRoughness": {
        "baseColorFactor": [
          1.0,
          0.0,
          0.0,
          0.47
        ],
        "metallicFactor": 0.1,
        "roughnessFactor": 0.9
      },
      "name": "Cor A05",
      "doubleSided": true,
      "alphaMode": "BLEND"
    },
    {
      "pbrMetallicRoughness": {
        "baseColorTexture": {
          "index": 0
        },
        "metallicFactor": 0.1,
        "roughnessFactor": 0.9
      },
      "name": "Location Snapshot#1"
    }
  ],
  "images": [
    {
      "bufferView": 0,
      "mimeType": "image/jpeg"
    }
  ],
  "textures": [
    {
      "source": 0,
      "sampler": 0
    }
  ],
  "meshes": [
    {
      "primitives": [
        {
          "attributes": {
            "POSITION": 0,
            "NORMAL": 1
          },
          "indices": 5,
          "mode": 4,
          "material": 0
        }
      ]
    },
    {
      "primitives": [
        {
          "attributes": {
            "POSITION": 0,
            "NORMAL": 1
          },
          "indices": 6,
          "mode": 4,
          "material": 0
        }
      ]
    },
    {
      "primitives": [
        {
          "attributes": {
            "POSITION": 0,
            "NORMAL": 1
          },
          "indices": 7,
          "mode": 4,
          "material": 0
        }
      ]
    },
    {
      "primitives": [
        {
          "attributes": {
            "POSITION": 0,
            "NORMAL": 1
          },
          "indices": 8,
          "mode": 4,
          "material": 0
        }
      ]
    },
    {
      "primitives": [
        {
          "attributes": {
            "POSITION": 0,
            "NORMAL": 1
          },
          "indices": 9,
          "mode": 4,
          "material": 0
        }
      ]
    },
    {
      "primitives": [
        {
          "attributes": {
            "POSITION": 0,
            "NORMAL": 1
          },
          "indices": 10,
          "mode": 4,
          "material": 0
        }
      ]
    },
    {
      "primitives": [
        {
          "attributes": {
            "POSITION": 0,
            "NORMAL": 1
          },
          "indices": 11,
          "mode": 4,
          "material": 0
        }
      ]
    },
    {
      "primitives": [
        {
          "attributes": {
            "POSITION": 0,
            "NORMAL": 1
          },
          "indices": 12,
          "mode": 4,
          "material": 0
        }
      ]
    },
    {
      "primitives": [
        {
          "attributes": {
            "POSITION": 0,
            "NORMAL": 1
          },
          "indices": 13,
          "mode": 4,
          "material": 0
        }
      ]
    },
    {
      "primitives": [
        {
          "attributes": {
            "POSITION": 0,
            "NORMAL": 1
          },
          "indices": 14,
          "mode": 4,
          "material": 0
        }
      ]
    },
    {
      "primitives": [
        {
          "attributes": {
            "POSITION": 0,
            "NORMAL": 1
          },
          "indices": 15,
          "mode": 4,
          "material": 0
        }
      ]
    },
    {
      "primitives": [
        {
          "attributes": {
            "POSITION": 0,
            "NORMAL": 1
          },
          "indices": 16,
          "mode": 4,
          "material": 0
        }
      ]
    },
    {
      "primitives": [
        {
          "attributes": {
            "POSITION": 0,
            "NORMAL": 1
          },
          "indices": 17,
          "mode": 4,
          "material": 0
        }
      ]
    },
    {
      "primitives": [
        {
          "attributes": {
            "POSITION": 0,
            "NORMAL": 1
          },
          "indices": 18,
          "mode": 4,
          "material": 1
        }
      ]
    },
    {
      "primitives": [
        {
          "attributes": {
            "POSITION": 2,
            "NORMAL": 3,
            "TEXCOORD_0": 4
          },
          "indices": 19,
          "mode": 4,
          "material": 2
        }
      ]
    }
  ],
  "accessors": [
    {
      "bufferView": 1,
      "componentType": 5126,
      "count": 6723,
      "type": "VEC3",
      "min": [
        -997.1262251475695,
        -225.2880353590317,
        -126.58000000000015
      ],
      "max": [
        995.3396765780298,
        180.47572464096845,
        853.8137053081842
      ]
    },
    {
      "bufferView": 2,
      "componentType": 5126,
      "count": 6723,
      "type": "VEC3",
      "min": [
        -0.9998912254086473,
        -0.997800414853456,
        -0.9979093809206533
      ],
      "max": [
        0.9998914760859948,
        0.997800414853456,
        1.0
      ]
    },
    {
      "bufferView": 3,
      "componentType": 5126,
      "count": 9375,
      "type": "VEC3",
      "min": [
        -1006.7718366727939,
        -128.5948534380131,
        -977.0046682236725
      ],
      "max": [
        1006.9705244571677,
        78.00774023899453,
        972.8525713430724
      ]
    },
    {
      "bufferView": 4,
      "componentType": 5126,
      "count": 9375,
      "type": "VEC3",
      "min": [
        -0.6324248986541163,
        0.6878196796623242,
        -0.6529236276194555
      ],
      "max": [
        0.7255601447005918,
        0.9999955516780271,
        0.5836183797616044
      ]
    },
    {
      "bufferView": 5,
      "componentType": 5126,
      "count": 9375,
      "type": "VEC2",
      "min": [
        0.03320316777471503,
        0.22644095240318285
      ],
      "max": [
        0.9669643468343389,
        0.8320504834455666
      ]
    },
    {
      "bufferView": 6,
      "componentType": 5123,
      "count": 1464,
      "type": "SCALAR"
    },
    {
      "bufferView": 6,
      "componentType": 5123,
      "count": 1896,
      "type": "SCALAR",
      "byteOffset": 2928
    },
    {
      "bufferView": 6,
      "componentType": 5123,
      "count": 936,
      "type": "SCALAR",
      "byteOffset": 6720
    },
    {
      "bufferView": 6,
      "componentType": 5123,
      "count": 768,
      "type": "SCALAR",
      "byteOffset": 8592
    },
    {
      "bufferView": 6,
      "componentType": 5123,
      "count": 1464,
      "type": "SCALAR",
      "byteOffset": 10128
    },
    {
      "bufferView": 6,
      "componentType": 5123,
      "count": 936,
      "type": "SCALAR",
      "byteOffset": 13056
    },
    {
      "bufferView": 6,
      "componentType": 5123,
      "count": 1908,
      "type": "SCALAR",
      "byteOffset": 14928
    },
    {
      "bufferView": 6,
      "componentType": 5123,
      "count": 1896,
      "type": "SCALAR",
      "byteOffset": 18744
    },
    {
      "bufferView": 6,
      "componentType": 5123,
      "count": 1908,
      "type": "SCALAR",
      "byteOffset": 22536
    },
    {
      "bufferView": 6,
      "componentType": 5123,
      "count": 1908,
      "type": "SCALAR",
      "byteOffset": 26352
    },
    {
      "bufferView": 6,
      "componentType": 5123,
      "count": 936,
      "type": "SCALAR",
      "byteOffset": 30168
    },
    {
      "bufferView": 6,
      "componentType": 5123,
      "count": 1464,
      "type": "SCALAR",
      "byteOffset": 32040
    },
    {
      "bufferView": 6,
      "componentType": 5123,
      "count": 1896,
      "type": "SCALAR",
      "byteOffset": 34968
    },
    {
      "bufferView": 6,
      "componentType": 5123,
      "count": 9,
      "type": "SCALAR",
      "byteOffset": 38760
    },
    {
      "bufferView": 7,
      "componentType": 5123,
      "count": 35082,
      "type": "SCALAR"
    }
  ],
  "bufferViews": [
    {
      "buffer": 0,
      "byteLength": 96267
    },
    {
      "buffer": 0,
      "byteOffset": 96276,
      "byteLength": 80676,
      "target": 34962,
      "byteStride": 12
    },
    {
      "buffer": 0,
      "byteOffset": 176952,
      "byteLength": 80676,
      "target": 34962,
      "byteStride": 12
    },
    {
      "buffer": 0,
      "byteOffset": 257628,
      "byteLength": 112500,
      "target": 34962,
      "byteStride": 12
    },
    {
      "buffer": 0,
      "byteOffset": 370128,
      "byteLength": 112500,
      "target": 34962,
      "byteStride": 12
    },
    {
      "buffer": 0,
      "byteOffset": 482632,
      "byteLength": 75000,
      "target": 34962,
      "byteStride": 8
    },
    {
      "buffer": 0,
      "byteOffset": 557632,
      "byteLength": 38778,
      "target": 34963
    },
    {
      "buffer": 0,
      "byteOffset": 596410,
      "byteLength": 70164,
      "target": 34963
    }
  ],
  "buffers": [
    {
      "uri": "data:application/octet-stream;base64,",
      "byteLength": 666574
    }
  ]
}